<svg xmlns="http://www.w3.org/2000/svg" xmlns:xlink="http://www.w3.org/1999/xlink" width="300" height="220" viewBox="0 0 300 220">
  <defs>
    <clipPath id="clip-path">
      <path id="パス_596" data-name="パス 596" d="M1930,728h300V948H1930Z" fill="none"/>
    </clipPath>
  </defs>
  <g id="グループ_409" data-name="グループ 409" transform="translate(-1930 -728)">
    <g id="グループ_408" data-name="グループ 408" clip-path="url(#clip-path)">
      <path id="パス_513" data-name="パス 513" d="M1963.386,887.854s-.387-5.036,2.325-6.328c2.066-1.033,7.231.775,7.619-2.066,1.033-6.973-4.52-19.887-5.811-27.247-.775-4.391,1.679-5.811,2.841-5.553,1.549.258,3.873,3.228,5.939,8.135,5.3,13.043,10.332,36.8,10.332,36.8a16.919,16.919,0,0,1,2.841,3.228c1.162,1.808,2.582,4.262,2.582,10.073-.129,12.655-8.006,15.754-5.682,37.191s13.689,47.392,13.689,47.392,9.556,1.55,16.529,4.649a37.523,37.523,0,0,1,11.235,7.361l-.388,8.91a150.673,150.673,0,0,1-8.135,21.953c-4.262,8.911-9.944,16.271-14.592,18.853-4.778,2.713-16.788,3.229-21.179-3.1-3.616-5.294-7.748-14.463-10.718-25.956-3.874-14.205-4.907-30.863-7.619-48.3-2.195-14.2-3.616-27.506-6.715-38.741-3.1-11.622-7.619-21.049-9.3-31.121-1.678-10.977,4.52-9.814,4.52-9.814s.9-4.133,2.971-6.07C1960.545,883.98,1963.386,887.854,1963.386,887.854Z" fill="#feede5"/>
      <path id="パス_514" data-name="パス 514" d="M1986.889,947.627a1.314,1.314,0,0,1-1.249-.987c-2.475-15.852-.571-21.342,1.635-27.7l.3-.9a98.3,98.3,0,0,0,3.209-12.056c.631-4.3-1.392-9.773-3.631-12.383a2.529,2.529,0,0,0-2.038-.827,11.642,11.642,0,0,0-4.47,1.341l-.765.383c-2.124.875-4.527,2.717-4.633,3.984a.973.973,0,0,0,.555.963,9.032,9.032,0,0,0,5.722,1.693,32.6,32.6,0,0,0,5.537-.607h.018c.963,0,1.309.533,1.34,1.059a1.059,1.059,0,0,1-.162.889,1.182,1.182,0,0,1-.982.465,35.106,35.106,0,0,1-5.852.6,11.659,11.659,0,0,1-7.227-2.114,3.668,3.668,0,0,1-1.626-3.244c.3-2.9,4.136-5.2,6.121-6.016l.741-.371a14.49,14.49,0,0,1,5.514-1.523,4.987,4.987,0,0,1,3.863,1.634,19.357,19.357,0,0,1,4.127,14.231,99.277,99.277,0,0,1-3.251,12.486l-.337,1c-2.15,6.319-3.849,11.312-1.461,26.317a1.187,1.187,0,0,1,.02.985,1.286,1.286,0,0,1-.9.681l-.06.015Z"/>
      <path id="パス_515" data-name="パス 515" d="M1976.945,911.34c-2.288-.142-4.227-2.618-6.626-6.569a77.916,77.916,0,0,1-5.585-10.781c-2.3-5.369-3.63-9.132-1.234-12.374a5.26,5.26,0,0,1,4.426-1.8c.434,0,.873.022,1.3.051,2.72,0,2.825-.2,2.825-1.051.119-5.361-1.744-11.207-3.388-16.365l-.333-1.046c-.8-2.4-1.458-4.649-1.941-6.341-.545-2.582-.934-4.846-.249-6.762.759-1.827,1.96-2.9,3.391-3.042.09-.009.188-.015.289-.015,1.229,0,3.113.811,5.113,4.673,4.788,9.708,9.7,25.689,12.831,41.716a1.21,1.21,0,0,1-.85,1.474,1.126,1.126,0,0,1-.362.06,1.263,1.263,0,0,1-1.174-.892c-2.92-15.591-7.753-31.376-12.63-41.261-1.188-2.373-2.3-3.217-2.895-3.217l-.143.009c-.35,0-.86.419-1.211,1.355-.482,1.328-.043,3.48.406,5.391a61.459,61.459,0,0,0,1.8,6.156l.157.5c1.666,5.248,3.741,11.78,3.614,17.621,0,3.461-3.064,3.461-4.894,3.461h-.514c-1.527,0-3.107,0-3.733.833-1.477,1.931-.9,4.29,1.482,9.966a78.434,78.434,0,0,0,4.607,9.124l.793,1.415c2.63,4.605,4.037,5.377,4.641,5.428a1.739,1.739,0,0,0,1.246-.719c.178-.182.821-1.1-.351-5.5a1.127,1.127,0,0,1,.119-.935,1.329,1.329,0,0,1,.723-.572,1.155,1.155,0,0,1,.363-.059,1.26,1.26,0,0,1,1.174.892c1.1,4.11,1.064,6.411-.1,7.722a3.822,3.822,0,0,1-2.827,1.459Z"/>
      <path id="パス_516" data-name="パス 516" d="M1976.558,895.844a1.165,1.165,0,0,1-1.121-.859,34.5,34.5,0,0,1-2.218-7.609,1.213,1.213,0,1,1,2.419-.168,41.886,41.886,0,0,0,2.039,6.938,1.163,1.163,0,0,1-.695,1.541A.651.651,0,0,1,1976.558,895.844Z"/>
      <path id="パス_517" data-name="パス 517" d="M1961.707,952.275a1.315,1.315,0,0,1-1.249-.987c-2.043-13.488-3.534-18.241-5.42-23.492-.135-.47-.292-.877-.449-1.284-.166-.432-.332-.865-.465-1.329l-.487-1.493c-1.849-5.669-3.945-12.094-4.423-13.883-1.353-5.005-2.085-11.348-.867-13.783,1-2,2.282-3.211,3.707-3.495a3.755,3.755,0,0,1,.808-.087,4.912,4.912,0,0,1,3.238,1.366c.9.772,11.907,14.62,12.176,19.458a3.277,3.277,0,0,1-.47,1.854,4.159,4.159,0,0,1-3.16,1.534,3.8,3.8,0,0,1-.412-.023c-5.478-.28-12.478-10.757-12.53-10.862a1.257,1.257,0,0,1,.223-1.61,1.313,1.313,0,0,1,.79-.287,1.345,1.345,0,0,1,.95.417c2.111,3.147,7.428,9.565,10.786,9.8a1.8,1.8,0,0,0,1.513-.717c.761-1.543-8.842-15.64-11.432-17.906a2.764,2.764,0,0,0-1.67-.812,1.118,1.118,0,0,0-.226.022c-.7.1-1.367.849-1.968,2.17-.723,1.445-.46,6.739,1.059,12.052.47,1.768,2.556,8.161,4.4,13.8l.505,1.548c.13.454.287.861.442,1.266.167.434.334.868.467,1.335,1.8,5.149,3.5,10,5.439,23.829A1.422,1.422,0,0,1,1961.707,952.275Z"/>
      <path id="パス_518" data-name="パス 518" d="M1953.232,894.552l-.077-.025a1.327,1.327,0,0,1-.722-.573,1.144,1.144,0,0,1-.119-.937,15.223,15.223,0,0,1,1.734-4.387,8.224,8.224,0,0,1,4.7-3.714,5.361,5.361,0,0,1,4.144.843,11.854,11.854,0,0,1,2.586,2.97,1.2,1.2,0,0,1,.2.909,1.312,1.312,0,0,1-.594.827,1.219,1.219,0,0,1-.684.219,1.253,1.253,0,0,1-1.043-.616,10.154,10.154,0,0,0-1.962-2.34,2.864,2.864,0,0,0-1.545-.509,2.109,2.109,0,0,0-.587.083,5.794,5.794,0,0,0-3.2,2.5,13.654,13.654,0,0,0-1.353,3.7,1.337,1.337,0,0,1-1.266,1.053Z"/>
      <path id="パス_519" data-name="パス 519" d="M1971.393,914.956a8.663,8.663,0,0,1-5.36-2.314,1.5,1.5,0,0,1-.428-.816,1.075,1.075,0,0,1,.269-.953,1.477,1.477,0,0,1,1.006-.415,1.022,1.022,0,0,1,.733.287,6.674,6.674,0,0,0,3.833,1.694,1.45,1.45,0,0,0,.818-.2c.449-.369.913-1.731-1.324-6.483l-.124-.248a1.3,1.3,0,0,1,.021-1.041,1.12,1.12,0,0,1,.656-.56,1.41,1.41,0,0,1,.444-.074,1.117,1.117,0,0,1,1.092.778l.1.193c1.272,2.923,3.179,7.3.645,9.39A4.069,4.069,0,0,1,1971.393,914.956Z"/>
      <path id="パス_520" data-name="パス 520" d="M2011.554,1022.4a1.3,1.3,0,0,1-1.249-.987c-1.078-8.019-4.328-15.144-7.471-22.034-.4-.892-.8-1.779-1.2-2.672-1.177-2.592-2.394-5.271-3.457-8.075-6.942-17.869-13.721-36.962-13.721-56.609a1.275,1.275,0,1,1,2.55,0c0,18.932,6.682,37.916,13.525,55.735,1.053,2.775,2.262,5.437,3.431,8.013.407.9.813,1.789,1.209,2.681l.17.38c3.323,7.412,6.462,14.412,7.487,22.228A1.331,1.331,0,0,1,2011.554,1022.4Z"/>
      <path id="パス_521" data-name="パス 521" d="M1995.8,1054.034c-5.995,0-11.124-2.4-13.721-6.427-2.745-4.184-11.951-20.177-15.057-50.2-2.2-21.248-5.561-41.24-8.26-57.3a.971.971,0,0,1,.174-.854,1.219,1.219,0,0,1,.885-.5.971.971,0,0,1,.234-.028,1.177,1.177,0,0,1,1.121,1.172l.619,3.635c2.558,15.171,5.74,34.052,7.771,53.649,2.8,26.824,10.379,42.286,14.649,49.116,2.184,3.277,6.58,5.241,11.749,5.241a22.823,22.823,0,0,0,6.79-1.063c6.9-2.172,16.9-15.883,23.684-41.62a1.272,1.272,0,0,1,1.184-.921,1.152,1.152,0,0,1,.362.058,1.225,1.225,0,0,1,.831,1.538c-7.552,28.527-18.325,41.1-25.252,43.193A24.6,24.6,0,0,1,1995.8,1054.034Z"/>
      <path id="パス_522" data-name="パス 522" d="M1967.367,1009.215c-2.522,2.655,1.89,8.365,5.376,20.169,3.439,11.646,1.664,14.618,5.75,19.125,4.821,5.318,11.792,6.143,13.75,6.375a25.537,25.537,0,0,0,16.25-3.75c2.46-1.487,6.394-4.412,11.125-12.625a75.819,75.819,0,0,0,9.371-28.761c1.9-15.8-.555-21.677-1-36.989-1.048-36.417,11.543-47.995,3.125-71-.6-1.645-5.794-18.467-10.5-18-.7.069-1.393.756-2.75,2.125-5.488,5.537-8.233,8.306-8.375,8.5-2.62,3.567-3.621,6.753-5.625,13.125a98.1,98.1,0,0,0-3.125,13.125,147.113,147.113,0,0,0-1.75,18.875c-.367,7.114-.308,11.562-1.5,19.25-.439,2.831-.511,2.64-.625,3.75-1,9.752,7.06,11.021,6.92,18.119-.07,3.582-1.968,6.862-6.67,12.006-2.683,2.935-12.82,9.328-24.046,14.25C1970.792,1007.884,1968.439,1008.087,1967.367,1009.215Z" fill="#fff" fill-rule="evenodd"/>
      <path id="パス_523" data-name="パス 523" d="M1964.062,981.226c-.427-.2-2.473,1.859-3.194,4.533-.806,2.988.786,3.98.75,8.875-.023,3.173-.694,2.969-.375,5,.607,3.87,3.482,9.419,3.482,9.419v-2s3.231,1.031,3.393,1.081c4.907,1.517,29-9,36-28.375-.65-1.809-1.937-2.13-3.125-5.375-1.82-4.971-.276-8.256-2.625-10a10.737,10.737,0,0,0-4.1-1.414c-.818-.134-1.114-.091-1.164.031-.108.27,1.057.749,1.518,1.383,1.367,1.88-2.281,6.741-3.25,8a50.241,50.241,0,0,1-13.625,12.25c-4.835,2.957-8.129,4.913-10.58,3.542a6.686,6.686,0,0,1-3.17-5.042C1963.958,982.089,1964.3,981.337,1964.062,981.226Z" fill="#fff" fill-rule="evenodd"/>
      <path id="パス_524" data-name="パス 524" d="M2052.132,795.986c0-12.429-2.168-24.1,3.358-30.343,4.645-5.248,16.2-6.073,24.514-6.073,4.537,0,7.205-.343,10.868,1.462,3.8,1.875,7.929,4.207,10.793,8.293,2.006,2.862,3.206,7.059,4.046,10.534,1.805,7.455,3.039,10.213,5.444,13.414,2.274,3.026,6.134-1.412,8.836-1.038,3.273.451,4.5,3.559,5.222,7.419a17.335,17.335,0,0,1-2.241,12.278c-2.486,4.312-6.784,3.777-6.789,4.4-.022,2.912-1.546,7.393-2.661,10.411-1.351,3.656-2.351,6.722-2.179,8.487.642,6.639,5.317,11.608,5.319,11.942.038,24.777-16.359,52.07-23.784,58.29-7.589,6.357-26.754-49.161-26.574-49.873a35.248,35.248,0,0,0,.954-7.5c-.207-5.076.472-7.2-1.8-9.353-3.855-3.659-6.578-10.416-6.96-11.278-1.078-2.436-1.648-1.884-2.6-2.118-4.623-1.128-5.618-2.968-8.01-6.689-2.05-3.189-2.992-9.162-2.934-10.3.247-4.861,2.212-5.563,3.181-5.548C2053.391,802.884,2052.132,800.177,2052.132,795.986Z" fill="#feede5" fill-rule="evenodd"/>
      <path id="パス_525" data-name="パス 525" d="M2193.022,1049.345s.475-1.494,3.328-2.445,8.08-1.358,11.34-1.834a35.167,35.167,0,0,1,10.321.34c3.328.544,7.2,1.426,7.878,2.649s.407,2.036.067,4.006-1.6,11.587-2.281,15.292-2.33,16.2-2.8,18.879-1.231,11.818-1.4,14.443-.725,8.449-.364,10.6.585,5.785.773,7.816a72.285,72.285,0,0,1,.464,11.649c-.35,4.078-.344,9.265-1.622,13.284s-2.651,8.274-4.206,11.069-3.406,4.99-4.37,6.612-1.479,3.18-3.18,4.706-3.21,2.077-5.309,3.3a16.922,16.922,0,0,0-4.486,3.222c-1.516,1.55-3.528,2.6-4.847,4.549s-1.452,3.433-2.97,4.046-3.725-.178-3.334-3.626a91.807,91.807,0,0,1,1.919-9.37,70.11,70.11,0,0,1,3.121-9.463,28.462,28.462,0,0,0,1.651-8.282,47.48,47.48,0,0,0-.339-8.355c-.33-2.231-1.174-4.841-2.151-3.594s-2.653,2.588-3.177,5.143a38.156,38.156,0,0,1-2.144,7.278c-1.116,2.79-1.813,5.7-3.25,7.135s-4.348,2.177-3.621-.977,1.254-5.271,1.777-8.765,1.435-8.059,1.351-11.695.016-7.247,1.287-10.266a51.534,51.534,0,0,1,5.612-9.885c2.2-2.96,5.25-7.121,6.129-10.005s1.28-10.282,1.324-15.363.207-16.283-.143-20.742-.866-13.653-1.162-16.139A32.021,32.021,0,0,0,2193.022,1049.345Z" fill="#feede5" fill-rule="evenodd"/>
      <path id="パス_526" data-name="パス 526" d="M2073.235,823.359l22.426-2.872s-1.76,9.686-10.327,10.389C2078.683,831.42,2073.214,825.012,2073.235,823.359Z" fill="#fcd5cb" fill-rule="evenodd"/>
      <path id="パス_527" data-name="パス 527" d="M2116.256,796.224s-3.994-1.5-5.454-3.564a32.839,32.839,0,0,1-4.252-9.148c-.816-3.135-1.073-5.883-2.533-9.233s-1.5-3.693-2.922-5.368-4.98-4.166-6.526-5.454-6.357-3.779-7.9-3.994-8.03,4.166-9.749,5.411a24.471,24.471,0,0,1-7.811,3.357c-2.677.581-3.657,1.671-6.659,1.106s-5.227-.53-6.345-.934-2.24,1.456-2.866,3.192a23.183,23.183,0,0,0-1.49,7.468,81.276,81.276,0,0,0,.723,9.158c.316,2.949.188,6.827.3,8.821s.318,5.442-.9,6.076-1.51-.782-2.962-.451-.521-1.412-1.755-4.192a104.456,104.456,0,0,1-4.589-15.588c-.731-4.054-1.158-9.027-.553-12.4s1.787-6.006,1.638-8.1-.788-3.545-.058-7.36a38.328,38.328,0,0,1,4.239-10.951c1.76-3.13,5.309-7.326,8.489-6.207s5.736,1.974,7.931,1.327a32.433,32.433,0,0,1,9.856-1.836c4.534-.053,15.328.987,20.081,2.838s8.672,2.752,11.155,5.44,2.895.958,5.121,4.412a42.272,42.272,0,0,1,4.684,10.141c1,3.159,2.135,7.213,2.756,10.244s1.322,5.6,1.7,8.285a61.768,61.768,0,0,1,.528,9.345c-.118,2.2.482,4.157-.568,4.382s-2.241.256-2.732,1.582A9.663,9.663,0,0,0,2116.256,796.224Z" fill="#da9289" fill-rule="evenodd"/>
      <path id="パス_528" data-name="パス 528" d="M2021.346,882.867c2.878-1.906,9.51-5.848,12.434-7.342s7.4-3.836,11.089-5.991,7.274-3.5,9.47-5.245,3.541-1.942,4.185-3.446.757-4.555,1.854-7.173.349-2.652,2.507-4.51a12.241,12.241,0,0,1,4.4-2.442,22.56,22.56,0,0,1,0,4.258c-.23,2.206-1.521,2.814-.685,4.715s3.422,6.351,5.437,8.213,6.464,5.9,8.29,7.339,5.648,4.646,6.431,6.678,1.493,2.353,1.716,5.52-.763,5.229-.062,8.711a38.33,38.33,0,0,0,1.978,7.3c.46.81,1.251.082,1.688-2.274s.521-6.535,1.21-9.58,1.129-5.232,2.236-8.77a19.166,19.166,0,0,1,4.383-7.9,121.217,121.217,0,0,0,8.594-10.409,107.386,107.386,0,0,0,6.416-10.188c1.421-2.842,1.078-4.212.491-4.947s-2.5-3.576-2.744-4.948.148-2.3,1.617-1.763,4.114,1.421,5.094,3.037a17.177,17.177,0,0,0,4.36,5.094c2.007,1.47,5.142,2.205,7.69,3.183s5.525,1.581,7.532,2.338,6.043,2.03,8.547,2.8,7.964,2.255,11,3.147,9.819,2.649,12.9,3.78a95,95,0,0,1,10.915,4.229c4.127,2.047,6.612,3.04,9.4,5.729s7.043,7.291,8,9.689a161.6,161.6,0,0,1,4.529,15.592c1.719,6.891,4.939,17.8,5.983,22.643s4.149,16.168,5.158,20.295a132.581,132.581,0,0,0,4.637,15.434c1.88,4.76,4.027,10.479,5.227,14.746a41.886,41.886,0,0,1,1.663,10.158,75.714,75.714,0,0,0,.755,8.6c.414,2.238.266,7.713.759,9.806s1.516,4.032,1.224,7.767-.407,7.864-.683,11.639-1.229,7.146-.437,8.322,3.424,1.518,3.7,4.257.842,3.359.187,6.812-.71,5.177-1.269,7.833-.9,5.017-2.961,3.677a27.61,27.61,0,0,0-7.994-3.241,41.5,41.5,0,0,0-12.76-.918c-3.723.459-7.625.353-9.992,1.5s-4.463,2.806-5.821,2.808-2.429-.4-2.724-2.45-.326-4.091-.7-5.452-1.517-6.334-1.744-8.259-.589-5.255.166-6.4,2.474-1.791,2.181-3.5a41.619,41.619,0,0,0-1.869-6.512c-.873-2.4-1.534-4.745-1.967-6.364s-1.032-4.548-2.5-5.991a19.94,19.94,0,0,1-3.779-5.292c-.682-1.566-1.317-5.7-1.808-7.793s-1.76-10.508-2.583-13.318-2.079-6.08-2.075-3.893-.476,7.058-.807,11.743-.913,18.051-1.208,22.162-.043,14.292-.274,18.078.114,11,.035,17.761.679,14.156,1.1,19.537.655,10.772,1.16,13.858a101.031,101.031,0,0,0,1.922,10.175c1.1,4.35,2.1,8.747,1.908,11.569s.584,5.727-.955,8.448-1.274,4.561-6.27,6.008-12.9,3.872-17.264,4.276-11.957.94-16.846,1.279-10.536-.154-15.779.223-11.541.5-14.986.727-10.608.4-15.081.848a121.074,121.074,0,0,1-15.626.8c-5.71-.162-12.094-.234-16.427-1.23s-9.776-2.176-14.4-4.307-9.121-3.836-9.823-5.544-.1-6.282-.238-11.161.186-16.249.305-19.375.42-18.091.335-22.261-.268-11.3-.635-12.146" fill="#fff" fill-rule="evenodd"/>
      <path id="パス_529" data-name="パス 529" d="M1973.462,989.014" fill="#fff" fill-rule="evenodd"/>
      <path id="パス_530" data-name="パス 530" d="M2033.193,1114.54s.4-2.506,1.608-2.119,6.469,2.768,9.573,4.16a36,36,0,0,0,10.575,3.066,122.728,122.728,0,0,0,14.472,1.579c4.043.132,10.159.183,14.145,0s10.164-.851,13.844-.98,11.428-.744,16.717-.841,14.537-.929,20.539-.738a100.9,100.9,0,0,0,16.576-1.014c4.96-.656,10.794-1.505,14.194-2.924s5.941-3.026,7.082-4.567a20.819,20.819,0,0,0,2.527-4.054c.374-.991,1.063-.13,1.917,2.336a98.007,98.007,0,0,1,3.13,9.678,82.241,82.241,0,0,1,1.8,10.34c.143,1.8-.475,4.223-.665,7.212s-.142,7.211-.616,9.63-.949,5.407-1.66,7.921-1.329,6.785-.238,6.642,1.945.427,3.227-2.135,2.846-5.17,3.273-6.784,1.232-1.612,1.469.381.95,4.479,1.27,7.738c.348,3.546.348,8.072.348,8.072s-36.064,24.494-86.5,29.389c-40.6,3.941-70.594-7.223-70.594-7.223s-.211-12.177-.222-14.107c-.016-2.937.465-18,.709-21.689s.366-8.128.268-11.8a94.137,94.137,0,0,1-.12-11.765c.372-5.043.282-9.655.754-12.187S2033.193,1114.54,2033.193,1114.54Z" fill="#d8d6d7" fill-rule="evenodd"/>
      <path id="パス_531" data-name="パス 531" d="M2086.829,849.95c-11.173,0-24.82-7.356-30.126-23.789a20.027,20.027,0,0,1-.978-5.484,1.464,1.464,0,0,1,1.415-1.51h0a1.5,1.5,0,0,1,1.5,1.412,17.043,17.043,0,0,0,.839,4.682c4.849,15.024,17.316,21.748,27.52,21.748a21.907,21.907,0,0,0,3.359-.254c7.23-1.129,14.133-5.962,18.468-12.93a50.749,50.749,0,0,0,6.229-20.47,1.463,1.463,0,0,1,2.919.205,53.767,53.767,0,0,1-6.664,21.811c-4.781,7.681-12.444,13.017-20.5,14.274A25.885,25.885,0,0,1,2086.829,849.95Z"/>
      <path id="パス_532" data-name="パス 532" d="M2055.937,826.829c-2.816-.046-5.552-2.7-6.6-3.846a22.182,22.182,0,0,1-5.421-17.778,5.176,5.176,0,0,1,3.875-3.732,4.752,4.752,0,0,1,1.133-.143,3.454,3.454,0,0,1,2.81,1.34,1.464,1.464,0,0,1-2.322,1.782.553.553,0,0,0-.494-.2,1.743,1.743,0,0,0-.423.058,2.4,2.4,0,0,0-1.693,1.382,19.115,19.115,0,0,0,4.691,15.313c1.212,1.323,3.113,2.875,4.482,2.9a1.462,1.462,0,0,1-.025,2.924Z"/>
      <path id="パス_533" data-name="パス 533" d="M2053.369,815.937a1.45,1.45,0,0,1-1.162-.572,1.86,1.86,0,0,0-1.481-.6,2.876,2.876,0,0,0-.523.048,1.366,1.366,0,0,1-.279.028,1.464,1.464,0,0,1-.273-2.9,5.937,5.937,0,0,1,1.1-.1,4.687,4.687,0,0,1,3.781,1.749,1.461,1.461,0,0,1-1.16,2.352Z"/>
      <path id="パス_534" data-name="パス 534" d="M2117.621,817.136a1.461,1.461,0,0,1-1.434-1.188,1.439,1.439,0,0,1,.222-1.094,1.454,1.454,0,0,1,.938-.617c3.247-.628,4.817-3.423,5.562-5.657a19.316,19.316,0,0,0,.549-9.207l-.111-.6c-.284-1.535-.634-3.436-1.534-4.291a2,2,0,0,0-1.4-.533,2.773,2.773,0,0,0-1.3.338,2.059,2.059,0,0,0-1.15,2.229,1.461,1.461,0,0,1-1.159,1.713,1.424,1.424,0,0,1-.275.026,1.462,1.462,0,0,1-1.438-1.188,4.973,4.973,0,0,1,2.616-5.346,5.639,5.639,0,0,1,2.694-.7,4.942,4.942,0,0,1,3.432,1.345c1.588,1.508,2.035,3.927,2.4,5.871l.107.584a22.078,22.078,0,0,1-.645,10.682c-1.422,4.267-4.115,6.9-7.787,7.6A1.4,1.4,0,0,1,2117.621,817.136Z"/>
      <path id="パス_535" data-name="パス 535" d="M2116.9,806.311a1.5,1.5,0,0,1-.391-.053,1.469,1.469,0,0,1-1.018-1.8c.712-2.534,3.9-3.338,4.861-3.524a1.462,1.462,0,1,1,.554,2.872c-1.343.26-2.435.866-2.6,1.441A1.473,1.473,0,0,1,2116.9,806.311Z"/>
      <path id="パス_536" data-name="パス 536" d="M2065.924,801.678a2.472,2.472,0,0,1-2.246-2.2,2.87,2.87,0,0,1,.367-2.145,1.954,1.954,0,0,1,1.252-.842,1.977,1.977,0,0,1,.366-.035,2.47,2.47,0,0,1,2.24,2.2,2.875,2.875,0,0,1-.367,2.144,1.959,1.959,0,0,1-1.25.842A1.912,1.912,0,0,1,2065.924,801.678Z"/>
      <path id="パス_537" data-name="パス 537" d="M2097.231,795.945a2.473,2.473,0,0,1-2.249-2.2,2.87,2.87,0,0,1,.368-2.144,1.959,1.959,0,0,1,1.25-.841,1.716,1.716,0,0,1,.357-.036,1.98,1.98,0,0,1,1.108.349,3.084,3.084,0,0,1,.779,4,1.956,1.956,0,0,1-1.253.844A1.9,1.9,0,0,1,2097.231,795.945Z"/>
      <path id="パス_538" data-name="パス 538" d="M2060.328,790.018a1.466,1.466,0,0,1-1.206-.633,1.46,1.46,0,0,1,.376-2.034,15.165,15.165,0,0,1,7.9-2.093,9.893,9.893,0,0,1,3.452.533,1.463,1.463,0,0,1-1.045,2.733,6.846,6.846,0,0,0-2.361-.34,12.565,12.565,0,0,0-6.284,1.577A1.452,1.452,0,0,1,2060.328,790.018Z"/>
      <path id="パス_539" data-name="パス 539" d="M2088.449,783.661a1.461,1.461,0,0,1-1.133-2.387c1.28-1.566,5.4-2.618,8.449-2.618a9.16,9.16,0,0,1,3.25.5,1.463,1.463,0,0,1,.838,1.891,1.462,1.462,0,0,1-1.89.838,6.2,6.2,0,0,0-2.173-.32c-2.63,0-5.729.971-6.207,1.558A1.462,1.462,0,0,1,2088.449,783.661Z"/>
      <path id="パス_540" data-name="パス 540" d="M2081.941,811.533a1.453,1.453,0,0,1-1.088-.487,9.123,9.123,0,0,0-.906-.829,6.656,6.656,0,0,1-2.212-2.775,4.591,4.591,0,0,1,.729-3.883,4.426,4.426,0,0,0,.579-1.336,9.3,9.3,0,0,0-.584-3.486c-.2-.655-.416-1.4-.569-2.181a1.458,1.458,0,0,1,1.161-1.713,1.4,1.4,0,0,1,.283-.029,1.459,1.459,0,0,1,1.428,1.189,19.288,19.288,0,0,0,.5,1.876,11.813,11.813,0,0,1,.7,4.6,6.467,6.467,0,0,1-.925,2.482c-.37.677-.646,1.215-.553,1.464a4.013,4.013,0,0,0,1.352,1.553,11.5,11.5,0,0,1,1.2,1.118,1.461,1.461,0,0,1-1.089,2.437Z"/>
      <path id="パス_541" data-name="パス 541" d="M2046.96,799.442a1.471,1.471,0,0,1-1.365-.94c-5.31-13.877-6.418-25.661-3.387-36.025.44-1.506.25-2.784-.166-5.586-.086-.574-.179-1.2-.275-1.9a1.459,1.459,0,0,1,1.245-1.65,1.241,1.241,0,0,1,.223-.019,1.459,1.459,0,0,1,1.427,1.263c.1.687.19,1.306.274,1.87.452,3.042.7,4.717.08,6.839-2.844,9.73-1.761,20.9,3.31,34.157a1.463,1.463,0,0,1-.843,1.89A1.492,1.492,0,0,1,2046.96,799.442Z"/>
      <path id="パス_542" data-name="パス 542" d="M2120.054,793.278a1.342,1.342,0,0,1-.2-.013,1.461,1.461,0,0,1-1.251-1.639,51.749,51.749,0,0,0-.692-13.512l-.316-1.646a122.709,122.709,0,0,0-3.407-14.481c-.753-2.488-2.817-8.59-5.684-11.494a1.462,1.462,0,0,1,2.08-2.056c3.213,3.254,5.392,9.355,6.4,12.7a126.488,126.488,0,0,1,3.479,14.777l.316,1.642a54.282,54.282,0,0,1,.72,14.449A1.464,1.464,0,0,1,2120.054,793.278Z"/>
      <path id="パス_543" data-name="パス 543" d="M2094.4,765.1a1.467,1.467,0,0,1-.931-.333c-2.5-2.063-4.522-3.341-7.494-3.771a12.4,12.4,0,0,0-1.757-.119,30.176,30.176,0,0,0-5.06.584,33.7,33.7,0,0,1-5.258.623c-.2.006-.4.009-.61.009-4.929,0-11.6-1.726-15.536-6.57a1.464,1.464,0,0,1,2.269-1.849c4.137,5.092,11.539,5.487,13.709,5.487h.126a31.358,31.358,0,0,0,4.8-.583,32.808,32.808,0,0,1,5.564-.625,15.174,15.174,0,0,1,2.168.148c3.654.528,6.045,2.017,8.938,4.41a1.462,1.462,0,0,1-.931,2.589Z"/>
      <path id="パス_544" data-name="パス 544" d="M2062.342,770.567c-5.4,0-9.553-1.943-12.348-5.777a1.469,1.469,0,0,1,.32-2.044,1.452,1.452,0,0,1,.86-.28,1.47,1.47,0,0,1,1.184.6c2.213,3.036,5.585,4.575,10.023,4.575,4.943,0,10.043-1.926,12.642-3.075a1.441,1.441,0,0,1,.588-.125,1.463,1.463,0,0,1,.594,2.8C2073.4,768.484,2067.861,770.567,2062.342,770.567Z"/>
      <path id="パス_545" data-name="パス 545" d="M2046.529,754.663a1.459,1.459,0,0,1-1.455-1.323c-.418-4.407,1.678-11.248,4.484-14.641a1.463,1.463,0,1,1,2.253,1.866,20.614,20.614,0,0,0-3.823,12.5,1.466,1.466,0,0,1-1.319,1.595Z"/>
      <path id="パス_546" data-name="パス 546" d="M2105.734,747.8a1.454,1.454,0,0,1-1.039-.433c-6.095-6.173-20.76-8.413-29.131-8.413-.689,0-1.29.017-1.785.049a33.5,33.5,0,0,0-5.491.925,25.991,25.991,0,0,1-6.017.887,17.006,17.006,0,0,1-6.02-1.153,1.464,1.464,0,0,1,1.02-2.744,13.913,13.913,0,0,0,5,.967,23.65,23.65,0,0,0,5.346-.8,35.792,35.792,0,0,1,5.971-1c.6-.04,1.307-.06,2.093-.06,7.583,0,23.841,1.941,31.093,9.286a1.461,1.461,0,0,1-1.041,2.49Z"/>
      <path id="パス_547" data-name="パス 547" d="M2113.415,796.52a1.452,1.452,0,0,1-.852-.274c-5.073-3.653-6.521-9.33-7.92-14.819-1.035-4.058-2.1-8.244-4.658-11.389a1.463,1.463,0,0,1,2.27-1.848c2.96,3.642,4.108,8.143,5.218,12.5,1.331,5.223,2.586,10.15,6.8,13.184a1.461,1.461,0,0,1-.856,2.649Z"/>
      <path id="パス_548" data-name="パス 548" d="M2052.414,801.55a1.455,1.455,0,0,1-1.455-1.325,34.66,34.66,0,0,1-.014-4.874,35.6,35.6,0,0,0,.035-3.954c-.074-1.132-.176-2.29-.281-3.464-.495-5.565-1-11.265,1.023-16.5a1.463,1.463,0,1,1,2.729,1.055c-1.78,4.6-1.3,9.955-.844,15.132l.015.164c.1,1.161.2,2.307.277,3.428a38.116,38.116,0,0,1-.028,4.226,31.614,31.614,0,0,0,0,4.515,1.466,1.466,0,0,1-1.319,1.6Z"/>
      <path id="パス_549" data-name="パス 549" d="M2084.528,832.371c-4.711,0-8.367-2.938-9.719-4.2-.512-.477-3.062-2.952-3.037-4.83a1.464,1.464,0,0,1,1.278-1.431l22.426-2.872a1.314,1.314,0,0,1,.2-.015,1.466,1.466,0,0,1,1.425,1.73c-.083.442-2.156,10.8-11.647,11.581C2085.142,832.359,2084.833,832.371,2084.528,832.371Zm-9.083-7.82a12.87,12.87,0,0,0,1.86,1.927,11.67,11.67,0,0,0,7.209,2.969c.23,0,.464-.009.7-.029,5.068-.415,7.407-4.4,8.431-7.2Z"/>
      <path id="パス_550" data-name="パス 550" d="M2066.8,856.089a1.513,1.513,0,0,1-.352-.044,1.468,1.468,0,0,1-1.067-1.778c.877-3.455.759-7.635.664-10.994-.023-.835-.044-1.592-.05-2.289a1.46,1.46,0,0,1,1.448-1.475,1.553,1.553,0,0,1,1.476,1.448c.008.689.028,1.439.052,2.233.1,3.567.219,7.959-.752,11.794A1.464,1.464,0,0,1,2066.8,856.089Z"/>
      <path id="パス_551" data-name="パス 551" d="M2116.139,847.984a1.464,1.464,0,0,1-1.1-.5c-3.311-3.769-5.02-8.6-5.078-14.363a1.461,1.461,0,0,1,1.447-1.476l.1-.005a1.407,1.407,0,0,1,1.372,1.455,18.561,18.561,0,0,0,4.352,12.457,1.462,1.462,0,0,1-1.1,2.428Z"/>
      <path id="パス_552" data-name="パス 552" d="M2090.717,902.421a1.45,1.45,0,0,1-1.252-.7c-2.3-3.789-2.325-8.523-2.351-13.1-.022-4.183-.045-8.126-1.9-10.35a64.275,64.275,0,0,0-7.485-7.215c-3.845-3.325-7.82-6.762-10.7-11.559-.191-.319-.445-.705-.729-1.136l-.061-.092c-1.348-2.047-3.028-4.595-3.028-6.614a1.462,1.462,0,1,1,2.924,0c0,1.147,1.594,3.561,2.548,5l.112.172c.288.439.547.835.743,1.163,2.643,4.4,6.437,7.679,10.1,10.851a66.2,66.2,0,0,1,7.817,7.556c2.527,3.031,2.551,7.485,2.576,12.2.023,4.185.047,8.508,1.926,11.605a1.462,1.462,0,0,1-1.249,2.221Z"/>
      <path id="パス_553" data-name="パス 553" d="M2071.5,895.377a1.589,1.589,0,0,1-.9-.281,2.585,2.585,0,0,1-.808-2.074,7.541,7.541,0,0,0-.427-1.267c-.14-.353-.245-.618-.323-.852a53.125,53.125,0,0,0-2.988-7.416l-1.1-2.11c-5.328-10.213-10.838-20.774-4.328-31.5.507-.833,3.543-4.173,5.929-4.418l.148-.008a1.462,1.462,0,0,1,.149,2.917c-.9.093-3.255,2.252-3.725,3.027-5.653,9.316-.763,18.7,4.416,28.627l1.1,2.124a55.516,55.516,0,0,1,3.165,7.833c.069.205.164.445.264.694l.023.056c.024-.044.047-.086.069-.125a13.4,13.4,0,0,1,.686-1.159c.325-.443.74-1.1,1.22-1.866l.086-.137c2.435-3.89,5.771-9.218,9.673-9.218a4.368,4.368,0,0,1,1.96.476,1.464,1.464,0,0,1-1.307,2.62,1.34,1.34,0,0,0-.616-.147c-2.326,0-5.632,5.27-7.221,7.8-.543.865-1.044,1.664-1.434,2.2-.088.121-.21.346-.36.617l-.093.17c-1.029,1.858-1.787,3.1-2.913,3.379A1.377,1.377,0,0,1,2071.5,895.377Z"/>
      <path id="パス_554" data-name="パス 554" d="M2115.5,892.035a1.45,1.45,0,0,1-.848-.272,13.8,13.8,0,0,0-2.442-1.272,15.913,15.913,0,0,1-2.911-1.537,25.54,25.54,0,0,1-3.34-3.369c-2.258-2.531-5.654-6.338-7.813-6.338a1.632,1.632,0,0,0-1.3.736,1.455,1.455,0,0,1-1.142.549,1.473,1.473,0,0,1-.914-.32,1.464,1.464,0,0,1-.23-2.057,4.483,4.483,0,0,1,3.457-1.833h.121c3.47,0,7.086,4.05,9.992,7.3a25.366,25.366,0,0,0,2.868,2.948,13.454,13.454,0,0,0,2.387,1.24,16.134,16.134,0,0,1,2.964,1.57,1.462,1.462,0,0,1,.341,2.04A1.468,1.468,0,0,1,2115.5,892.035Z"/>
      <path id="パス_555" data-name="パス 555" d="M2090.869,902.266a1.477,1.477,0,0,1-.665-.161,1.464,1.464,0,0,1-.635-1.97c1.266-2.471,1.766-6.338,2.3-10.431.8-6.147,1.7-13.1,5.527-17.6l.212-.25c5.9-6.934,13.233-15.562,16.959-24.258.7-1.633,1.2-4.6.334-5.911a1.508,1.508,0,0,0-1.443-.636,1.462,1.462,0,1,1,0-2.924,4.383,4.383,0,0,1,3.885,1.948c1.74,2.637.7,6.827-.086,8.675-3.9,9.1-11.4,17.914-17.417,25l-.216.254c-3.271,3.851-4.111,10.343-4.851,16.072-.568,4.373-1.1,8.479-2.6,11.4A1.463,1.463,0,0,1,2090.869,902.266Z"/>
      <path id="パス_556" data-name="パス 556" d="M2126.671,850.723a1.452,1.452,0,0,1-.816-.249,23.416,23.416,0,0,1-3.541-2.686c-.654-.726-1.284-1.516-1.893-2.28-2.191-2.75-4.2-5.277-7.237-5.277a1.462,1.462,0,1,1,0-2.924c4.444,0,7,3.205,9.465,6.3.595.746,1.208,1.518,1.841,2.221a23.633,23.633,0,0,0,3,2.214,1.463,1.463,0,0,1-.818,2.677Z"/>
      <path id="パス_557" data-name="パス 557" d="M2116.317,891.328a1.462,1.462,0,0,1-1.388-1c-.857-2.57-.333-5.4.13-7.9.081-.439.158-.853.224-1.252.92-5.516,2.88-10.866,4.776-16.04l.606-1.66c.266-.735.578-1.512.9-2.315,1.007-2.51,2.145-5.343,2.145-7.676a1.462,1.462,0,1,1,2.924,0c0,2.909-1.25,6.019-2.354,8.763-.327.815-.617,1.541-.868,2.229l-.608,1.664c-1.85,5.053-3.763,10.277-4.636,15.516-.063.373-.133.759-.2,1.153l-.027.145c-.4,2.151-.851,4.588-.232,6.447a1.467,1.467,0,0,1-1.388,1.926Z"/>
      <path id="パス_558" data-name="パス 558" d="M2010.559,894.49a1.461,1.461,0,0,1-1.155-2.359c6.833-8.79,16.559-13.98,25.965-19l.109-.058c3.026-1.616,6.155-3.287,9.1-5.042,1-.595,2.028-1.172,3.065-1.752l.156-.087c3.347-1.872,6.808-3.806,9.431-6.457a1.442,1.442,0,0,1,1.038-.435,1.462,1.462,0,0,1,1.042,2.491c-2.916,2.945-6.559,4.983-10.083,6.955l-.09.05c-1.035.579-2.064,1.155-3.065,1.749-3.053,1.817-6.243,3.52-9.327,5.166-9.135,4.874-18.581,9.913-25.034,18.214A1.449,1.449,0,0,1,2010.559,894.49Z"/>
      <path id="パス_559" data-name="パス 559" d="M2193.64,875.873a1.46,1.46,0,0,1-1.149-.556c-4.247-5.39-11.24-8.029-17.409-10.358-5.985-2.261-12.295-4.016-18.4-5.712-5.445-1.515-11.059-3.076-16.479-5a36.359,36.359,0,0,0-3.682-1.015,27.659,27.659,0,0,1-5.848-1.865,1.462,1.462,0,1,1,1.292-2.624,25.434,25.434,0,0,0,5.2,1.635,39.792,39.792,0,0,1,4.018,1.113c5.333,1.892,10.9,3.44,16.284,4.937,6.157,1.712,12.524,3.482,18.647,5.794,6.525,2.462,13.919,5.253,18.673,11.284a1.463,1.463,0,0,1-.244,2.055A1.478,1.478,0,0,1,2193.64,875.873Z"/>
      <path id="パス_560" data-name="パス 560" d="M2095.7,1121.045a1.464,1.464,0,0,1-1.45-1.281c-1.947-15.582-1.974-35.044-2-53.866-.01-8.7-.021-17.678-.261-25.4-.34-10.88-1.481-21.922-2.584-32.6l-.024-.234c-.573-5.55-1.165-11.289-1.635-16.938-.766-9.179-.8-18.623-.831-27.755-.022-6.211-.044-12.592-.293-18.8a241.9,241.9,0,0,1,.9-32.388c.156-1.631.446-3.3.725-4.919a42.356,42.356,0,0,0,.834-7.014,1.463,1.463,0,0,1,2.925,0,44.04,44.04,0,0,1-.867,7.462c-.275,1.584-.557,3.215-.7,4.748a238.428,238.428,0,0,0-.89,31.995c.25,6.265.272,12.673.294,18.869.031,9.115.063,18.5.819,27.562.479,5.722,1.077,11.515,1.655,17.116,1.11,10.739,2.255,21.835,2.6,32.809.238,7.636.25,16.223.263,25.313v.147c.025,18.759.051,38.13,1.976,53.533a1.464,1.464,0,0,1-1.271,1.633A1.4,1.4,0,0,1,2095.7,1121.045Z"/>
      <path id="パス_561" data-name="パス 561" d="M2032.206,1111.437a1.464,1.464,0,0,1-1.462-1.462c0-7.194.237-14.479.467-21.525.4-12.285.814-24.927-.019-37.392-.292-4.384-.538-8.778-.8-13.429l-.026-.457c-.894-16-1.82-32.543-4.549-47.551-1.193-6.566-2.13-13.22-3.036-19.654-1.466-10.41-2.982-21.176-5.565-31.512a1.459,1.459,0,0,1,.165-1.107,1.474,1.474,0,0,1,1.26-.711,1.461,1.461,0,0,1,1.413,1.107c2.619,10.482,4.146,21.327,5.624,31.817.91,6.46,1.844,13.085,3.016,19.536,2.762,15.18,3.692,31.8,4.592,47.882.242,4.348.515,9.244.823,13.883.842,12.614.427,25.329.027,37.627l0,.142c-.229,6.994-.465,14.226-.465,21.344A1.464,1.464,0,0,1,2032.206,1111.437Z"/>
      <path id="パス_562" data-name="パス 562" d="M2175.046,1097.638a1.466,1.466,0,0,1-1.388-1.925c1.8-5.4.481-11.717-.8-17.822-.393-1.876-.764-3.648-1.047-5.405-1.177-7.373-2.059-15.6-2.7-25.17-1.485-22.324-.555-45.08.671-66.346.22-3.823.381-7.733.536-11.514l0-.126c.429-10.45.871-21.256,2.605-31.66a1.478,1.478,0,0,1,1.442-1.223,1.437,1.437,0,0,1,.244.021,1.465,1.465,0,0,1,1.2,1.683c-1.7,10.225-2.142,20.938-2.566,31.3l-.006.137c-.157,3.792-.318,7.715-.54,11.549-1.22,21.185-2.145,43.842-.671,65.986.634,9.5,1.507,17.644,2.668,24.9.268,1.673.633,3.419,1.021,5.268,1.294,6.185,2.761,13.193.711,19.345A1.465,1.465,0,0,1,2175.046,1097.638Z"/>
      <path id="パス_563" data-name="パス 563" d="M2075.363,1122.823c-10.34,0-19.029-1.037-26.564-3.171a68.175,68.175,0,0,1-9.735-3.734l-.12-.053c-1.525-.681-3.1-1.386-4.823-2.071a1.462,1.462,0,0,1,.548-2.82,1.485,1.485,0,0,1,.531.1c1.861.745,3.539,1.5,5.021,2.159a66.233,66.233,0,0,0,9.373,3.607c7.273,2.059,15.7,3.06,25.769,3.06,5.4,0,11.215-.269,18.873-.874,9.384-.744,18.972-1.052,28.244-1.351l.124.5-.016-.5c5.676-.184,11.545-.374,17.289-.661,13.624-.684,28.9-3.527,31.729-7.639a1.468,1.468,0,0,1,1.207-.635,1.462,1.462,0,0,1,1.2,2.291c-4.884,7.094-29.172,8.662-33.992,8.905-5.833.29-11.724.48-17.422.665-9.221.3-18.756.6-28.138,1.342C2086.729,1122.551,2080.837,1122.823,2075.363,1122.823Z"/>
      <path id="パス_564" data-name="パス 564" d="M1995.984,961.126l.041-.5c.067-.815.124-1.518.227-2.1a105.1,105.1,0,0,0,.673-11.086c.1-3.129.229-6.986.453-10.563.632-10.139,2.061-23.557,4.01-28,.31-.708.7-1.689,1.15-2.83,1.637-4.139,4.081-10.32,6.772-13.8a1.462,1.462,0,1,1,2.313,1.79c-2.426,3.138-4.78,9.084-6.339,13.019-.482,1.221-.891,2.254-1.217,3-1.454,3.317-2.968,14.172-3.77,27.012-.222,3.539-.347,7.37-.447,10.449a105.7,105.7,0,0,1-.718,11.526c-.079.455-.126,1.026-.176,1.632l-.036.448-.458.106-.995.024Z"/>
      <g id="グループ_407" data-name="グループ 407">
        <path id="パス_565" data-name="パス 565" d="M1968.17,989.5a6.535,6.535,0,0,1-2.933-.66,5.046,5.046,0,0,1-1.9-1.641c-1.4-2.038-1.053-4.689.938-7.094a1.463,1.463,0,0,1,1.131-.533,1.435,1.435,0,0,1,.934.343,1.465,1.465,0,0,1,.189,2.054c-1.107,1.34-1.4,2.675-.783,3.572a2.884,2.884,0,0,0,2.416,1.043,5.519,5.519,0,0,0,1.763-.312c7.856-2.659,15.279-7.94,19.373-13.783a20.744,20.744,0,0,0,3.651-7.159,2.575,2.575,0,0,0,.057-.847,1.466,1.466,0,0,1-.975-2.315,1.4,1.4,0,0,1,.961-.562,3.038,3.038,0,0,1,.364-.023,2.426,2.426,0,0,1,1.822.792c1.119,1.249.71,3.249.616,3.638a23.513,23.513,0,0,1-4.1,8.155c-4.5,6.423-12.286,11.983-20.831,14.875A8.4,8.4,0,0,1,1968.17,989.5Z"/>
        <path id="パス_566" data-name="パス 566" d="M1964.583,1009.4a1.464,1.464,0,0,1-1.418-1.1,12.971,12.971,0,0,0-1.406-3.118,19.325,19.325,0,0,1-1.4-2.871,10.876,10.876,0,0,1-.367-4.876,19.114,19.114,0,0,0,.1-1.988,29.739,29.739,0,0,0-.32-3.079c-.587-4.363-1.562-11.6,5.005-13.287a1.48,1.48,0,0,1,.362-.046,1.463,1.463,0,0,1,1.417,1.1,1.462,1.462,0,0,1-1.054,1.779c-3.441.883-3.656,3.936-2.834,10.027a31.919,31.919,0,0,1,.348,3.45,21.412,21.412,0,0,1-.113,2.295,8.237,8.237,0,0,0,.2,3.629,16.7,16.7,0,0,0,1.2,2.437,15.5,15.5,0,0,1,1.688,3.822,1.467,1.467,0,0,1-1.056,1.78A1.412,1.412,0,0,1,1964.583,1009.4Z"/>
        <path id="パス_567" data-name="パス 567" d="M1967.02,1009.722a13.287,13.287,0,0,1-2.807-.3,1.582,1.582,0,0,1-.351-.124,1.464,1.464,0,0,1,.659-2.77,1.5,1.5,0,0,1,.308.032,10.39,10.39,0,0,0,2.211.234c2.737,0,5.408-1.007,8.236-2.072,9.684-3.646,16.792-8.661,22.378-15.786,2.029-2.583,3.943-5.022,4.726-8.282.212-.875-.671-2.276-1.38-3.4a15.556,15.556,0,0,1-1.136-2.007,23.531,23.531,0,0,1-1.15-4.159c-1.114-5.136-2.082-7.58-4.573-7.58a4.278,4.278,0,0,0-.542.036,1.507,1.507,0,0,1-.188.012,1.462,1.462,0,0,1-.183-2.913,7.629,7.629,0,0,1,.966-.064c5.229,0,6.469,5.707,7.375,9.874a22.2,22.2,0,0,0,.975,3.624,14,14,0,0,0,.931,1.616c1.056,1.682,2.249,3.577,1.75,5.647-.935,3.888-3.139,6.692-5.27,9.4-5.93,7.565-13.4,12.86-23.513,16.665C1973.426,1008.548,1970.312,1009.722,1967.02,1009.722Z"/>
      </g>
      <path id="パス_568" data-name="パス 568" d="M2227.77,991.07a1.468,1.468,0,0,1-1.447-1.258c-.291-2.062-.464-4.269-.617-6.216a63.365,63.365,0,0,0-1.256-9.63,158.081,158.081,0,0,0-4.756-15.158c-1.638-4.671-3.316-9.452-4.561-14.279l-.569-2.205c-5.042-19.555-10.256-39.778-15.984-59.592a1.463,1.463,0,1,1,2.81-.813c5.756,19.911,10.967,40.126,16.007,59.676l.569,2.205c1.213,4.7,2.867,9.419,4.468,13.979a161.413,161.413,0,0,1,4.86,15.5,65.483,65.483,0,0,1,1.325,10.042c.161,2.05.325,4.124.6,6.082a1.462,1.462,0,0,1-1.243,1.652A1.567,1.567,0,0,1,2227.77,991.07Z"/>
      <path id="パス_569" data-name="パス 569" d="M2188.206,1021.911a1.465,1.465,0,0,1-1.379-.976c-.03-.084-3.049-8.587-3.585-11.49a12.5,12.5,0,0,0-2.9-5.4,16.865,16.865,0,0,1-3.281-5.731c-1.082-3.747-1.79-7.577-2.474-11.281a87.478,87.478,0,0,0-3.664-14.852,1.46,1.46,0,0,1,.856-1.88,1.432,1.432,0,0,1,.514-.1,1.469,1.469,0,0,1,1.369.952,89.438,89.438,0,0,1,3.8,15.343c.675,3.647,1.371,7.41,2.408,11a14.32,14.32,0,0,0,2.787,4.756,14.985,14.985,0,0,1,3.466,6.652c.478,2.584,3.436,10.962,3.465,11.045a1.466,1.466,0,0,1-1.378,1.952Z"/>
      <path id="パス_570" data-name="パス 570" d="M2189.083,1025.772a1.469,1.469,0,0,1-1.427-1.152c-.086-.392-.133-.729-.178-1.074a10.106,10.106,0,0,0-.644-2.546,1.461,1.461,0,0,1,.865-1.878,1.421,1.421,0,0,1,.508-.093,1.467,1.467,0,0,1,1.37.957,12.809,12.809,0,0,1,.8,3.17c.036.272.07.533.137.841a1.461,1.461,0,0,1-1.117,1.74A1.37,1.37,0,0,1,2189.083,1025.772Z"/>
      <path id="パス_571" data-name="パス 571" d="M2194.451,1107.347a1.337,1.337,0,0,1-.273-.028,1.458,1.458,0,0,1-1.166-1.7,79.866,79.866,0,0,0,.929-13.084c.024-1.449.047-2.9.1-4.341a232.1,232.1,0,0,0-1.988-38.9,1.464,1.464,0,0,1,1.257-1.644,1.5,1.5,0,0,1,.212-.015,1.459,1.459,0,0,1,1.43,1.272,235,235,0,0,1,2.013,39.387c-.046,1.375-.068,2.752-.091,4.13l0,.159a81.99,81.99,0,0,1-.979,13.566A1.46,1.46,0,0,1,2194.451,1107.347Z"/>
      <path id="パス_572" data-name="パス 572" d="M2228.41,1027.481a1.458,1.458,0,0,1-1.354-1.541l.078-1.465c.1-1.84.273-3.832.444-5.758.538-6.031,1.148-12.867-.328-17.973a1.463,1.463,0,1,1,2.81-.814c1.627,5.632.993,12.757.432,19.045-.179,2.015-.346,3.894-.435,5.647l-.082,1.484a1.462,1.462,0,0,1-1.458,1.38Z"/>
      <path id="パス_573" data-name="パス 573" d="M2219.992,1120.411a1.46,1.46,0,0,1-1.463-1.405c-.045-1.14-.111-2.507-.182-3.948l-.023-.473c-.181-3.616-.368-7.356-.333-9.4a167.911,167.911,0,0,1,1.709-20.124c.649-4.645,1.337-9.287,2.028-13.927,1.041-7.014,2.222-14.962,3.184-22.631a1.5,1.5,0,0,1,1.476-1.279l.149.007a1.468,1.468,0,0,1,1.278,1.635c-.953,7.6-2.092,15.275-3.2,22.7l-.06.414c-.667,4.495-1.334,8.989-1.963,13.489a165.905,165.905,0,0,0-1.681,19.768c-.033,1.962.168,5.979.329,9.206.082,1.623.159,3.178.21,4.453a1.466,1.466,0,0,1-1.405,1.519h-.057Z"/>
      <path id="パス_574" data-name="パス 574" d="M2186.437,1178.385a1.47,1.47,0,0,1-1.423-1.522c.209-5.129,1.8-9.722,3.341-14.165,1.789-5.163,3.473-10.026,3.016-15.456-.017-.192-.026-.512-.038-.92l0-.1c-.1-4.113-.522-5.468-.724-5.889a7.007,7.007,0,0,0-1.931,2.892c-.459,1.416-.838,2.863-1.239,4.4a42.711,42.711,0,0,1-3.152,9.151c-.767,1.462-2.35,3.983-4.338,4.441a2.9,2.9,0,0,1-.64.074,2.428,2.428,0,0,1-1.692-.661,4.335,4.335,0,0,1-1-3.626,46.321,46.321,0,0,1,1.142-4.924c.379-1.387.76-2.784,1.006-4.149a69.7,69.7,0,0,0,.828-9.07,60.374,60.374,0,0,1,1.3-11.512c1.065-4.389,4.156-8.761,6.883-12.619,1.04-1.47,2.021-2.859,2.846-4.178a1.465,1.465,0,0,1,2.016-.464,1.465,1.465,0,0,1,.465,2.017c-.885,1.412-1.929,2.886-2.938,4.313-2.581,3.651-5.5,7.779-6.429,11.621a58.174,58.174,0,0,0-1.219,10.943,72.565,72.565,0,0,1-.87,9.47c-.272,1.495-.686,3.017-1.052,4.36a43.352,43.352,0,0,0-1.085,4.644,2.254,2.254,0,0,0,.03.753,8.056,8.056,0,0,0,2.162-2.793,40.49,40.49,0,0,0,2.913-8.531c.374-1.433.8-3.057,1.288-4.561.277-.851,1.907-4.411,4.258-4.952a2.678,2.678,0,0,1,.589-.067,2.45,2.45,0,0,1,1.507.524c1.687,1.309,1.917,4.828,2.008,8.322.009.382.015.683.029.858.51,6.051-1.358,11.442-3.166,16.656-1.473,4.256-2.992,8.64-3.181,13.327a1.461,1.461,0,0,1-1.462,1.4Z"/>
      <path id="パス_575" data-name="パス 575" d="M2188.811,1183.471a4.55,4.55,0,0,1-2.478-1.192c-.152-.113-.224-.168-.273-.2a1.462,1.462,0,1,1,1.556-2.476c.1.064.266.181.457.324s.341.249.48.344a46.55,46.55,0,0,0,2.548-6.042c.4-1.081.595-1.6.747-1.889.537-1.048,1.1-2.1,1.662-3.149a63.988,63.988,0,0,0,4.274-9.079,46.608,46.608,0,0,0,1.378-5.51c.718-3.421,1.459-6.951,3.145-9.641a1.463,1.463,0,0,1,2.48,1.553c-1.413,2.254-2.1,5.525-2.763,8.689a50.046,50.046,0,0,1-1.474,5.864,66.4,66.4,0,0,1-4.463,9.507l-.1.19c-.519.972-1.038,1.941-1.534,2.91-.079.154-.363.919-.592,1.533-1.871,5.027-2.988,7.505-4.323,8.1A1.735,1.735,0,0,1,2188.811,1183.471Z"/>
      <path id="パス_576" data-name="パス 576" d="M2191.737,1180.1a1.462,1.462,0,0,1-1.147-2.37c1.5-1.89,3.165-3.671,4.777-5.393,3.114-3.326,6.3-6.73,8.226-10.866a45.258,45.258,0,0,0,2.15-6.266,35.4,35.4,0,0,1,3.468-8.9,1.463,1.463,0,1,1,2.48,1.553,33.143,33.143,0,0,0-3.127,8.128,47.689,47.689,0,0,1-2.319,6.722c-2.118,4.559-5.47,8.138-8.712,11.6-1.589,1.7-3.22,3.439-4.649,5.243A1.456,1.456,0,0,1,2191.737,1180.1Z"/>
      <path id="パス_577" data-name="パス 577" d="M2200.613,1172.108a1.462,1.462,0,0,1-.93-2.59,13.62,13.62,0,0,1,2.768-1.661,8.9,8.9,0,0,0,2.586-1.642c3.494-3.7,6.094-11.313,7.745-16.719a1.464,1.464,0,0,1,2.8.857c-1.741,5.689-4.507,13.732-8.418,17.872a11.216,11.216,0,0,1-3.4,2.248,11.361,11.361,0,0,0-2.22,1.3A1.462,1.462,0,0,1,2200.613,1172.108Z"/>
      <path id="パス_578" data-name="パス 578" d="M2210.383,1162.733a1.461,1.461,0,0,1-1.118-2.406c10.1-11.953,9.659-27.579,9.268-41.366a1.462,1.462,0,0,1,1.422-1.5,1.508,1.508,0,0,1,1.5,1.421c.4,14.31.863,30.529-9.958,43.338A1.455,1.455,0,0,1,2210.383,1162.733Z"/>
      <path id="パス_579" data-name="パス 579" d="M2228.675,1051.074a1.465,1.465,0,0,1-.777-.223c-4.455-2.8-10.731-4.345-17.671-4.345a49.451,49.451,0,0,0-7.86.639,21.973,21.973,0,0,0-7.07,2.03c-.155.089-.321.194-.5.3a7.145,7.145,0,0,1-3.634,1.455,3.247,3.247,0,0,1-1.3-.268c-1.858-.8-2.337-3.5-2.769-6.955a17.967,17.967,0,0,0-.291-1.89l-.121-.423c-1.422-4.973-4.069-14.23.806-17.7,3.925-2.8,12.09-3.213,16.609-3.213a79.385,79.385,0,0,1,18.111,2.018c3.863.985,9.092,3.981,11.174,7.6,1.247,2.164.907,4.309.607,6.2-.1.636-.2,1.249-.236,1.848a85.408,85.408,0,0,1-1.631,9.16,1.462,1.462,0,1,1-2.823-.762,81.108,81.108,0,0,0,1.535-8.591c.047-.724.159-1.429.267-2.11.266-1.687.476-3.018-.253-4.287-1.621-2.813-6.035-5.372-9.365-6.223a74.118,74.118,0,0,0-17.143-1.9c-7.164,0-12.829.989-15.156,2.646-3.193,2.275-.738,10.852.311,14.515l.121.427a17.394,17.394,0,0,1,.377,2.308c.481,3.838.9,4.54,1.05,4.665a.906.906,0,0,0,.114.009,5.254,5.254,0,0,0,1.988-.939c.245-.156.477-.3.688-.425a24.534,24.534,0,0,1,8.063-2.383,52.357,52.357,0,0,1,8.3-.673c7.509,0,14.348,1.7,19.258,4.792a1.461,1.461,0,0,1-.78,2.7Z"/>
      <path id="パス_580" data-name="パス 580" d="M2031.408,1190.525a1.46,1.46,0,0,1-1.462-1.4c-.481-11.833-.377-24.355.313-37.219.225-4.193.219-8.617.212-12.9-.012-8.221-.024-16.67,1.5-24.573a1.462,1.462,0,0,1,2.872.553c-1.471,7.637-1.458,15.942-1.446,23.973.007,4.321.014,8.79-.215,13.1-.685,12.772-.79,25.2-.311,36.943a1.462,1.462,0,0,1-1.4,1.521h-.06Z"/>
      <path id="パス_581" data-name="パス 581" d="M2180.959,1124.922a1.466,1.466,0,0,1-1.448-1.272c-.7-5.281-2.428-10.532-4.1-15.61l-.5-1.532a1.464,1.464,0,0,1,.934-1.845,1.439,1.439,0,0,1,.457-.074,1.462,1.462,0,0,1,1.39,1.009l.5,1.527c1.717,5.208,3.492,10.593,4.224,16.144a1.461,1.461,0,0,1-1.26,1.641A1.5,1.5,0,0,1,2180.959,1124.922Z"/>
      <path id="パス_582" data-name="パス 582" d="M2187.986,1164.562a1.466,1.466,0,0,1-1.462-1.453,51.306,51.306,0,0,0-1.495-12.98,1.471,1.471,0,0,1,1.014-1.805,1.519,1.519,0,0,1,.391-.053,1.474,1.474,0,0,1,1.414,1.067,55.57,55.57,0,0,1,1.6,13.753,1.46,1.46,0,0,1-1.451,1.471h-.011Z"/>
      <path id="パス_583" data-name="パス 583" d="M2097.368,1173.216a1.461,1.461,0,0,1-1.349-.9,34.9,34.9,0,0,0-4.579-7.166,41.362,41.362,0,0,1-4.4-6.649c-1.4-2.86-1.476-6.87-1.54-10.092-.014-.711-.028-1.381-.055-2-.141-3.261-.147-6.553-.153-9.737v-.146c-.006-3.545-.012-7.211-.207-10.8a1.46,1.46,0,0,1,1.381-1.539h.006a1.507,1.507,0,0,1,1.532,1.382c.2,3.665.207,7.37.214,10.952.005,3.24.009,6.519.151,9.765.026.626.04,1.306.055,2.021.059,2.98.133,6.631,1.244,8.914a38.523,38.523,0,0,0,4.084,6.14,37.141,37.141,0,0,1,4.964,7.822,1.47,1.47,0,0,1-.782,1.916A1.5,1.5,0,0,1,2097.368,1173.216Z"/>
      <path id="パス_584" data-name="パス 584" d="M2102.3,1197.132a1.458,1.458,0,0,1-1.455-1.321c-.59-6.082-1.2-12.358-2.913-18.467a1.47,1.47,0,0,1,1.014-1.8,1.5,1.5,0,0,1,.4-.053,1.467,1.467,0,0,1,1.41,1.069c1.779,6.354,2.4,12.761,3.006,18.958a1.472,1.472,0,0,1-1.314,1.613Z"/>
      <path id="パス_585" data-name="パス 585" d="M2100.049,1165.25a1.464,1.464,0,0,1-1.448-1.272c-1.147-8.693-1.7-17.071-2.281-25.94l-.078-1.2c-.061-.949-.168-1.934-.275-2.934a29.141,29.141,0,0,1-.085-8.516,1.458,1.458,0,0,1,1.431-1.187,1.559,1.559,0,0,1,.288.028,1.462,1.462,0,0,1,1.153,1.712,27.019,27.019,0,0,0,.122,7.651c.112,1.044.22,2.068.285,3.055l.078,1.2c.585,8.884,1.133,17.195,2.262,25.751a1.467,1.467,0,0,1-1.26,1.64A1.522,1.522,0,0,1,2100.049,1165.25Z"/>
      <path id="パス_586" data-name="パス 586" d="M2046.768,1126.443a1.394,1.394,0,0,1-.337-.041l-1.038-.238c-2.995-.685-7.52-1.722-9.747-2.933a1.463,1.463,0,0,1,.7-2.748,1.468,1.468,0,0,1,.7.177c1.876,1.019,6.34,2.041,9.006,2.652l1.052.244a1.463,1.463,0,0,1-.331,2.887Z"/>
      <path id="パス_587" data-name="パス 587" d="M2081.307,1130.788a169.226,169.226,0,0,1-26.675-2.226,1.463,1.463,0,0,1,.462-2.89,166.04,166.04,0,0,0,26.213,2.192,1.462,1.462,0,1,1,0,2.924Z"/>
      <path id="パス_588" data-name="パス 588" d="M2098.388,1129.8a1.462,1.462,0,0,1,0-2.924c9.707,0,21.176-.081,32.65-.681h0a1.488,1.488,0,0,1,1.535,1.385,1.468,1.468,0,0,1-1.385,1.537C2119.688,1129.72,2108.154,1129.8,2098.388,1129.8Z"/>
      <path id="パス_589" data-name="パス 589" d="M2140.393,1127.955a1.462,1.462,0,0,1-.165-2.915,150.837,150.837,0,0,0,30.67-6.482,1.464,1.464,0,0,1,1.851.925,1.462,1.462,0,0,1-.927,1.85,153.61,153.61,0,0,1-31.26,6.613A1.63,1.63,0,0,1,2140.393,1127.955Z"/>
      <path id="パス_590" data-name="パス 590" d="M2053.476,1135.773a1.457,1.457,0,0,1-1.463-1.412,44.2,44.2,0,0,1,1.411-11.189,1.461,1.461,0,0,1,1.432-1.133,1.589,1.589,0,0,1,.315.033,1.467,1.467,0,0,1,1.1,1.757,41.481,41.481,0,0,0-1.338,10.432,1.464,1.464,0,0,1-1.412,1.512h-.049Z"/>
      <path id="パス_591" data-name="パス 591" d="M2047.242,1134.517a1.459,1.459,0,0,1-1.422-1.121c-.78-3.223.326-7.9,1.057-11l.19-.817a1.463,1.463,0,0,1,1.437-1.131,1.533,1.533,0,0,1,.31.032,1.468,1.468,0,0,1,1.1,1.756l-.195.831c-.667,2.827-1.675,7.1-1.06,9.642a1.463,1.463,0,0,1-1.079,1.764A1.4,1.4,0,0,1,2047.242,1134.517Z"/>
      <path id="パス_592" data-name="パス 592" d="M2132.014,1136.568a1.464,1.464,0,0,1-1.325-1.58,33.53,33.53,0,0,0-.851-11.828,1.468,1.468,0,0,1,1.014-1.8,1.469,1.469,0,0,1,1.8,1.014,36.45,36.45,0,0,1,.948,12.865,1.47,1.47,0,0,1-1.456,1.339Z"/>
      <path id="パス_593" data-name="パス 593" d="M2138.824,1135.782a1.46,1.46,0,0,1-1.378-1.549,43.94,43.94,0,0,0-.723-11.336,1.462,1.462,0,0,1,1.157-1.714,1.368,1.368,0,0,1,.285-.029,1.463,1.463,0,0,1,1.429,1.184,46.78,46.78,0,0,1,.771,12.073,1.459,1.459,0,0,1-1.458,1.373Z"/>
      <path id="パス_594" data-name="パス 594" d="M1989.993,1059.523a10.934,10.934,0,0,1-8.232-3.426c-3.363-3.458-7.548-7.761-8.715-14.455a76.232,76.232,0,0,0-2.339-8.636,136.554,136.554,0,0,1-5.571-23.9,1.5,1.5,0,0,1,1.29-1.684,1.668,1.668,0,0,1,.2-.013,1.505,1.505,0,0,1,1.488,1.3,133.809,133.809,0,0,0,5.46,23.4,77.831,77.831,0,0,1,2.431,9.017c1.008,5.78,4.835,9.717,7.91,12.879a8.115,8.115,0,0,0,6.113,2.538c2.867,0,6.009-1.082,9.335-2.229.864-.3,1.713-.588,2.549-.858,12.494-4.018,18-16.641,20.96-23.422a58.045,58.045,0,0,0,4.628-26.814,1.5,1.5,0,0,1,1.411-1.583h.005a1.518,1.518,0,0,1,1.578,1.411,61.012,61.012,0,0,1-4.872,28.186c-2.925,6.7-9.011,20.646-22.79,25.078-.818.262-1.648.548-2.483.836C1996.945,1058.318,1993.445,1059.523,1989.993,1059.523Z"/>
      <path id="パス_595" data-name="パス 595" d="M2011.554,1023.4a1.505,1.505,0,0,1-1.5-1.475c-.061-3.636-2.191-9.67-3.6-13.663-1.468-4.16-7.426-16.991-7.483-17.114a1.5,1.5,0,1,1,2.719-1.267c.623,1.342,6.125,13.222,7.594,17.383,1.563,4.427,3.7,10.49,3.771,14.611a1.5,1.5,0,0,1-1.475,1.525h-.025Z"/>
    </g>
  </g>
</svg>
