<svg xmlns="http://www.w3.org/2000/svg" xmlns:xlink="http://www.w3.org/1999/xlink" width="300" height="220" viewBox="0 0 300 220">
  <defs>
    <clipPath id="clip-path">
      <path id="パス_388" data-name="パス 388" d="M1584,423h300V643H1584Z" fill="none"/>
    </clipPath>
  </defs>
  <g id="グループ_286" data-name="グループ 286" transform="translate(-1584 -423)">
    <g id="グループ_285" data-name="グループ 285" clip-path="url(#clip-path)">
      <g id="グループ_284" data-name="グループ 284">
        <path id="パス_324" data-name="パス 324" d="M1672.7,619.09c0-.557-8.363-5.575-18.4-10.407-11.15-5.389-24.716-10.778-37.539-17.1-6.5-3.159-13.38-5.389-18.026-7.991-6.691-3.717-10.036-10.221-10.036-10.778-.371-3.531,2.416-8.363,3.9-10.965,2.23-3.717,12.451-17.469,16.54-21.371,1.3-1.3,13.008-13.752,26.017-26.2,9.849-9.292,20.442-17.655,28.247-24.345,5.761-5.018,10.221-9.106,11.151-9.292s.371-1.859,2.415-3.9c1.487-1.672,5.576-5.947,7.062-5.017,1.115.557,5.39,4.646,8.735,9.663a44,44,0,0,1,5.575,11.708c.929,3.531,0,4.832-1.3,7.8a31.972,31.972,0,0,1-5.575,8.177c-1.115,1.115-1.859-.186-2.23,1.673-.186,1.115-2.974,4.831-9.292,12.451-4.646,5.575-10.965,13.008-14.867,18.955-3.9,6.133-5.389,10.779-5.2,10.965,1.673,1.486,9.85,1.115,18.213.557,6.69-.557,13.752-1.115,15.8-1.115,5.389.186,11.522,2.788,16.168,1.859,2.6-.558,7.805-3.717,10.592-4.089,1.3-.186,1.859,0,3.16-.186.557,0,1.115-4.274,2.973-7.062a10.159,10.159,0,0,1,5.2-3.9c1.3,0,25.088,35.123,26.389,35.123,11.336,0,11.707-34.752,23.415-35.681.744,0,3.345.372,5.389,3.9,1.859,2.973,3.16,8.92,3.717,9.106,6.133,2.787,20.257,5.947,25.46,7.619,7.062,2.23,22.858,5.575,23.973,6.133a136.957,136.957,0,0,1,15.425,8.92c2.787,1.859,5.389,5.018,7.433,10.779,2.416,6.69,3.531,15.424,4.646,18.955,2.416,8.363,3.345,16.912,4.46,25.089.558,4.274,1.115,8.362,2.045,14.309,1.3,8.363,3.345,19.513,4.645,29.362,1.673,12.823,3.346,27.69,4.275,34.752.557,3.9,1.486,8.92,1.858,13.2.186,4.831.186,8.548-.557,9.849s-5.018,6.876-8.735,8.177a107.991,107.991,0,0,1-23.973,4.46c-7.991.372-21,.186-21.185.186-1.673.743-2.045,4.46-2.23,7.8a93.647,93.647,0,0,0,0,10.593c.557,7.8,1.3,16.725-.744,16.911-4.46.744-10.407,3.531-18.212,4.646-12.637,2.044-28.991,2.6-45.159,2.044-25.088-.743-52.778-2.787-70.061-5.946-11.707-2.045-17.654-5.39-18.026-6.319-1.487-3.345-.557-65.229-.557-69.318-.558-13.008-.93-51.477-2.045-65.043C1673.815,636.931,1672.7,621.692,1672.7,619.09Z" fill="#fff" fill-rule="evenodd"/>
        <path id="パス_325" data-name="パス 325" d="M1706.337,462.057c.743-1.487,2.6-4.832,3.9-7.8,2.045-4.274,4.089-8.363,8.363-10.407,1.673-.743,5.018-1.858,7.248-1.487.929.186-1.859-2.787-.929-2.787,2.23.371,5.575.185,7.062-1.115,2.973-2.416,6.69-4.646,8.734-4.646,3.159,0,12.451-.372,17.655,1.858.743.372,4.274-.372,7.619.929,4.832,1.673,8.363,2.416,10.221,4.089a18.9,18.9,0,0,1,5.2,8.362,20.35,20.35,0,0,1-.929,12.266c-3.716,7.247-20.442,2.973-20.442,7.619,0,12.823-8.363,27.5-20.814,27.5-3.717,0-11.336,10.593-18.584,14.495-2.23,1.116-8.362-.371-9.663-1.3-1.673-1.115-2.974-5.761-4.089-8.549-.557-1.3-5.017-.557-5.389-1.858-.372-1.115,3.345-2.416,1.3-10.779C1700.018,476.367,1704.107,466.7,1706.337,462.057Z" fill="#ba736a" fill-rule="evenodd"/>
        <path id="パス_326" data-name="パス 326" d="M1719.16,509.632a5.368,5.368,0,0,1,5.575-5.576c.743,0,4.46-1.486,7.433-4.831,1.115-1.3,1.859-3.16,1.673-6.876,0-1.115,3.531-4.832,3.159-11.708-.186-2.23.558-7.8,3.717-9.664,1.858-.929,2.6-3.716,3.531-6.5,1.115-2.788,2.23-5.2,4.088-6.69,1.487-1.115,5.39-2.416,7.434-2.044,2.23.371,2.787,2.23,3.531,2.23,2.6,0,7.247-3.717,10.964-4.275,2.974-.371,5.2,1.859,7.062,3.345a16.3,16.3,0,0,1,5.018,8.735,168.672,168.672,0,0,0,6.5,21.185c2.044,5.39,3.531,8.177,4.832,12.08a39.392,39.392,0,0,1,.371,13.566c-1.486,10.221-5.946,19.7-11.521,20.442-.93.186-1.673,10.965-.372,18.4a22.128,22.128,0,0,0,2.6,7.248c.557.743-2.045,3.9-4.275,6.69-3.345,3.9-7.247,8.177-8.362,12.265-.93,3.345-.186,11.894-1.673,11.708-.557-.186-3.345-7.619-7.433-10.778-2.231-1.859-5.576-5.2-8.549-7.248-5.2-3.531-10.407-5.947-14.867-9.478-6.5-5.2-10.407-9.849-9.85-12.451.744-3.345,3.16-6.319,2.045-16.54-.558-5.575-2.23-11.15-2.788-11.336C1723.806,520.039,1719.16,515.95,1719.16,509.632Z" fill="#ffe9e1" fill-rule="evenodd"/>
        <path id="パス_327" data-name="パス 327" d="M1685.9,473.022a7.076,7.076,0,0,0,.743-4.089c-.372-2.044-.929-8.177-1.487-10.593a16.227,16.227,0,0,1,.372-7.247c.929-2.6,2.973-5.761,4.46-6.876s3.531-3.345,5.389-4.275,2.416-.371,4.089,0c1.487.372,3.531-.186,5.2-.371,1.673-.372,1.673.185,2.788.743a32.845,32.845,0,0,0,6.5,2.23,21.51,21.51,0,0,1,4.646,1.673,22.9,22.9,0,0,0-3.717,3.345c-.929,1.3-4.274,7.062-5.2,8.92a54.7,54.7,0,0,1-2.788,5.018c-.743,1.115-.743,2.787-.371,5.575s1.672,8.177,1.3,10.407-1.3,5.761-3.345,8.177-5.576,7.061-5.576,7.061-1.858-5.575-3.531-7.8-4.088-5.389-5.761-7.433C1687.753,475.437,1685.9,473.022,1685.9,473.022Z" fill="#ffe9e1" fill-rule="evenodd"/>
        <path id="パス_328" data-name="パス 328" d="M1676.974,776.495c0-1.672,4.089.743,10.036,2.044,9.477,2.045,23.415,4.275,28.619,4.275,13.008,0,34.194,4.831,53.893,4.088,13.752-.557,30.477-1.115,42.743-3.159,6.69-1.115,12.265-2.788,15.61-4.46,1.673-.744,2.044,6.5,3.9,18.955,1.3,8.363,2.23,19.141,3.531,29.363,1.115,8.92,2.6,18.026,2.6,26.017,0,1.672.929,9.478,1.115,18.955.372,10.036-.186,19.7-.186,19.7s-16.167,2.416-34.194,3.531c-17.84,1.3-37.539,1.3-37.539,1.3s-2.973-13.194-5.575-21.557c-2.23-7.62-4.089-13.381-5.39-13.381-1.115,0-4.274,8.921-5.946,17.469a116.009,116.009,0,0,0-2.045,17.469s-20.813.743-41.256-.557c-20.256-1.3-40.141-4.646-40.141-4.646s.186-5.018.186-14.5c0-7.062.372-13.38.558-16.725.371-5.2,2.044-26.761,4.46-48.5C1674.187,796.194,1676.974,777.61,1676.974,776.495Z" fill="#8389a0" fill-rule="evenodd"/>
        <path id="パス_329" data-name="パス 329" d="M1774.725,690.824l23.044-82.7,83.442-3.159-35.867,98.122s-5.2.372-7.62,1.858c-2.787,1.487-2.787,3.9-3.9,3.531-2.044-.557-5.018-1.672-6.505-1.3-2.044.371-6.318-1.673-7.619-1.116-6.69,3.346-1.487,10.593-1.487,10.593l-10.778,5.39Z" fill="#ea6f68" fill-rule="evenodd"/>
        <path id="パス_330" data-name="パス 330" d="M1752.8,767.575l10.222-38.283,41.256,4.275s2.23,4.088,4.088,6.69a16.1,16.1,0,0,0,3.159,3.531s6.319.557,11.151.557a38.428,38.428,0,0,0,7.991-.743l-2.6,6.876Z" fill="#ea6f68" fill-rule="evenodd"/>
        <path id="パス_331" data-name="パス 331" d="M1771.009,686.364l22.858-78.424,4.46-.558-23.416,83.442Z" fill="#fff" fill-rule="evenodd"/>
        <path id="パス_332" data-name="パス 332" d="M1760.044,727.062l3.531,2.044-11.336,39.77-3.159-2.788Z" fill="#fff" fill-rule="evenodd"/>
        <path id="パス_333" data-name="パス 333" d="M1752.8,700.3c0-2.044-2.415-5.017-1.3-7.061.929-1.487,2.6-2.23,5.017-2.974.929-.186,2.788-.743,3.717-.929s.372-1.487,0-2.973c-.186-1.487-.372-2.974.557-4.089a9.676,9.676,0,0,1,6.319-2.973c2.044-.372,5.761-.558,5.761-.558l-1.673,8.177a38.226,38.226,0,0,0,5.2,5.947c2.973,2.416,9.478,4.46,13.009,4.088.371,0-.186-3.531-1.859-6.69-1.487-3.159-4.088-6.132-5.761-9.663a40.526,40.526,0,0,1-2.416-7.991c-.371-1.859,1.859-5.018,2.6-4.832.743,0,2.23.929,3.717,3.159a17.828,17.828,0,0,0,4.274,5.389,46.994,46.994,0,0,1,7.062,7.434c4.46,6.318,8.363,14.867,8.548,15.053.558.743,2.23,6.318,6.133,9.292,4.089,3.159,10.035,3.531,10.035,3.531A44.874,44.874,0,0,1,1821,722.23c-1.487,8.177-6.69,16.726-7.619,15.8-.744-.93-3.717-3.345-10.407-4.46-10.593-1.673-25.832-1.3-27.69-1.3-3.345,0-12.08-1.673-15.053-5.2-1.673-2.044-8.177-7.248-10.593-11.15a3.925,3.925,0,0,1,.744-4.646c1.115-1.3-1.3-5.018-1.116-6.69C1749.823,702.16,1752.8,701.6,1752.8,700.3Z" fill="#ffe9e1" fill-rule="evenodd"/>
        <g id="グループ_283" data-name="グループ 283">
          <g id="グループ_229" data-name="グループ 229">
            <path id="パス_334" data-name="パス 334" d="M1781.787,465.7a1.358,1.358,0,0,1-1.411-1.143c-.626-1.952-4.924-7.917-8.556-9.474a1.333,1.333,0,0,1-.775-.76,1.574,1.574,0,0,1,.067-1.322,1.389,1.389,0,0,1,1.33-.874,1.654,1.654,0,0,1,.745.182c4.867,2.141,9.66,9.008,10.374,11.331a1.381,1.381,0,0,1-.124,1.086,1.58,1.58,0,0,1-.965.765A1.284,1.284,0,0,1,1781.787,465.7Z"/>
          </g>
          <g id="グループ_230" data-name="グループ 230">
            <path id="パス_335" data-name="パス 335" d="M1771.381,537.25c-10.559,0-21.9-4.289-26.77-8.434a1.47,1.47,0,0,1-.241-2.068,1.29,1.29,0,0,1,1.109-.579,1.786,1.786,0,0,1,.979.31c4.5,3.824,15.021,7.743,24.913,7.743,6.073,0,10.955-1.511,14.118-4.371,8.517-7.591,9.24-29.719,4.429-35.641a1.735,1.735,0,0,1-.3-1.288,1.27,1.27,0,0,1,.549-.822,1.793,1.793,0,0,1,.982-.31,1.288,1.288,0,0,1,1.109.579c5.62,6.929,5.118,30.917-4.7,39.786C1783.7,535.49,1778.109,537.25,1771.381,537.25Z"/>
          </g>
          <g id="グループ_231" data-name="グループ 231">
            <path id="パス_336" data-name="パス 336" d="M1731.054,523.683a4.13,4.13,0,0,1-1.552-.185c-3.95-.791-8.864-4.853-10.982-9.086-1.333-2.665-1.528-5.2-.563-7.32a8.032,8.032,0,0,1,6.013-4.449h0a4.669,4.669,0,0,1,4.177,2.37,1.512,1.512,0,0,1-.46,2.081,1.449,1.449,0,0,1-.8.243,1.548,1.548,0,0,1-1.284-.7,1.716,1.716,0,0,0-1.423-.983c-1.391,0-2.942,1.626-3.441,2.791-.683,1.369-.56,2.919.365,4.766a16.408,16.408,0,0,0,8.914,7.464,4.674,4.674,0,0,0,1,.108,9.126,9.126,0,0,0,3.631-1.022l.94-.376a1.648,1.648,0,0,1,.527-.089,1.348,1.348,0,0,1,1.363,1.039,1.542,1.542,0,0,1-.1,1.2,1.318,1.318,0,0,1-.862.647l-.89.36A10.1,10.1,0,0,1,1731.054,523.683Z"/>
          </g>
          <g id="グループ_232" data-name="グループ 232">
            <path id="パス_337" data-name="パス 337" d="M1733.1,516.622a1.372,1.372,0,0,1-1.405-1.092.84.84,0,0,0-.266-.209l-.1-.011-.087-.049a7.078,7.078,0,0,0-3.211-.829,3.128,3.128,0,0,0-.969.13,1.605,1.605,0,0,1-.511.083,1.345,1.345,0,0,1-1.362-1.038,1.542,1.542,0,0,1,.1-1.2,1.319,1.319,0,0,1,.862-.648,5.9,5.9,0,0,1,1.995-.312,9.73,9.73,0,0,1,4.692,1.249l.041.008a4.493,4.493,0,0,1,1.789,1.635,1.741,1.741,0,0,1,.226,1.25l-.034.146-.107.1A2.516,2.516,0,0,1,1733.1,516.622Z"/>
          </g>
          <g id="グループ_233" data-name="グループ 233">
            <path id="パス_338" data-name="パス 338" d="M1780.115,500.082a.967.967,0,0,1-.769-.274,1.464,1.464,0,0,1-.615-2.018,3.2,3.2,0,0,0,.34-1.167,1.5,1.5,0,0,1,.11-.467,1.678,1.678,0,0,0,.077-.277l0-.076.024-.084c.45-1.325-.014-1.767-1.862-3.245l-.1-.077c-2.1-1.714-4.96-4.056-4.2-9.382a1.506,1.506,0,0,1,1.6-1.373,1.525,1.525,0,0,1,1.415,1.6c-.514,3.449,1.036,4.839,2.832,6.448l.227.2c1.919,1.492,3.784,3.46,2.888,6.583a2.238,2.238,0,0,1-.106.415,1.749,1.749,0,0,0-.081.288l0,.078-.025.085-.269.774-.276.829A1.441,1.441,0,0,1,1780.115,500.082Z"/>
          </g>
          <g id="グループ_234" data-name="グループ 234">
            <path id="パス_339" data-name="パス 339" d="M1747.868,479.826l-.091-.037a1.535,1.535,0,0,1-.731-.733,1.468,1.468,0,0,1-.109-1.11c.76-2.471,3.4-4.615,6.9-5.586a13.612,13.612,0,0,1,3.661-.542,7.267,7.267,0,0,1,4.788,1.53,1.471,1.471,0,0,1,.243,2.07,1.288,1.288,0,0,1-1.108.579,1.785,1.785,0,0,1-.98-.31,4.553,4.553,0,0,0-2.849-.779,9.824,9.824,0,0,0-2.844.445c-2.463.7-4.434,2.125-4.8,3.459l-.036.131-.1.1a2.57,2.57,0,0,1-1.469.788Z"/>
          </g>
          <g id="グループ_235" data-name="グループ 235">
            <path id="パス_340" data-name="パス 340" d="M1763.138,458.083l-.065-.018a1.578,1.578,0,0,1-.935-.656,1.484,1.484,0,0,1-.155-1.186c.164-1.16-.73-2.931-2.136-4.161l-.192-.132a3.822,3.822,0,0,0-2.019-.877,1.605,1.605,0,0,0-.634.13,1.649,1.649,0,0,1-.533.091,1.345,1.345,0,0,1-1.362-1.038,1.54,1.54,0,0,1,.1-1.2,1.313,1.313,0,0,1,.862-.649,4.989,4.989,0,0,1,1.573-.25,6.416,6.416,0,0,1,4.274,1.8c1.813,1.45,3.625,4.294,3.267,7.069l-.023.175-.128.122a2.505,2.505,0,0,1-1.643.777Z"/>
          </g>
          <g id="グループ_236" data-name="グループ 236">
            <path id="パス_341" data-name="パス 341" d="M1734.956,472.578a1.885,1.885,0,0,1-1.586-1.32l-.027-.081,0-.086a1.54,1.54,0,0,1,1.426-1.529h1.486c1.688,0,2.32,0,3.542-.873,1.8-1.079,2.721-3.3,3.614-5.446.875-2.273,2.011-4.859,4.372-6.629a13.688,13.688,0,0,1,7.032-2.209,7.236,7.236,0,0,1,2.158.3,5.279,5.279,0,0,1,3.349,3.154,1.553,1.553,0,0,1-.089,1.235,1.315,1.315,0,0,1-.863.649,1.579,1.579,0,0,1-.487.076,1.344,1.344,0,0,1-1.346-.982,1.979,1.979,0,0,0-1.456-1.322,5.016,5.016,0,0,0-1.324-.16,10.586,10.586,0,0,0-5.327,1.6c-1.612,1.074-2.512,3.268-3.229,5.242l-.271.64c-1.043,2.465-2.028,4.791-4.509,6.208a7.755,7.755,0,0,1-5.066,1.34A3.481,3.481,0,0,1,1734.956,472.578Z"/>
          </g>
          <g id="グループ_237" data-name="グループ 237">
            <path id="パス_342" data-name="パス 342" d="M1725.65,493.95a1.372,1.372,0,0,1-1.4-1.415,1.421,1.421,0,0,1,1.415-1.6c7.3-.731,10.283-3.75,9.922-10.091a1.511,1.511,0,1,1,3.016-.2c.38,8-3.837,12.359-12.9,13.306l-.028,0Z"/>
          </g>
          <g id="グループ_238" data-name="グループ 238">
            <path id="パス_343" data-name="パス 343" d="M1726.222,503.613a1.511,1.511,0,0,1,.185-3.016,4.852,4.852,0,0,0,.508.028,5.264,5.264,0,0,0,3.913-1.97,7.109,7.109,0,0,0,1.6-5.712c0-1.02.557-1.638,1.412-1.638a1.42,1.42,0,0,1,1.6,1.415,10.068,10.068,0,0,1-2.307,8.193,9.07,9.07,0,0,1-6.355,2.7Z"/>
          </g>
          <g id="グループ_239" data-name="グループ 239">
            <path id="パス_344" data-name="パス 344" d="M1781.334,462.161a1.76,1.76,0,0,1-1.23-.762,1.11,1.11,0,0,1-.088-.921c1.088-8.011.548-13.7-5.485-18.82a11.247,11.247,0,0,0-5.129-2.182l-.837-.21c-3.4-.946-6.9-1.919-8.794-6.076a1.8,1.8,0,0,1,.664-2.046l.078-.052.091-.02a2.13,2.13,0,0,1,.442-.048,1.779,1.779,0,0,1,1.478.762c1.292,3.122,4.008,3.8,6.883,4.52a16.482,16.482,0,0,1,6.994,3.032c7.98,6.649,7.55,14.341,6.427,21.65a1.326,1.326,0,0,1-1.384,1.183h-.055Z"/>
          </g>
          <g id="グループ_240" data-name="グループ 240">
            <path id="パス_345" data-name="パス 345" d="M1706.9,462.729a.97.97,0,0,1-.77-.274,1.521,1.521,0,0,1-.624-.953,1.447,1.447,0,0,1,.215-1.1,39.311,39.311,0,0,0,2.4-4.426l.551-1.115c2.886-5.952,6.479-13.364,15.509-13.364a1.6,1.6,0,0,1,0,3.2c-6.893,0-9.715,5.485-12.7,11.292l-.226.439a42.455,42.455,0,0,1-3.176,5.789l-.03.046-.04.038A1.729,1.729,0,0,1,1706.9,462.729Z"/>
          </g>
          <g id="グループ_241" data-name="グループ 241">
            <path id="パス_346" data-name="パス 346" d="M1701.691,500.082a1.679,1.679,0,0,1-.956-.46,1.47,1.47,0,0,1-.223-2.051c2.212-2.764,2.148-4.714,1.265-7.358a1.577,1.577,0,0,1,.935-1.865,1.256,1.256,0,0,1,.4-.064,1.571,1.571,0,0,1,1.462,1c1.077,3.452,1.168,6.487-1.879,10.1A1.089,1.089,0,0,1,1701.691,500.082Z"/>
          </g>
          <g id="グループ_242" data-name="グループ 242">
            <path id="パス_347" data-name="パス 347" d="M1715.814,512.347a8.461,8.461,0,0,1-6.728-2.7c-1.8-2.2-2.289-5.342-1.559-9.911a1.674,1.674,0,0,1,1.6-1.366h.063l.063.016a1.651,1.651,0,0,1,1.289,1.584c-.545,3.657-.187,6.193,1.026,7.407.9,1.078,2.341,1.585,4.435,1.585a1.421,1.421,0,0,1,1.415,1.6v.05l-.01.05C1717.178,511.78,1716.643,512.347,1715.814,512.347Z"/>
          </g>
          <g id="グループ_243" data-name="グループ 243">
            <path id="パス_348" data-name="パス 348" d="M1759.6,494.251c-1.314,0-2.627-1.186-3.194-2.884a4.376,4.376,0,0,1,.353-3.308,2.2,2.2,0,0,1,1.4-1.04,2.064,2.064,0,0,1,.661-.1c1.315,0,2.629,1.186,3.2,2.884a3.963,3.963,0,0,1-.215,3.15,2.385,2.385,0,0,1-1.537,1.2A2.1,2.1,0,0,1,1759.6,494.251Z" fill-rule="evenodd"/>
          </g>
          <g id="グループ_244" data-name="グループ 244">
            <path id="パス_349" data-name="パス 349" d="M1783.141,488.812a3.824,3.824,0,0,1-3.314-2.84,4.375,4.375,0,0,1,.353-3.308,2.188,2.188,0,0,1,1.4-1.039,2.062,2.062,0,0,1,.66-.1c1.314,0,2.628,1.186,3.2,2.884a3.955,3.955,0,0,1-.216,3.148,2.377,2.377,0,0,1-1.536,1.2A2.5,2.5,0,0,1,1783.141,488.812Z" fill-rule="evenodd"/>
          </g>
          <g id="グループ_245" data-name="グループ 245">
            <path id="パス_350" data-name="パス 350" d="M1731.426,548.028a.97.97,0,0,1-.77-.274,1.768,1.768,0,0,1-.631-1.98c2.058-3.936.648-11.454-.381-16.944-.1-.614-.2-1.193-.3-1.747l-.031-.176c-.252-1.442-.47-2.684-.6-3.862,0-1.015.556-1.633,1.412-1.633a1.421,1.421,0,0,1,1.6,1.414c.186,1.472.561,3.53.924,5.521l.107.606c1.086,6.138,2.435,13.766.047,18.174A1.287,1.287,0,0,1,1731.426,548.028Z"/>
          </g>
          <g id="グループ_246" data-name="グループ 246">
            <path id="パス_351" data-name="パス 351" d="M1783.826,558.807a1.546,1.546,0,0,1-1.378-.91c-2.87-7.458-2.251-15.723-1.7-23.014a1.512,1.512,0,0,1,3.016.208c-.523,6.639-1.171,14.851,1.466,21.635a1.563,1.563,0,0,1-.088,1.238,1.306,1.306,0,0,1-.794.629.875.875,0,0,1-.481.213h-.037Z"/>
          </g>
          <g id="グループ_247" data-name="グループ 247">
            <path id="パス_352" data-name="パス 352" d="M1769.908,592.248a1.305,1.305,0,0,1-1.24-1.145c-2.847-10.745-11.623-15.9-19.368-20.443-4.775-2.939-9.7-5.971-13.993-10.077-3.048-3.047-8.09-8.88-7.711-13.807a6.513,6.513,0,0,1,3.1-4.869,1.458,1.458,0,0,1,.811-.247,1.548,1.548,0,0,1,1.284.7,1.517,1.517,0,0,1-.455,2.091,3.73,3.73,0,0,0-1.729,2.586c-.355,2.665,2.118,6.774,6.789,11.257,3.763,3.763,8.261,6.584,13.326,9.623l.11.065c8.593,5.232,17.476,10.64,20.652,22.227a1.349,1.349,0,0,1-.125,1.077,1.575,1.575,0,0,1-.561.59l.536.53Z"/>
          </g>
          <g id="グループ_248" data-name="グループ 248">
            <path id="パス_353" data-name="パス 353" d="M1770.975,594.488a1.655,1.655,0,0,1-1.552-1.321l-.027-.079.012-1.135c-.194-5.821-.138-11.494,2.638-16.676a45.531,45.531,0,0,1,4.722-6.691l1.494-1.878c2.758-3.441,5.362-6.69,6.584-10.7.376-1.506.283-8.228-1.226-9.736a.592.592,0,0,0-.4-.175.406.406,0,0,0-.187.045,1.314,1.314,0,0,1-.435.079,1.564,1.564,0,0,1-1.478-1.2,1.361,1.361,0,0,1,.127-1.07,1.585,1.585,0,0,1,1.02-.779,3.049,3.049,0,0,1,.961-.152,3.225,3.225,0,0,1,2.505,1.184c2.642,2.83,2.543,10.829,1.909,12.733-1.295,4.625-4.376,8.474-7.354,12.2l-.129.162c-.377.479-.754.946-1.126,1.407l-.1.127a29.828,29.828,0,0,0-4.123,6.025c-2.365,4.547-2.391,9.825-2.2,15.288v1.258l-.066.115a2.249,2.249,0,0,1-1.434.965l-.066.017Z"/>
          </g>
          <g id="グループ_249" data-name="グループ 249">
            <path id="パス_354" data-name="パス 354" d="M1742.762,592.629a1,1,0,0,1-.678-.192c-2.732-1.087-4.972-6.084-7.34-11.371l-.061-.136c-.367-.915-.724-1.631-.915-2.016-.784-1.563-1.513-3.018-2.419-4.65-5.819-10.889-13.781-25.789-2.159-35.316a1.8,1.8,0,0,1,1.005-.327,1.287,1.287,0,0,1,1.109.579,1.772,1.772,0,0,1,.3,1.095,1.292,1.292,0,0,1-.574.994c-9.731,7.9-2.138,22.032,2.886,31.386.64,1.151,1.2,2.317,1.693,3.346l.079.165c.219.455.433.9.648,1.328.119.348.278.71.462,1.129.148.338.312.713.476,1.124.774,1.855,3.057,7.331,4.854,9.281a49.557,49.557,0,0,0,2.389-5.733,38.076,38.076,0,0,1,1.5-3.56c1.9-2.58,3.864-3.744,6.216-3.744a16.579,16.579,0,0,1,5.462,1.342l1.687.564a1.562,1.562,0,0,1,.946,1.871,1.573,1.573,0,0,1-1.462,1,1.264,1.264,0,0,1-.406-.065l-1.671-.557-.185-.067a14.032,14.032,0,0,0-4.262-1.136c-1.371,0-2.5.771-3.761,2.577a15.124,15.124,0,0,0-1.072,2.884C1745.23,590.688,1744.281,592.629,1742.762,592.629Z"/>
          </g>
          <g id="グループ_250" data-name="グループ 250">
            <path id="パス_355" data-name="パス 355" d="M1790.15,586.869c-.963,0-1.565-.532-4.543-6.485-1.829-3.658-4.323-6.524-5.678-6.524-.572,0-1.074.59-1.58,1.855l-.02.051-.03.045a1.489,1.489,0,0,1-2.034.619,1.523,1.523,0,0,1-.693-2.076c1.2-2.394,2.582-3.51,4.357-3.51,4.187,0,7.784,7.071,8.271,8.372l.242.495c.273.572.6,1.255.978,1.917a32.239,32.239,0,0,0-.125-7.292,47.369,47.369,0,0,1,.184-11.575l.009-.1c.369-4.25.718-8.258-.743-13.738-1.046-3.834-2.495-7.779-5.3-7.954a1.511,1.511,0,0,1,.2-3.015c3.846.274,6.559,3.727,8.1,10.266,1.5,5.806,1.118,10.365.75,14.774a52.919,52.919,0,0,0-.185,10.914c.574,5.546.348,9.186-.733,11.773A1.38,1.38,0,0,1,1790.15,586.869Z"/>
          </g>
          <g id="グループ_251" data-name="グループ 251">
            <path id="パス_356" data-name="パス 356" d="M1708.01,556.577a38.2,38.2,0,0,1-7.682-1.122c-.493-.1-.989-.21-1.482-.323a18.159,18.159,0,0,0-3.845-.6c-.825-.081-1.743-.12-2.777-.12-3.438,0-7.82.438-12.056.861l-.379.033c-4.519.393-8.777.764-12.363.764s-6.048-.394-7.508-1.2a1.8,1.8,0,0,1-.7-2.028l.023-.069.041-.06a1.8,1.8,0,0,1,1.449-.7,1.727,1.727,0,0,1,.538.084c1.043.518,3.073.766,6.1.766,3.072,0,7.115-.255,12.359-.779,5.854-.549,9.879-.793,13.056-.793.786,0,1.53.015,2.228.049a34.877,34.877,0,0,1,5.825,1.125,32.021,32.021,0,0,0,7,1.113,9.443,9.443,0,0,0,1.961-.188,35.951,35.951,0,0,0,3.38-1.273c.454-.186.921-.378,1.4-.571l.968-.4c2.575-1.076,5.009-2.093,7.217-2.093a6.312,6.312,0,0,1,.888.061,1.615,1.615,0,0,1,1.089.753,1.167,1.167,0,0,1,.083.938,1.417,1.417,0,0,1-1.3,1.184,1.192,1.192,0,0,1-.38-.063,3.564,3.564,0,0,0-.608-.049c-1.834,0-4.489,1.209-6.6,2.262a24.443,24.443,0,0,1-5.457,2.07A8.493,8.493,0,0,1,1708.01,556.577Z"/>
          </g>
          <g id="グループ_252" data-name="グループ 252">
            <path id="パス_357" data-name="パス 357" d="M1679.841,627.192a1.31,1.31,0,0,1-1.308-1.226c-1.069-5.849-49.545-28.018-69.128-35.773l-1.481-.556-.247-.1c-7.451-2.98-15.9-6.357-19.437-14.559-2.661-5.893,4.164-17.611,20.869-35.817,22.32-24.552,62.1-59.582,66.426-59.582h.078l.074.023c6.551,2.1,16.685,27.128,15.328,31.785-.932,2.982-4.533,7.158-9.092,12.445l-.518.6c-5.706,6.624-12.806,14.869-17.918,24.364-1.3,2.416-2.43,4.864-3.523,7.23-5.191,10.937-10.555,22.241-25.125,24.7a1.438,1.438,0,0,1-.338.04,1.648,1.648,0,0,1-1.483-1.171,1.571,1.571,0,0,1,1.12-1.866c13.177-2.263,18.1-12.841,22.867-23.071,1.125-2.44,2.413-5.017,3.724-7.45,5.108-9.669,12.293-18.011,18.067-24.714l.963-1.125c3.965-4.651,7.387-8.666,8.078-11.083.918-3.121-7.935-25.261-12.889-27.823-6.19,3.831-71.936,59.445-83,84.152-1.415,3.008-1.811,5.421-1.12,6.805,3.079,7.059,10.554,10.049,17.783,12.941l.273.109,1.48.555c.642.186,69.272,28.372,70.994,38.14a1.55,1.55,0,0,1-1.026,1.785l-.281.251Z"/>
          </g>
          <g id="グループ_253" data-name="グループ 253">
            <path id="パス_358" data-name="パス 358" d="M1868.286,605.45a1.574,1.574,0,0,1-1.281-.907c-.536-1.6-.966-3.429-1.421-5.365l-.037-.155c-.194-.822-.394-1.669-.61-2.532-1.057-4.935-2.368-11.047-4.6-14.4-9.237-13.3-25.8-16.961-41.81-20.5l-.506-.111c-9.071-1.994-18.446-4.056-26.142-7.9a1.915,1.915,0,0,1-.847-1.178,1.207,1.207,0,0,1,.173-.928,1.8,1.8,0,0,1,1.424-.842,1.177,1.177,0,0,1,.666.2c7.387,3.6,16.108,5.647,25.913,7.761l.677.152c16.418,3.687,33.4,7.5,42.994,21.53,2.463,3.52,3.749,9.067,4.993,14.432l.255,1.094c.532,2.665,1.236,5.34,1.855,7.608a1.452,1.452,0,0,1-.114,1.1,1.476,1.476,0,0,1-.823.754l-.108.036-.114-.014a.421.421,0,0,0-.206.082l-.146.106Z"/>
          </g>
          <g id="グループ_254" data-name="グループ 254">
            <path id="パス_359" data-name="パス 359" d="M1818.025,746.131a37.278,37.278,0,0,1-6.557-.562,4.4,4.4,0,0,1-3.177-2.37,3.2,3.2,0,0,0-1.177-1,1.556,1.556,0,0,1-.9-1.85,1.573,1.573,0,0,1,1.463-1,1.275,1.275,0,0,1,.4.063,5.148,5.148,0,0,1,2.178,1.562c.117.124.237.247.36.372.686.908,1.108,1.212,1.275,1.212a39.606,39.606,0,0,0,6.216.429c2.991,0,6.173-.227,8.982-.427,5.047-.374,9.587-.374,13.977-.374.955,0,1.914.005,2.878.01s1.951.011,2.927.011a91.048,91.048,0,0,0,11.625-.577c12.436-1.883,19.795-4.283,22.487-7.334,4.573-5.451,3.6-12.788,1.974-21.115-.372-2.24-.748-4.505-.933-6.536-2.027-20.076-7.173-57.185-10.589-76.353a1.568,1.568,0,0,1,1.129-1.824,1.5,1.5,0,0,1,.383-.052,1.654,1.654,0,0,1,1.484,1.171c3.005,17.835,8.478,55.551,10.606,76.631.159,1.748.456,3.505.77,5.364l.26,1.553c1.287,7.7,2.747,16.416-2.772,22.856-3.165,3.882-11.36,6.733-24.348,8.465a81.416,81.416,0,0,1-12.787.761l-5.094-.015h-5.388c-2.416,0-5,.161-7.744.333l-.6.038A79.974,79.974,0,0,1,1818.025,746.131Z"/>
          </g>
          <g id="グループ_255" data-name="グループ 255">
            <path id="パス_360" data-name="パス 360" d="M1810.221,741.671c-1.4,0-3.355-.577-4.729-3.325a1.557,1.557,0,0,1,.66-2.056,1.183,1.183,0,0,1,.664-.2,1.805,1.805,0,0,1,1.424.84c.784,1.563,1.646,1.726,1.981,1.726,1.494,0,3.638-2.262,4.558-4.284,5.863-13.189,7.071-22.577,3.4-26.43a1.572,1.572,0,0,1-.495-1.236,1.2,1.2,0,0,1,.546-.894,1.538,1.538,0,0,1,1.073-.468,1.206,1.206,0,0,1,1.016.552c5.95,5.942,1.786,19.412-2.763,29.651C1816.356,738.549,1813.279,741.671,1810.221,741.671Z"/>
          </g>
          <g id="グループ_256" data-name="グループ 256">
            <path id="パス_361" data-name="パス 361" d="M1830.849,744.087a1.512,1.512,0,0,1-.817-.268c-.1-.057-.17-.1-.248-.136l-.079-.04-.06-.064a1.567,1.567,0,0,1-.438-1.192,1.207,1.207,0,0,1,.545-.893c2.153-2.161,4.147-8.371,4.888-15.392.751-7.706-.187-13.587-2.508-15.73-.633-.632-2.3-.838-3.635-1l-.286-.036c-.455-.089-.888-.135-1.3-.178a9.747,9.747,0,0,1-1.339-.2l-.363-.115a6.218,6.218,0,0,1-1.588-.67,8.023,8.023,0,0,0-2.684-.813,1.547,1.547,0,0,0-.571.1,1.319,1.319,0,0,1-.421.069,1.574,1.574,0,0,1-1.461-1,1.562,1.562,0,0,1,.934-1.865,5.162,5.162,0,0,1,1.483-.212,10.756,10.756,0,0,1,3.768.9l.153.058a12.652,12.652,0,0,1,1.515.569,6.2,6.2,0,0,0,.923.166,9.323,9.323,0,0,1,1.059.183c2.018.181,4.341.564,5.715,1.937,3.987,3.986,3.915,13.365,3.244,18.278-.752,6.393-2.684,14.295-5.851,17.277l-.262.244-.171.016C1830.948,744.084,1830.9,744.087,1830.849,744.087Z"/>
          </g>
          <g id="グループ_257" data-name="グループ 257">
            <path id="パス_362" data-name="パス 362" d="M1834.751,710.451a1.566,1.566,0,0,1-1.6-1.6c0-4.566,4.877-5.644,8.1-6.357l.308-.069a10.519,10.519,0,0,0,3.089-.9A53.783,53.783,0,0,0,1851.13,698c3.733-2.22,7.247-4.309,11.1-4.309,3.615,0,7.057,1.8,10.833,5.653a1.573,1.573,0,0,1,.5,1.239,1.208,1.208,0,0,1-.547.894,1.531,1.531,0,0,1-1.072.468,1.208,1.208,0,0,1-1.016-.551c-3.126-3.118-5.91-4.606-8.7-4.606-3.025,0-5.875,1.663-9.484,3.769a57.276,57.276,0,0,1-6.716,3.544,16.536,16.536,0,0,1-3.614.953c-4.011.8-6.061,1.556-6.061,3.42C1836.352,709.676,1835.724,710.451,1834.751,710.451Z"/>
          </g>
          <g id="グループ_258" data-name="グループ 258">
            <path id="パス_363" data-name="パス 363" d="M1820.228,712.866c-5.315-.37-10.731-4.077-12.124-6.466a104.152,104.152,0,0,1-6.888-12.658c-1.106-2.209-2.233-4.464-3.338-6.492-1.842-3.5-4.624-6.089-7.554-8.651-1.108-.923-2.235-2.049-3.325-3.138a13.034,13.034,0,0,1-1.492-2.018l-.79-1.2c-.539-.825-1.8-2.753-2.208-2.864h-.239a4.228,4.228,0,0,0-.935,2c-.41,2.329.515,5.518,2.758,9.442.612,1.1,1.236,2.06,1.84,2.986.319.488.63.966.941,1.464,2.3,3.451,4.125,6.186,4.689,11.65,0,1.011-.555,1.631-1.413,1.631a1.42,1.42,0,0,1-1.6-1.415c-.549-4.73-2.028-7.126-4.22-10.234a47.664,47.664,0,0,1-2.806-4.487c-1.873-3.333-3.929-7.658-3.191-11.539a6.972,6.972,0,0,1,2.147-4.076l.047-.039.054-.026a3.963,3.963,0,0,1,1.725-.45,2.675,2.675,0,0,1,.671.084c1.511.334,2.689,2.011,3.936,3.786.228.324.458.651.691.973a15.387,15.387,0,0,0,1.458,2.194c.557.558,1.113,1.068,1.67,1.579.58.532,1.127,1.034,1.674,1.581,2.933,2.748,5.976,5.6,8.226,9.542,1.114,2.041,2.242,4.3,3.357,6.713a98.992,98.992,0,0,0,6.849,12.218,15.553,15.553,0,0,0,9.628,5.077h0a1.418,1.418,0,0,1,1.389,1.6c0,.721-.654,1.226-1.591,1.229h-.037Z"/>
          </g>
          <g id="グループ_259" data-name="グループ 259">
            <path id="パス_364" data-name="パス 364" d="M1788.292,698.743a15.066,15.066,0,0,1-4.3-.736l-.361-.007c-7.72-1.316-12.378-8.3-16.12-13.92l-.474-.709a1.515,1.515,0,0,1,.456-2.089,1.452,1.452,0,0,1,.8-.243,1.549,1.549,0,0,1,1.284.7l.372.559c3.324,5.25,7.454,11.77,14.108,12.878h.047a.9.9,0,0,1,.6.205,20.968,20.968,0,0,0,3.842.535,1.428,1.428,0,0,1,.913-.308,2.505,2.505,0,0,1,.772.136l.069.023.058.04a1.521,1.521,0,0,1,.4,2.062l-.03.045-.039.037A3.415,3.415,0,0,1,1788.292,698.743Z"/>
          </g>
          <g id="グループ_260" data-name="グループ 260">
            <path id="パス_365" data-name="パス 365" d="M1771.381,709.893a1.475,1.475,0,0,1-1.4-1.134c-.622-1.867-4.451-8.036-4.614-8.3a3.7,3.7,0,0,0-.358-.536,4.324,4.324,0,0,1-.4-.6c-3.154-4.5-7.229-11.117-5.778-15.834a6.225,6.225,0,0,1,3.892-4.092,34.241,34.241,0,0,1,5.621-1.223l.574-.095c1.235-.177,2.59-.371,3.521-.556a1.12,1.12,0,0,1,.358-.054,1.565,1.565,0,0,1,1.478,1.206,1.355,1.355,0,0,1-.127,1.07,1.586,1.586,0,0,1-1.021.779c-.259.052-.528.1-.819.153l-.137.025c-.77.136-1.727.307-2.761.565l-1.366.243a37.975,37.975,0,0,0-4.187.866,3.555,3.555,0,0,0-2.224,2.226c-1.036,3.452,2.983,9.65,5.142,12.979l.186.288a4.293,4.293,0,0,1,.785,1.183,71.743,71.743,0,0,1,5.033,8.954,1.565,1.565,0,0,1-.881,1.856l-.085.033Z"/>
          </g>
          <g id="グループ_261" data-name="グループ 261">
            <path id="パス_366" data-name="パス 366" d="M1764.505,717.512a1.616,1.616,0,0,1-1.384-.722c-.184-.368-.366-.688-.55-1.008s-.376-.66-.565-1.037c-.269-.446-.5-.912-.736-1.38s-.464-.929-.739-1.386a21.354,21.354,0,0,0-2.557-3.1c-3.62-4.248-10.3-12.1-7.474-16.541,1.561-2.341,3.89-2.731,6.142-3.107l2.215-.554a1.209,1.209,0,0,1,.382-.057,1.469,1.469,0,0,1,.53,2.863c-.361.091-.733.174-1.109.258l-.114.026c-.475.105-.866.192-1.217.28-1.68.337-3.387.678-4.087,1.9-1.384,2.155,3.38,8.076,6.227,11.614.363.451.7.868,1,1.246a23.548,23.548,0,0,1,2.82,3.583,20.457,20.457,0,0,1,1.5,2.809c.174.344.357.665.539.985.2.353.384.673.566,1.036a1.342,1.342,0,0,1,.173,1.078,1.577,1.577,0,0,1-.806.967A1.04,1.04,0,0,1,1764.505,717.512Z"/>
          </g>
          <g id="グループ_262" data-name="グループ 262">
            <path id="パス_367" data-name="パス 367" d="M1761.9,725.318a.984.984,0,0,1-.715-.223,9.617,9.617,0,0,1-3.076-3.645c-.116-.173-.243-.384-.369-.6a5.943,5.943,0,0,0-.7-1.015l-.947-1.134c-4.609-5.21-8.805-10.609-8.243-14.728.189-1.707,1.582-2.85,2.918-3.74a4.433,4.433,0,0,1,.546-.457,4.748,4.748,0,0,0,.525-.436,1.447,1.447,0,0,1,1.028-.439,1.533,1.533,0,0,1,1.067.441,1.435,1.435,0,0,1,.439,1.03,1.538,1.538,0,0,1-.44,1.066,8.375,8.375,0,0,1-1.346,1.153,3.6,3.6,0,0,0-1.734,1.867c-.373,2.243,2.3,6.58,7.548,12.173l.941,1.129c.144.213.288.395.437.586a7.73,7.73,0,0,1,.9,1.33,7.857,7.857,0,0,0,2.095,2.467,1.594,1.594,0,0,1,.7,1.009,2.015,2.015,0,0,1-1.58,2.161Z"/>
          </g>
          <g id="グループ_263" data-name="グループ 263">
            <path id="パス_368" data-name="パス 368" d="M1813.724,739.006a.358.358,0,0,0-.11-.018.982.982,0,0,0-.2.03,1.885,1.885,0,0,1-.408.052,1.716,1.716,0,0,1-1.141-.459c-3.057-3.4-17.1-4.762-22.443-4.762-.351,0-.664.007-.936.017h-.118a21.589,21.589,0,0,0-3.375.181l-.24.011c-2.121.073-4.114.143-6.083.143-8.582,0-15.64-1.432-22.193-8.421l-1.85-1.852c-3.493-3.318-9.357-8.888-4.841-13.8a1.263,1.263,0,0,1,1.057-.515,1.3,1.3,0,0,1,1.033.477,1.369,1.369,0,0,1,.521,1.076,1.3,1.3,0,0,1-.5,1.048c-2.037,2.244.226,5.225,4.818,9.607.257.257.508.487.753.711a10,10,0,0,1,1.324,1.371c5.767,6.2,12.022,7.45,20.234,7.45,1.873,0,3.782-.062,5.9-.136h.1a21.744,21.744,0,0,0,3.392-.181c.257-.02.6-.03,1.05-.03.2,0,19.853.253,24.687,5.89a1.774,1.774,0,0,1,.127,1.906l-.209.315Z"/>
          </g>
          <g id="グループ_264" data-name="グループ 264">
            <path id="パス_369" data-name="パス 369" d="M1770.756,678.672l-.065-.017a1.582,1.582,0,0,1-.934-.656,1.486,1.486,0,0,1-.154-1.186c.879-4.7,1.067-12.868.549-24.257,0-1.6-.052-3.1-.1-4.551l0-.1c-.041-1.209-.079-2.339-.079-3.353,0-5.811.206-11.765.371-16.55l.08-2.39c.359-10.621.731-21.6-.82-32.122a1.253,1.253,0,0,1,.225-1.1,1.467,1.467,0,0,1,1.134-.539,1.722,1.722,0,0,1,.336-.037,1.358,1.358,0,0,1,1.317,1.45c1.553,10.843,1.184,21.915.827,32.622l-.083,2.512c-.166,4.838-.372,10.794-.372,16.344,0,2.231,0,5.008.186,7.786l.049,2.124c.188,7.978.4,17.021-.8,22.858a1.321,1.321,0,0,1-1.408,1.168Z"/>
          </g>
          <g id="グループ_265" data-name="グループ 265">
            <path id="パス_370" data-name="パス 370" d="M1765.248,787.2a1.323,1.323,0,0,1-.955-.274,1.471,1.471,0,0,1-.225-2.051c1.459-1.944.348-9.464-.249-13.5l-.169-1.153c-.082-.324-.13-.636-.174-.925a5.3,5.3,0,0,0-.186-.883,1.3,1.3,0,0,1,.214-1.155,1.478,1.478,0,0,1,1.186-.54,1.421,1.421,0,0,1,1.6,1.415,10.763,10.763,0,0,0,.359,1.77c1.156,6.734,2.051,13.961.018,16.9l-.135.2-.236.019a2.52,2.52,0,0,0-.42.081A2.6,2.6,0,0,1,1765.248,787.2Z"/>
          </g>
          <g id="グループ_266" data-name="グループ 266">
            <path id="パス_371" data-name="パス 371" d="M1771.938,788.317c-40.8-.186-91.422-7.3-96.291-12.167-1.143-1.145-1.388-5.1-1.388-44.442,0-37.4,0-88.624-3.342-111.832a1.253,1.253,0,0,1,.227-1.1,1.465,1.465,0,0,1,1.131-.537,1.73,1.73,0,0,1,.336-.037,1.359,1.359,0,0,1,1.319,1.451c3.344,23.394,3.344,74.748,3.344,112.246,0,19.486,0,39.628.707,42.564,5.637,4.06,53.538,11.031,93.958,11.215l1.355,0c26.916,0,51.546-5.464,53.752-7.3.558-1.4.3-9.181.158-13.4-.183-3.836-.372-8.323-.372-12.461a1.421,1.421,0,0,1,1.6-1.415,1.479,1.479,0,0,1,1.186.539,1.281,1.281,0,0,1,.235,1.069c0,3.781.17,7.949.365,12.244.366,9.876.394,14.037-.816,15.449-3.022,2.671-29.45,7.909-56.35,7.909Z"/>
          </g>
          <g id="グループ_267" data-name="グループ 267">
            <path id="パス_372" data-name="パス 372" d="M1752.2,769.362a1.573,1.573,0,0,1-.771-.264c-.079-.046-.16-.093-.254-.139l-.081-.04-.062-.065a1.69,1.69,0,0,1-.4-1.279v-.07l10.231-36.25a1.6,1.6,0,0,1,1.467-1.01,1.264,1.264,0,0,1,.406.064,1.94,1.94,0,0,1,1.132,1.771v.068l-9.537,33.907,72.752-16.576,1.8-5.049a1.574,1.574,0,0,1,1.46-.991,1.266,1.266,0,0,1,.406.064,1.562,1.562,0,0,1,.931,1.865l-2.045,5.95a1.593,1.593,0,0,1-1.145.943l-76.192,17.32Z"/>
          </g>
          <g id="グループ_268" data-name="グループ 268">
            <path id="パス_373" data-name="パス 373" d="M1845.619,703.2l-.09-.037a1.537,1.537,0,0,1-.732-.733,1.473,1.473,0,0,1-.11-1.112l34.233-94.367-79.806,2.579L1776.13,691.09a1.938,1.938,0,0,1-1.776,1.149h-.088l-.082-.03a1.678,1.678,0,0,1-1.044-1.852l23.225-82.87a1.48,1.48,0,0,1,1.405-1.148l83.247-2.6a1.325,1.325,0,0,1,1.206.722,1.5,1.5,0,0,1,.184,1.384l-34.924,96.418a1.822,1.822,0,0,1-1.4.941Z"/>
          </g>
          <g id="グループ_269" data-name="グループ 269">
            <path id="パス_374" data-name="パス 374" d="M1770.921,687.964l-.082-.029a2,2,0,0,1-1.059-1.757v-.069l22.125-78.065a2.533,2.533,0,0,1,1.085-1.116l.074-.037,4.109-.549a1.284,1.284,0,0,1,.326-.039,1.311,1.311,0,0,1,1.312,1.2,1.379,1.379,0,0,1-.242,1.168,1.264,1.264,0,0,1-.985.495l-2.922.52L1772.8,686.761a1.368,1.368,0,0,1-1.419,1.2Z"/>
          </g>
          <g id="グループ_270" data-name="グループ 270">
            <path id="パス_375" data-name="パス 375" d="M1751.867,770.476a1.26,1.26,0,0,1-.955-.459l-2.959-2.587a1.446,1.446,0,0,1-.459-1.622l10.59-37.156a1.962,1.962,0,0,1,1.774-1.147h.087l.082.03a1.97,1.97,0,0,1,1.061,1.757v.069l-10.181,36.25,2.27,1.92a1.344,1.344,0,0,1,.543,1,1.407,1.407,0,0,1-.341,1.115C1752.647,770.377,1752.2,770.476,1751.867,770.476Z"/>
          </g>
          <g id="グループ_271" data-name="グループ 271">
            <path id="パス_376" data-name="パス 376" d="M1667.125,892.014a1.649,1.649,0,0,1-1.585-1.318l-.024-.071,0-.076c-.911-37.027,8.175-109.974,9.875-115.26a1.57,1.57,0,0,1,1.462-1,1.256,1.256,0,0,1,.4.064,1.561,1.561,0,0,1,.934,1.864c-1.719,5.347-10.731,77.911-9.651,114.316a1.053,1.053,0,0,1-.165.893A1.524,1.524,0,0,1,1667.125,892.014Z"/>
          </g>
          <g id="グループ_272" data-name="グループ 272">
            <path id="パス_377" data-name="パス 377" d="M1839.211,892.758a1.689,1.689,0,0,1-1.6-1.6c2.064-18.581-6.539-92.647-11.327-111.428a1.365,1.365,0,0,1,.13-1.074,1.584,1.584,0,0,1,1.019-.779,1.194,1.194,0,0,1,.372-.056,1.565,1.565,0,0,1,1.477,1.205c4.871,19.669,13.391,93.557,11.343,112.536A1.324,1.324,0,0,1,1839.211,892.758Z"/>
          </g>
          <g id="グループ_273" data-name="グループ 273">
            <path id="パス_378" data-name="パス 378" d="M1748.337,898.147a1.566,1.566,0,0,1-1.6-1.6c.934-15.141,6.99-45.514,23.228-52.311a1.641,1.641,0,0,1,.535-.09,1.582,1.582,0,0,1,.645,3.051c-13.665,5.725-20.267,32.694-21.388,49.48a1.09,1.09,0,0,1-.171.883A1.524,1.524,0,0,1,1748.337,898.147Z"/>
          </g>
          <g id="グループ_274" data-name="グループ 274">
            <path id="パス_379" data-name="パス 379" d="M1767.292,897.776a1.552,1.552,0,0,1-1.383-.909c-1.353-3.859-2.684-8.645-3.924-13.251l-.56-2.013c-2.005-7.212-4.078-14.667-6.107-18.555a1.336,1.336,0,0,1-.174-1.082,1.589,1.589,0,0,1,.863-1,1.14,1.14,0,0,1,.633-.181,1.807,1.807,0,0,1,1.424.84c2.35,4.336,4.535,12.352,6.648,20.1l.267.985c1.381,5.129,2.666,9.688,3.715,13.187a1.587,1.587,0,0,1-.725,1.764l-.192.107-.2-.066A.657.657,0,0,1,1767.292,897.776Z"/>
          </g>
          <g id="グループ_275" data-name="グループ 275">
            <path id="パス_380" data-name="パス 380" d="M1690.355,512.533a1.5,1.5,0,0,1-.808-.262c-.079-.046-.16-.093-.254-.14l-.082-.041-.063-.067a1.57,1.57,0,0,1-.435-1.19,1.205,1.205,0,0,1,.547-.9c2.373-2.38,8.583-11.576,8.231-14.392-.936-6.364-4.68-11.179-8.3-15.836-.281-.374-.6-.792-.929-1.208s-.653-.839-.933-1.212l-.381-.571c-.144-.172-.331-.412-.532-.674-.742-.963-1.983-2.574-2.859-2.574a.614.614,0,0,0-.178.025c-1.8.49-4.859,4.253-6.5,6.274l-.41.5-.552.735a1.282,1.282,0,0,1-1.1.565,1.787,1.787,0,0,1-.98-.31,1.272,1.272,0,0,1-.551-.822,1.719,1.719,0,0,1,.281-1.266l.568-.758c2.78-3.522,5.647-7.154,8.544-7.733a3.432,3.432,0,0,1,.9-.117c2.351,0,4.21,2.356,5.568,4.076l.336.424.385.577c.265.353.585.763.905,1.174.331.426.661.851.944,1.228,4.423,5.685,7.9,10.568,8.977,17.229.6,4.568-7.236,15.036-8.959,16.935l-.089.1-.126.041A3,3,0,0,1,1690.355,512.533Z"/>
          </g>
          <g id="グループ_276" data-name="グループ 276">
            <path id="パス_381" data-name="パス 381" d="M1699.647,493.02a1.049,1.049,0,0,1-.977-.473,1.294,1.294,0,0,1-.507-.94,1.777,1.777,0,0,1,.305-1.1c.217-.283.461-.592.734-.939l.074-.094c2.2-2.781,6.283-7.956,6.764-11.478.351-2.279-.318-5.781-1.027-9.49l-.086-.449c-1.5-8.235-3.36-18.479,5.03-21.339a1.248,1.248,0,0,1,.407-.065,1.573,1.573,0,0,1,1.461,1,1.563,1.563,0,0,1-.932,1.867c-5.753,2.042-4.458,9.379-2.96,17.876l.143.778c.683,3.736,1.328,7.261.975,10.09-.565,4.329-4.7,9.8-8.243,14.091C1700.394,492.77,1700.142,493.02,1699.647,493.02Z"/>
          </g>
          <g id="グループ_277" data-name="グループ 277">
            <path id="パス_382" data-name="パス 382" d="M1696.3,453.437a.971.971,0,0,1-.77-.274,1.517,1.517,0,0,1-.624-.954,1.449,1.449,0,0,1,.214-1.1,11.438,11.438,0,0,1,2.36-2.938l.466-.455a24.843,24.843,0,0,0,4.25-4.433c1.765-2.321,3.742-3.4,6.219-3.4a17.756,17.756,0,0,1,5,1l.252.077c1.1.367,2.229.742,3.526,1.112a1.551,1.551,0,0,1-.273,3.053,1.8,1.8,0,0,1-.442-.058c-1.219-.347-2.587-.737-3.736-1.121a14.311,14.311,0,0,0-4.348-1.082c-1.448,0-2.641.7-3.87,2.284a43.264,43.264,0,0,1-4.114,4.5c-.2.2-.39.377-.557.544a7.605,7.605,0,0,0-2.18,2.537l-.036.062-.052.05A1.887,1.887,0,0,1,1696.3,453.437Z"/>
          </g>
          <g id="グループ_278" data-name="グループ 278">
            <path id="パス_383" data-name="パス 383" d="M1691.775,454.923l-.064-.017a1.562,1.562,0,0,1-.953-.686,1.488,1.488,0,0,1-.135-1.157c1.164-5.245,5.374-11.909,10.4-13.955a8.548,8.548,0,0,1,3.577-.837,7.363,7.363,0,0,1,3.749,1.041,1.8,1.8,0,0,1,.691,2.026l-.023.069-.041.059a1.8,1.8,0,0,1-1.449.7,1.7,1.7,0,0,1-.539-.085l-.058-.019-.052-.033a4.3,4.3,0,0,0-2.306-.655,6.511,6.511,0,0,0-2.4.516c-3.956,1.8-7.623,7.589-8.553,11.864a1.7,1.7,0,0,1-1.594,1.165Z"/>
          </g>
          <g id="グループ_279" data-name="グループ 279">
            <path id="パス_384" data-name="パス 384" d="M1686.574,458.455l-.061-.017a1.429,1.429,0,0,1-1.095-1.843c.308-1.474,3.218-14.657,9.452-17.667a6.653,6.653,0,0,1,5.456,0,1.524,1.524,0,0,1,.7,2.082,1.624,1.624,0,0,1-1.361.872,1.6,1.6,0,0,1-.713-.18,2.9,2.9,0,0,0-2.892,0c-3.3,1.565-6.3,8.927-7.822,15.548a1.358,1.358,0,0,1-1.418,1.209Z"/>
          </g>
          <g id="グループ_280" data-name="グループ 280">
            <path id="パス_385" data-name="パス 385" d="M1686.2,473.507l-.064-.017a1.586,1.586,0,0,1-.935-.656,1.492,1.492,0,0,1-.153-1.187c.541-1.986-.02-4.973-.562-7.862l-.036-.221c-1.122-6.716-2.517-15.078,5.168-20.888a1.8,1.8,0,0,1,.994-.319,1.29,1.29,0,0,1,1.109.578A1.718,1.718,0,0,1,1692,444.2a1.281,1.281,0,0,1-.55.823c-6.324,4.7-5.073,11.787-3.97,18.041l.063.37c.543,3.252,1.055,6.324.5,8.725l-.014.059-.028.055a1.828,1.828,0,0,1-1.551,1.233Z"/>
          </g>
          <g id="グループ_281" data-name="グループ 281">
            <path id="パス_386" data-name="パス 386" d="M1776.584,518.108a1.322,1.322,0,0,1-.955-.274,1.241,1.241,0,0,1-.528-.954,1.779,1.779,0,0,1,.3-1.1c.263-.351.554-.726.848-1.1l.083-.106c.328-.422.656-.843.936-1.218l.16-.212a21.539,21.539,0,0,1,5.68-5.808,1.439,1.439,0,0,1,.8-.241,1.549,1.549,0,0,1,1.284.7,1.452,1.452,0,0,1,.215,1.1,1.577,1.577,0,0,1-.669.991,18.834,18.834,0,0,0-4.759,5.063l-.183.253c-.154.2-.3.42-.458.64a13.232,13.232,0,0,1-1.431,1.812l-.112.113-.157.027a2.348,2.348,0,0,0-.388.129A2.07,2.07,0,0,1,1776.584,518.108Z"/>
          </g>
          <g id="グループ_282" data-name="グループ 282">
            <path id="パス_387" data-name="パス 387" d="M1772.805,473.932l-.07-.02a1.483,1.483,0,0,1-1-1.853c.532-1.731,2.353-3.228,4.749-3.894a9.2,9.2,0,0,1,2.474-.365,5.128,5.128,0,0,1,3.385,1.1,1.251,1.251,0,0,1,.508.8,1.6,1.6,0,0,1-.256,1.192,1.331,1.331,0,0,1-1.13.6,1.651,1.651,0,0,1-.908-.284,2.506,2.506,0,0,0-1.539-.412,5.744,5.744,0,0,0-1.666.262c-1.586.453-2.589,1.3-2.731,1.875l-.033.135-.112.151a2.224,2.224,0,0,1-1.366.719Z"/>
          </g>
        </g>
      </g>
    </g>
  </g>
</svg>
