<svg xmlns="http://www.w3.org/2000/svg" xmlns:xlink="http://www.w3.org/1999/xlink" width="300" height="220" viewBox="0 0 300 220">
  <defs>
    <clipPath id="clip-path">
      <path id="パス_646" data-name="パス 646" d="M2300,728h300V948H2300Z" fill="none"/>
    </clipPath>
  </defs>
  <g id="グループ_456" data-name="グループ 456" transform="translate(-2300 -728)">
    <g id="グループ_455" data-name="グループ 455" clip-path="url(#clip-path)">
      <g id="グループ_454" data-name="グループ 454">
        <g id="グループ_412" data-name="グループ 412">
          <path id="パス_597" data-name="パス 597" d="M2498.769,762.484c3,.887,3.38,3.811,4.244,6.662,1.477,4.875,2.326,11.171,5.354,15.411,3.993,5.59,14.059,9.012,15.412,16.455,1.981,10.9-8.1,17.25-11.233,26.644a36.064,36.064,0,0,0-1.958,12.93c.212,5.289,1.712,10.725,1.044,16.064-.7,5.569-3.15,11.272-5.223,16.456-4.234,10.583-6.355,21.976-11.886,32-1.8,3.271-5.4,8.085-9.664,7.444-1.784-.267-2.4-1.858-3.134-3.265-2.188-4.219-3.617-8.7-5.485-13.06a112.27,112.27,0,0,0-8.229-15.542c-2.4-3.8-5.616-8.362-6.269-12.929-.314-2.194,2.633-8.4,3.055-10.507,1.01-5.05,1.225-16.421,1.225-16.421a74.939,74.939,0,0,1-7.965-9.557,34.234,34.234,0,0,1-3.615-9.006c-.277-1.113-1.04-5.147-1.04-5.147s-3.682.041-4.932-1.208a18.483,18.483,0,0,1-5.72-11.124c-.409-4.449,1.415-6.275,4.268-6.81,1.593-.3,2.919.456,4.406-.355,2.591-1.413,4.588-5.155,6.269-7.575,2.74-3.946,5.549-7.936,8.1-12.015,4.932-7.891,10.442-17.84,20.636-19.2C2491.3,758.177,2494.582,761.249,2498.769,762.484Z" fill="#fdeee9" fill-rule="evenodd"/>
          <path id="パス_598" data-name="パス 598" d="M2506.641,855.09c1.15-.135,2.937,2.808,4.429,6.625a77.476,77.476,0,0,1,2.337,7.4,54.312,54.312,0,0,0,7.452,4.659c3.819,1.909,6.806,1.977,11,2.64,4.41.7,7.721,1.37,12.151,1.96a98.748,98.748,0,0,1,9.692,1.969,20.734,20.734,0,0,1,10.041,6.8,39.549,39.549,0,0,1,7.765,15.5c2.124,8.495,2.145,16.767,2.958,25.466.653,6.975.657,20.693.788,26.65.068,3.123.205,7.693.338,10.637.122,2.674.31,3.825-.888,4.766-2.876,2.26-22.785-.325-29.682-.21-14.793.247-32.26,2.068-42.91,3.1s-17.151.827-25.435.827c-7.445,0-20.454-.459-27.917-.93a121.951,121.951,0,0,0-23.689.311,116.493,116.493,0,0,1-17.034.613c-1.62-.094-13.9.15-15.175-1.126-1.227-1.228,3.165-24.78,3.93-31.876s2.392-18.11,3.711-25.107c2.183-11.571,3.522-15.4,8.206-23.6,3.236-5.665,10.361-9.035,16.118-10.853,7.513-2.372,16.132-3.807,23.3-7.063,2.677-1.216,10.874-4.1,10.874-4.1s.262-3.209.658-5.847c.2-1.331.949-5.351,2.251-7.4a4.118,4.118,0,0,1,3.112-2.052l-.484,4.087a8.13,8.13,0,0,0-.616,7.955c2.064,4.3,7.12,9.976,10.461,13.317,1.643,1.642,5.86,6.453,6.813,8.57,1.243,2.763,1.169,4.621,1.758,7.56.642,3.214.271,3.985,1.362,7.076.5,1.408,2.329,7.165,2.329,7.165s.643-2.995.748-3.385a28.639,28.639,0,0,1,1.1-3.334c1.28-2.88,3.226-5.619,4.207-8.622.971-2.971,2.258-11.258,3.524-14.107,1.514-3.407,2.9-3.885,4.846-6a30.579,30.579,0,0,0,6.99-11.972,6.985,6.985,0,0,0-.326-3.492S2505.714,855.2,2506.641,855.09Z" fill="#fff" fill-rule="evenodd"/>
          <path id="パス_599" data-name="パス 599" d="M2514.837,799.387s-3.21-3.485-3.761-4.356a59.991,59.991,0,0,1-3.716-6.051,43.317,43.317,0,0,1-2.543-9.168,61.506,61.506,0,0,0-3.66-11.633c-.7-1.67-1.853-1.784-3.561-2.516-1.774-.761-3.013-.393-4.5-.941s-2.669-1.522-3.847-1.915c-2.919-.973-7.025-.374-8.778,2.2-2.772,4.063-5.2,13.7-7.9,19.317-1.66,3.461-4.033,5.27-6.24,8.36-1.454,2.035-4.915,3.677-7.049,4.815-1.811.965-5.02,1.289-6.993,1.469-1.535.139-3.194-1.336-4.625-.8-.437.163-2.683.685-2.683.685s-.512-5.694-.627-6.965c-.674-7.415.785-16.076,2.34-23.4,2.356-11.1,10.232-23.637,21.121-28.428a29.968,29.968,0,0,1,13.072-2.4c4.339.115,5.224,2.258,9.248,2.569s4.241-1.649,6.848-1.323c7.208.9,11.5,3.971,16.442,8.916,9.368,9.368,13.972,22.776,15.677,35.726a77.718,77.718,0,0,1,.445,18.246c-.789,6.483-2.029,12.043-4.939,16.806-1.506,2.464-7.34,6.756-7.34,6.756s4.644,4.263,5.18,5.694c.468,1.248,1.165,2.055,1.33,3.37.486,3.88-.206,7.274.443,11.843a49.882,49.882,0,0,0,3.006,10.335c1.376,3,3.23,4.2,5.589,6.294,3.016,2.677,7.373,4.532,8.308,8.036.415,1.556,1.019,3,.759,4.56-.045.271-.542,2.243-.542,2.243s-4.69-.546-5.536-.687c-2.7-.449-4.391-.572-7.094-.977a30.436,30.436,0,0,1-15.251-6.9s-2.629-8.542-4.165-11.807c-.727-1.544-2.993-2.386-2.993-2.386s-1.636-6.288-1.9-8.572c-.252-2.172-.688-7.723-.688-7.723s4.162-4.846,4.933-6.217c1.052-1.87,1.95-4.362,2.83-6.318.781-1.733,2.467-7.8,2.467-7.8s3.183-.375,4.284-1.554a17.957,17.957,0,0,0,5.007-11.353c.177-2.658-1.537-6.013-4.492-6.55A8.5,8.5,0,0,0,2514.837,799.387Z" fill="#c28d81" fill-rule="evenodd"/>
          <path id="パス_600" data-name="パス 600" d="M2453.475,816.929,2454.91,824a1.429,1.429,0,0,1-1.831-.287,10.611,10.611,0,0,1-3.052-4.272c-.167-.378-.681-3.016-.681-3.016l2.2.73Z" fill="#c28d81" fill-rule="evenodd"/>
          <path id="パス_601" data-name="パス 601" d="M2489.469,826.73c.556,1.8-.832,6.582-2.6,7.434a9.613,9.613,0,0,1-4.831,1.312c-3.665-.333-5.572-5.037-6.44-8.4,0,0,1.8-2.654,2.258-2.723a38.043,38.043,0,0,1,4.37-.148,15.886,15.886,0,0,1,2.241-.02C2485.465,824.235,2488.913,824.932,2489.469,826.73Z" fill="#f3a09a" fill-rule="evenodd"/>
          <g id="グループ_410" data-name="グループ 410">
            <path id="パス_602" data-name="パス 602" d="M2517.614,809.524a.524.524,0,0,0,.52-.461,7.063,7.063,0,0,1,1.495-3.056.523.523,0,1,0-.826-.642,8.076,8.076,0,0,0-1.709,3.573.523.523,0,0,0,.457.582A.445.445,0,0,0,2517.614,809.524Z" fill="#925c53"/>
          </g>
          <g id="グループ_411" data-name="グループ 411">
            <path id="パス_603" data-name="パス 603" d="M2450.044,808.19a.516.516,0,0,0,.225-.051.524.524,0,0,0,.247-.7,11.607,11.607,0,0,0-1.205-1.877c-.207-.279-.414-.559-.607-.849a.524.524,0,0,0-.872.581c.2.3.42.6.636.89a10.74,10.74,0,0,1,1.1,1.706A.523.523,0,0,0,2450.044,808.19Z" fill="#925c53"/>
          </g>
          <path id="パス_604" data-name="パス 604" d="M2399.468,948.6s-1.586-4.053-1.944-5.6a66.984,66.984,0,0,0-2.748-7.8c-1.323-3.7-3.449-7.135-4.788-10.853-2.268-6.3-3.554-13.677-7.4-19.278-1.676-2.437-4.5-4.359-6.7-6.32-2.763-2.456-5.709-6.94-7.937-9.912-.425-.565-1.663-1.533-2.742-.994-1.932.966-.867,4.889-.557,6.437.611,3.057,1.544,4.264,2.785,7.1.291.665,2.6,4.735,1.816,5.45-1.165,1.059-4.3.923-5.758.822-8.2-.565-15.259-5.072-21.214-10.281a45.343,45.343,0,0,1-5.243-6.751c-.522-.785-1.031-1.693-2.262-1.447-2.308.462-2.219,3.215-1.66,5.171.051.176.941,2.2.941,2.2s-1.67-1.217-2.089-1.567c-1.564-1.3-3.657-3.467-5.554-4.225a1.668,1.668,0,0,0-2.044.651c-.451.9.815,2.766,1.278,3.574,1.67,2.925,2,6.367,3.319,9.449,1.331,3.107,3.086,7.548,5.873,9.639a34.9,34.9,0,0,0,6.654,3.316s4.476,4.536,6.816,5.94c2.905,1.744,5.529,2.219,8.434,3.962,4.445,2.667,8.569,4.293,12.226,7.949,1.161,1.161,2.153,3.617,2.719,5.116.783,2.071,3.132,7.915,3.637,10.054.554,2.346,1.753,7.936,1.753,7.936s6.9-.091,9.405-.928c2.738-.913,5.708-1.823,8.043-3.575,1.608-1.205,3.3-1.936,4.533-3.575A6.959,6.959,0,0,0,2399.468,948.6Z" fill="#fdeee9" fill-rule="evenodd"/>
          <path id="パス_605" data-name="パス 605" d="M2400.376,948.4c1.5.629,2.259,4.144,2.792,5.566,1.79,4.772,2.223,9.146,3.46,14.093.488,1.952,4.6,5.694,1.8,6.51-3.259.949-8.785.375-12.131.483-3.985.129-7.846.708-11.809.973-1.862.124-5.267.337-6.762-1.158-.717-.717-1.024-3.457-1.076-4.275-.183-2.937-.374-3.859-.559-6.813-.1-1.643-.509-4.017-.509-5.363a1.4,1.4,0,0,1,1.221-1.475s-.207.406.645,1.115c1.126.939,3.812.407,5.1.278a25.18,25.18,0,0,0,13.939-6.16c.927-.816,1.9-1.667,2.778-2.546C2399.64,949.252,2399.892,948.2,2400.376,948.4Z" fill="#fff" fill-rule="evenodd"/>
        </g>
        <g id="グループ_453" data-name="グループ 453">
          <g id="グループ_413" data-name="グループ 413">
            <path id="パス_606" data-name="パス 606" d="M2483.41,848.887a26.823,26.823,0,0,1-7.023-.892,26.487,26.487,0,0,1-9.8-5.31c-6.285-5.031-10.6-10.855-12.481-16.843a49.41,49.41,0,0,1-2.271-14.525,1.324,1.324,0,0,1,2.288-.864,1.312,1.312,0,0,1,.358.949,46.521,46.521,0,0,0,2.149,13.647c1.724,5.485,5.738,10.868,11.611,15.568a22.16,22.16,0,0,0,15.174,5.624,27.6,27.6,0,0,0,6.87-.871c13.486-3.518,21.96-19.007,23.362-32.488a1.325,1.325,0,0,1,2.345-.7,1.311,1.311,0,0,1,.288.97c-1.449,13.946-9.994,30.776-25.327,34.776A29.947,29.947,0,0,1,2483.41,848.887Z"/>
          </g>
          <g id="グループ_414" data-name="グループ 414">
            <path id="パス_607" data-name="パス 607" d="M2498.87,807.043a2.88,2.88,0,1,1,2.493-2.854A2.695,2.695,0,0,1,2498.87,807.043Z" fill-rule="evenodd"/>
          </g>
          <g id="グループ_415" data-name="グループ 415">
            <path id="パス_608" data-name="パス 608" d="M2466.519,807.764a2.88,2.88,0,1,1,2.493-2.854A2.7,2.7,0,0,1,2466.519,807.764Z" fill-rule="evenodd"/>
          </g>
          <g id="グループ_416" data-name="グループ 416">
            <path id="パス_609" data-name="パス 609" d="M2482.085,816.629a1.342,1.342,0,0,1-.416-.067,4.123,4.123,0,0,1-1.868-1.239l-.164-.179a5.122,5.122,0,0,1-.68-.848c-1.286-2.145.089-3.837.911-4.847a4.128,4.128,0,0,0,.919-1.463,8.809,8.809,0,0,0-.045-2.738,17.517,17.517,0,0,1-.153-2.025,1.323,1.323,0,1,1,2.646,0,14.85,14.85,0,0,0,.133,1.691,11.053,11.053,0,0,1,.015,3.592,6.08,6.08,0,0,1-1.462,2.613c-.931,1.147-.962,1.368-.693,1.817a3.783,3.783,0,0,0,.342.4l.2.216a1.5,1.5,0,0,0,.734.5,1.324,1.324,0,0,1-.42,2.579Z"/>
          </g>
          <g id="グループ_417" data-name="グループ 417">
            <path id="パス_610" data-name="パス 610" d="M2463,864.649a1.321,1.321,0,0,1-1.215-1.848l.184-.425a16.832,16.832,0,0,0,1.337-4.192,64.405,64.405,0,0,0,.986-10.84c.074-2.1.149-4.212.33-6.264a1.325,1.325,0,0,1,2.335-.732,1.318,1.318,0,0,1,.3.965c-.177,2.009-.25,4.1-.321,6.131a66.213,66.213,0,0,1-1.042,11.286,19.218,19.218,0,0,1-1.5,4.7l-.184.421A1.325,1.325,0,0,1,2463,864.649Z"/>
          </g>
          <g id="グループ_418" data-name="グループ 418">
            <path id="パス_611" data-name="パス 611" d="M2397.724,935.828a1.334,1.334,0,0,1-1.161-1.5c.668-4.653,1.286-8.912,1.784-12.346l.738-5.092c1.754-12.141,4.993-21.179,9.63-26.862,6.881-8.432,17.243-11.014,28.153-13.113a79.426,79.426,0,0,0,20.842-8.027,1.321,1.321,0,0,1,1.817.443,1.319,1.319,0,0,1-.44,1.818,82.8,82.8,0,0,1-21.719,8.366c-10.412,2-20.282,4.443-26.6,12.186-4.33,5.306-7.378,13.907-9.062,25.567l-.757,5.225c-.5,3.411-1.1,7.618-1.764,12.212a1.331,1.331,0,0,1-1.31,1.135Z"/>
          </g>
          <g id="グループ_419" data-name="グループ 419">
            <path id="パス_612" data-name="パス 612" d="M2508.118,862.622a1.329,1.329,0,0,1-1.249-.882c-.159-.452-.323-.893-.491-1.343a44.678,44.678,0,0,1-1.807-5.736,75.694,75.694,0,0,1-1.946-16.237,1.323,1.323,0,0,1,2.646,0,73.822,73.822,0,0,0,1.875,15.616,42.442,42.442,0,0,0,1.712,5.43l.053.143c.154.416.307.826.455,1.245a1.323,1.323,0,0,1-.809,1.69A1.369,1.369,0,0,1,2508.118,862.622Z"/>
          </g>
          <g id="グループ_420" data-name="グループ 420">
            <path id="パス_613" data-name="パス 613" d="M2575.582,971.2a1.325,1.325,0,0,1-1.323-1.323c0-13.965-.548-26.572-1.128-39.921l-.2-4.679c-.645-15.055-1.959-28.346-11.545-38.531-3.606-3.831-8.369-5.242-12.981-6.2-3.376-.7-6.922-1.22-10.35-1.723a111.821,111.821,0,0,1-17.386-3.5c-2.491-.788-6.771-4.121-8.406-5.648a1.324,1.324,0,0,1,1.807-1.935c1.795,1.677,5.568,4.481,7.4,5.059a109.883,109.883,0,0,0,16.985,3.41c3.472.51,7.047,1.035,10.491,1.747,5.037,1.043,10.264,2.609,14.372,6.974,10.209,10.847,11.593,24.639,12.262,40.233l.2,4.612c.582,13.391,1.133,26.038,1.133,40.1A1.325,1.325,0,0,1,2575.582,971.2Z"/>
          </g>
          <g id="グループ_421" data-name="グループ 421">
            <path id="パス_614" data-name="パス 614" d="M2514.858,819.634a1.323,1.323,0,0,1,0-2.646c1.53,0,5.456-3.617,6.6-8.366.808-3.356.444-6.063-1-7.427a4.055,4.055,0,0,0-2.856-1.007,8.126,8.126,0,0,0-2.307.369,1.287,1.287,0,0,1-.378.055,1.323,1.323,0,0,1-.379-2.591,10.772,10.772,0,0,1,3.071-.48,6.621,6.621,0,0,1,4.668,1.731c2.179,2.063,2.8,5.6,1.752,9.969C2522.646,815,2517.88,819.634,2514.858,819.634Z"/>
          </g>
          <g id="グループ_422" data-name="グループ 422">
            <path id="パス_615" data-name="パス 615" d="M2452.4,818.524a9.369,9.369,0,0,1-6.84-3.992c-2.332-3.229-4.62-8.316-4.045-12.912a5.622,5.622,0,0,1,3.985-4.558,7.262,7.262,0,0,1,2.363-.4,5.849,5.849,0,0,1,4.195,1.629,1.323,1.323,0,1,1-1.87,1.873,3.315,3.315,0,0,0-2.343-.849,4.571,4.571,0,0,0-1.485.25,3.045,3.045,0,0,0-2.218,2.383c-.48,3.834,1.526,8.214,3.563,11.034a7.041,7.041,0,0,0,4.556,2.9,1.322,1.322,0,0,1,2.118,1.057,1.551,1.551,0,0,1-1.131,1.468A2.8,2.8,0,0,1,2452.4,818.524Z"/>
          </g>
          <g id="グループ_423" data-name="グループ 423">
            <path id="パス_616" data-name="パス 616" d="M2512.3,797.253a1.33,1.33,0,0,1-.589-.139c-2.2-1.1-3.383-3.325-4.427-5.288l-.333-.622a32.622,32.622,0,0,1-3.515-10.8,40.421,40.421,0,0,0-1.041-4.63c-.09-.291-.186-.624-.307-1.049-.725-2.524-2.071-7.217-4.243-7.217a1.651,1.651,0,0,0-.232.017l-.166.014a1.324,1.324,0,0,1-.214-2.634,4.516,4.516,0,0,1,.637-.046c4.144,0,5.782,5.72,6.762,9.138l.041.144c.09.311.173.6.252.855a42.249,42.249,0,0,1,1.115,4.934,30.425,30.425,0,0,0,3.239,10.019l.339.635c.86,1.615,1.832,3.444,3.275,4.165a1.324,1.324,0,0,1-.593,2.508Z"/>
          </g>
          <g id="グループ_424" data-name="グループ 424">
            <path id="パス_617" data-name="パス 617" d="M2455.008,799.706a1.323,1.323,0,1,1,0-2.646c4.3,0,7.9-2.843,10.554-5.319,5.486-5.12,7.941-12.541,10.315-19.718l.465-1.4a19.48,19.48,0,0,1,3.382-6.8,9.4,9.4,0,0,1,6.975-3.13,9.562,9.562,0,0,1,4.312,1.03,1.324,1.324,0,0,1-1.181,2.369,6.946,6.946,0,0,0-3.126-.749,6.68,6.68,0,0,0-5.015,2.251,17.424,17.424,0,0,0-2.836,5.861l-.462,1.394c-2.481,7.493-5.046,15.24-11.022,20.818C2464.361,796.483,2460.237,799.706,2455.008,799.706Z"/>
          </g>
          <g id="グループ_425" data-name="グループ 425">
            <path id="パス_618" data-name="パス 618" d="M2517.347,826.691a1.323,1.323,0,0,1-.592-2.507c7.735-3.868,9.954-12.921,10.95-19.394,2.016-13.1-.048-28-5.66-40.88a49.627,49.627,0,0,0-5.369-9.924c-6.878-9.172-13.328-13.822-19.172-13.822q-.448,0-.893.037a6.413,6.413,0,0,0-1.851.555c-.344.14-.683.278-1.031.394a1.351,1.351,0,0,1-.414.065,1.323,1.323,0,0,1-.419-2.578c.293-.1.583-.217.88-.339a8.6,8.6,0,0,1,2.618-.735q.552-.047,1.112-.046c6.72,0,13.883,5.006,21.289,14.881a51.9,51.9,0,0,1,5.677,10.455c5.806,13.322,7.938,28.754,5.85,42.339-1.086,7.054-3.551,16.944-12.384,21.36A1.329,1.329,0,0,1,2517.347,826.691Z"/>
          </g>
          <g id="グループ_426" data-name="グループ 426">
            <path id="パス_619" data-name="パス 619" d="M2444.548,796.748a1.329,1.329,0,0,1-1.312-1.148,67.079,67.079,0,0,1-.112-12.453l.024-.471c1.023-19.149,8.649-34.5,20.924-42.119,4.846-3.008,9.631-4.533,14.222-4.533a20.543,20.543,0,0,1,2.423.143l.115.014c2.482.3,5.88.706,7.743,2.943a1.323,1.323,0,0,1-2.034,1.694c-1.19-1.43-3.987-1.764-6.03-2.008l-.112-.015a17.97,17.97,0,0,0-2.1-.124c-4.09,0-8.4,1.391-12.825,4.135-11.531,7.157-18.7,21.74-19.676,40.011l-.025.459a65.2,65.2,0,0,0,.093,11.974,1.324,1.324,0,0,1-1.141,1.487l-.158.011Z"/>
          </g>
          <g id="グループ_427" data-name="グループ 427">
            <path id="パス_620" data-name="パス 620" d="M2454.815,825.836a3.783,3.783,0,0,1-2.758-1.387c-.137-.137-.275-.274-.422-.4-2.052-1.709-2.929-4.345-3.7-6.671l-.05-.148a1.322,1.322,0,0,1,.837-1.675,1.319,1.319,0,0,1,1.674.838l.049.148c.663,1.992,1.415,4.248,2.888,5.475.208.173.4.363.593.553.545.542.679.618.892.618a1.323,1.323,0,1,1,0,2.647Z"/>
          </g>
          <g id="グループ_428" data-name="グループ 428">
            <path id="パス_621" data-name="パス 621" d="M2541.483,878.832a1.324,1.324,0,0,1-1.183-1.915c.767-1.537.232-4.145-.66-5.82-1.4-2.622-3.9-4.449-6.323-6.216-2.777-2.027-5.648-4.124-7.235-7.506a45.715,45.715,0,0,1-3.632-13.516,27.729,27.729,0,0,1-.076-4.678,25.656,25.656,0,0,0-.059-4.247c-.254-1.981-1.276-4.289-2.389-4.568a1.323,1.323,0,1,1,.645-2.567c2.847.711,4.087,4.606,4.371,6.8a27.589,27.589,0,0,1,.078,4.663,26,26,0,0,0,.057,4.265,43,43,0,0,0,3.4,12.727c1.3,2.768,3.775,4.577,6.4,6.492,2.661,1.942,5.412,3.949,7.1,7.11,1.2,2.244,1.924,5.782.692,8.247A1.312,1.312,0,0,1,2541.483,878.832Z"/>
          </g>
          <g id="グループ_429" data-name="グループ 429">
            <path id="パス_622" data-name="パス 622" d="M2531.06,877.241a1.323,1.323,0,0,1-.936-2.26c.077-.077.449-.573.124-2.678a8.741,8.741,0,0,0-3.823-5.654,1.323,1.323,0,0,1,.735-2.424,1.31,1.31,0,0,1,.736.224,11.458,11.458,0,0,1,4.969,7.45c.235,1.518.4,3.683-.869,4.953A1.307,1.307,0,0,1,2531.06,877.241Z"/>
          </g>
          <g id="グループ_430" data-name="グループ 430">
            <path id="パス_623" data-name="パス 623" d="M2487.974,907.238a1.324,1.324,0,0,1-1.136-.641,1.316,1.316,0,0,1-.149-1,24.506,24.506,0,0,1,2.326-5.313,37.714,37.714,0,0,0,2.853-6.364,51.473,51.473,0,0,0,1.4-6.421c.515-2.968,1-5.745,1.983-7.518a12.423,12.423,0,0,1,2.1-2.616c.33-.339.646-.664.946-1.014l.159-.184a46.7,46.7,0,0,0,6.793-9.365l.4-.785c.77-1.478,1.5-2.871,1.329-4.367a20.3,20.3,0,0,0-1.9-5.663,1.324,1.324,0,0,1,2.368-1.184,22.921,22.921,0,0,1,2.157,6.553c.255,2.294-.712,4.157-1.649,5.958l-.346.677a48.811,48.811,0,0,1-7.151,9.9l-.155.182c-.343.4-.7.768-1.059,1.136a10.089,10.089,0,0,0-1.683,2.057c-.768,1.38-1.215,3.947-1.688,6.664a53.045,53.045,0,0,1-1.482,6.789,39.809,39.809,0,0,1-3.048,6.821,22.347,22.347,0,0,0-2.087,4.7A1.322,1.322,0,0,1,2487.974,907.238Z"/>
          </g>
          <g id="グループ_431" data-name="グループ 431">
            <path id="パス_624" data-name="パス 624" d="M2487.529,974.961a1.325,1.325,0,0,1-1.323-1.324c0-4.547-.561-58.821-1.039-63a19.322,19.322,0,0,0-1.467-4.893,24.394,24.394,0,0,1-1.517-4.736c-.236-1.294-.392-2.609-.531-3.769-.365-3.073-.706-5.939-2.216-8.637-1.877-3.352-4.791-6.241-7.61-9.036-4.533-4.491-9.219-9.134-10.32-16.106-.438-2.779,1.819-6.162,2.078-6.538a1.324,1.324,0,1,1,2.18,1.5c-.747,1.081-1.853,3.293-1.644,4.623.966,6.111,5.144,10.252,9.567,14.637,2.948,2.921,6,5.941,8.058,9.625,1.769,3.157,2.156,6.423,2.53,9.581.148,1.227.294,2.447.512,3.644a22.394,22.394,0,0,0,1.369,4.223,21.513,21.513,0,0,1,1.641,5.578c.506,4.423,1.056,59.123,1.056,63.3A1.326,1.326,0,0,1,2487.529,974.961Z"/>
          </g>
          <g id="グループ_432" data-name="グループ 432">
            <path id="パス_625" data-name="パス 625" d="M2495.046,897.66a1.327,1.327,0,0,1-.723-.214,1.325,1.325,0,0,1-.385-1.833,17.43,17.43,0,0,0,1.532-4.2c.94-3.323,1.912-6.751,4.658-7.928a2.783,2.783,0,0,1,1.1-.217c2.369,0,5.566,2.738,8.659,5.387.74.635,2.672,2.289,3.794,3.058-.091-1.2-.317-4.553-.591-8.64l-.063-.919c-.212-3.179-.434-6.5-.6-8.954a36.764,36.764,0,0,0-3.061-11.947c-.185-.461-.365-.908-.534-1.345-.774-1.991-1.563-3.327-3.1-3.839a1.323,1.323,0,1,1,.837-2.51c2.791.928,3.905,3.269,4.729,5.389.167.427.342.865.527,1.323a39.035,39.035,0,0,1,3.242,12.747c.143,2.059.607,8.959.607,8.959.331,4.95.633,9.433.679,9.9.129,1.323-.221,2.211-1.041,2.639a1.933,1.933,0,0,1-.9.217c-1.43,0-3.123-1.393-6.238-4.062-1.942-1.664-5.557-4.762-6.9-4.762-1.686.693-2.481,3.506-3.25,6.226a18.889,18.889,0,0,1-1.864,4.929A1.318,1.318,0,0,1,2495.046,897.66Z"/>
          </g>
          <g id="グループ_433" data-name="グループ 433">
            <path id="パス_626" data-name="パス 626" d="M2486.545,914.095c-1.2,0-1.5-1.181-1.633-1.686-.013-.05-.026-.107-.038-.157-.27-.453-.522-.923-.786-1.414a16.422,16.422,0,0,0-1.614-2.613c-1.073-1.31-2.048-4.484-3.177-8.16-1.4-4.554-3.318-10.792-5.289-12.162a1.272,1.272,0,0,0-.7-.158c-1.851,0-5.231,1.794-7.947,3.235-3.166,1.68-5.354,2.78-6.9,2.78a2.46,2.46,0,0,1-1.428-.41,2.569,2.569,0,0,1-.934-2.66,54.389,54.389,0,0,0,.391-8.352,34.354,34.354,0,0,1,.267-5.859c.325-2.221.614-4.292.894-6.3l.049-.353c.266-1.914.525-3.779.8-5.673.793-5.428,2.061-8.629,3.768-9.512.692-.357,2.1-1.015,2.1-1.015l.724-.338,1.121,2.4-.725.338c-.069.033-1.365.637-2.008.969-.445.23-1.609,2.377-2.365,7.544-.258,1.769-.5,3.512-.751,5.294l-.072.515c-.288,2.079-.586,4.217-.922,6.518a31.941,31.941,0,0,0-.238,5.467,56.726,56.726,0,0,1-.414,8.688l-.008.079a28.865,28.865,0,0,0,5.4-2.453c3.278-1.741,6.669-3.54,9.192-3.54a3.8,3.8,0,0,1,2.207.626c2.721,1.891,4.627,8.087,6.308,13.554.916,2.982,1.952,6.357,2.7,7.267a18.341,18.341,0,0,1,1.9,3.031c.252.472.5.934.764,1.376a2.907,2.907,0,0,1,.3.814l.023.089a1.323,1.323,0,0,1-.959,2.235Z"/>
          </g>
          <g id="グループ_434" data-name="グループ 434">
            <path id="パス_627" data-name="パス 627" d="M2548.148,971.031a1.324,1.324,0,0,1-1.323-1.322c0-4.6.071-9.427.126-13.308.062-4.341.125-8.83.125-13.273,0-.881-.011-3.076-.011-3.076-.046-8.5-.095-17.285,3.24-25.624a1.332,1.332,0,0,1,1.23-.834,1.3,1.3,0,0,1,.492.1,1.324,1.324,0,0,1,.736,1.72c-3.144,7.86-3.1,16-3.051,24.626q.009,1.543.011,3.092c0,4.464-.064,8.961-.125,13.31l0,.345c-.06,4.238-.121,8.621-.121,12.926A1.325,1.325,0,0,1,2548.148,971.031Z"/>
          </g>
          <g id="グループ_435" data-name="グループ 435">
            <path id="パス_628" data-name="パス 628" d="M2430.046,974.273a1.323,1.323,0,0,1-1.323-1.322c0-10.768-.518-21.481-1.63-33.716-.128-1.417-.214-2.888-.288-4.186a57.578,57.578,0,0,0-1.063-9.427,18.78,18.78,0,0,0-2.294-5.014,23.235,23.235,0,0,1-2.453-5.2,1.306,1.306,0,0,1,.116-1.007,1.321,1.321,0,0,1,.795-.63,1.355,1.355,0,0,1,.362-.05,1.313,1.313,0,0,1,1.272.96,21.181,21.181,0,0,0,2.19,4.588,21.021,21.021,0,0,1,2.591,5.759,59.243,59.243,0,0,1,1.124,9.841c.079,1.369.16,2.778.284,4.127,1.119,12.3,1.64,23.093,1.64,33.956A1.324,1.324,0,0,1,2430.046,974.273Z"/>
          </g>
          <g id="グループ_436" data-name="グループ 436">
            <path id="パス_629" data-name="パス 629" d="M2505.432,792.905a1.312,1.312,0,0,1-.934-.386,9.474,9.474,0,0,0-6.321-2.459,5.36,5.36,0,0,0-3.331.985,1.323,1.323,0,0,1-1.858-.23,1.326,1.326,0,0,1,.229-1.857,7.989,7.989,0,0,1,4.97-1.546,12.1,12.1,0,0,1,8.18,3.232,1.324,1.324,0,0,1-.935,2.261Z"/>
          </g>
          <g id="グループ_437" data-name="グループ 437">
            <path id="パス_630" data-name="パス 630" d="M2470.523,791.775a5.584,5.584,0,0,1-1.076-.265c-.085-.027-.166-.053-.244-.074a1.323,1.323,0,1,1,.694-2.554c.127.034.269.078.416.126a3.13,3.13,0,0,0,.5.137,1.323,1.323,0,0,1-.161,2.637Z"/>
          </g>
          <g id="グループ_438" data-name="グループ 438">
            <path id="パス_631" data-name="パス 631" d="M2491.765,760.157a1.328,1.328,0,0,1-.915-.5,1.311,1.311,0,0,1-.271-.975,28.238,28.238,0,0,0-1.7-14.4,1.323,1.323,0,1,1,2.416-1.08c1.911,4.273,2.608,10.032,1.913,15.8a1.324,1.324,0,0,1-1.313,1.164Z"/>
          </g>
          <g id="グループ_439" data-name="グループ 439">
            <path id="パス_632" data-name="パス 632" d="M2483,836.841a7.472,7.472,0,0,1-2.782-.577,1.323,1.323,0,0,1,.5-2.551,1.312,1.312,0,0,1,.491.095,4.766,4.766,0,0,0,1.792.386,4.039,4.039,0,0,0,2.437-.884c1.722-1.267,3.241-3.953,3.187-5.635a1.119,1.119,0,0,0-.476-1.035c-.879-.566-3.866-1.2-6.747-1.2a12.787,12.787,0,0,0-2.935.291,2.366,2.366,0,0,0-1.367.653,8.326,8.326,0,0,0,1.848,5.715,1.323,1.323,0,1,1-2,1.736c-2.231-2.567-3.1-7.12-2.142-8.776a4.524,4.524,0,0,1,3.038-1.9,15.738,15.738,0,0,1,3.6-.367c3.258,0,6.679.679,8.136,1.616a3.724,3.724,0,0,1,1.69,3.178c.08,2.541-1.833,6.062-4.264,7.851A6.682,6.682,0,0,1,2483,836.841Z"/>
          </g>
          <g id="グループ_440" data-name="グループ 440">
            <path id="パス_633" data-name="パス 633" d="M2399.394,950.27a1.325,1.325,0,0,1-1.268-.945c-.16-.514-3.939-12.672-6.263-17.612a1.327,1.327,0,0,1,.635-1.762,1.311,1.311,0,0,1,.563-.125,1.328,1.328,0,0,1,1.2.76c2.3,4.881,5.735,15.824,6.4,17.969a1.328,1.328,0,0,1-.875,1.656A1.311,1.311,0,0,1,2399.394,950.27Z"/>
          </g>
          <g id="グループ_441" data-name="グループ 441">
            <path id="パス_634" data-name="パス 634" d="M2390.845,927.493a1.32,1.32,0,0,1-1.124-.623c-2.074-3.344-3.057-7.08-4.008-10.692-.9-3.424-1.829-6.951-3.679-9.933a18.631,18.631,0,0,0-4.91-4.62,24.876,24.876,0,0,1-5.01-4.489c-.844-1.092-1.577-2.251-2.287-3.372a34.891,34.891,0,0,0-2.62-3.772l-.094-.113c-.51-.615-.852-.938-1.015-.961-.4.152-.835.3-.473,3.021a19.829,19.829,0,0,0,1.411,4.9c.213.554.406,1.057.607,1.6.163.449.581,1.267.95,1.989,1.054,2.068,2.249,4.41,2.132,5.989a2.5,2.5,0,0,1-1.138,1.908,7.151,7.151,0,0,1-3.829.879,12.288,12.288,0,0,1-3.125-.365,1.323,1.323,0,0,1-.892-1.645,1.324,1.324,0,0,1,1.647-.892,9.7,9.7,0,0,0,2.355.25,4.754,4.754,0,0,0,2.34-.406l0,0c-.014-.91-1.215-3.264-1.869-4.547a23.08,23.08,0,0,1-1.064-2.253c-.2-.558-.4-1.068-.59-1.56a22.125,22.125,0,0,1-1.561-5.5c-.391-2.913-.152-5.028,2.277-5.88a2.555,2.555,0,0,1,.842-.145c1.431,0,2.431,1.2,3.028,1.923l.087.1a36.483,36.483,0,0,1,2.8,4.015c.691,1.093,1.394,2.206,2.169,3.209a22.972,22.972,0,0,0,4.5,3.987,20.791,20.791,0,0,1,5.575,5.345c2.062,3.325,3.041,7.048,3.988,10.649.9,3.426,1.833,6.969,3.7,9.975a1.323,1.323,0,0,1-1.124,2.02Z"/>
          </g>
          <g id="グループ_442" data-name="グループ 442">
            <path id="パス_635" data-name="パス 635" d="M2357.944,907.971a1.323,1.323,0,0,1-.371-.053c-6.517-1.937-10.761-3.878-15.892-9.113a31.971,31.971,0,0,1-2.791-3.647c-2.764-3.946-3.823-4.894-4.219-4.97-.435.1-.624.205-.445,1.492.018.14.031.238.038.321.233,2.523,2.3,6.865,4.422,9.286a1.324,1.324,0,1,1-1.992,1.744c-2.465-2.813-4.787-7.757-5.067-10.794l-.03-.245c-.431-3.088,1.169-4.1,2.587-4.407a2.291,2.291,0,0,1,.484-.052c2.107,0,4.091,2.827,6.387,6.1a31.065,31.065,0,0,0,2.516,3.318c4.725,4.821,8.674,6.62,14.751,8.426a1.324,1.324,0,0,1-.378,2.593Z"/>
          </g>
          <g id="グループ_443" data-name="グループ 443">
            <path id="パス_636" data-name="パス 636" d="M2376.91,958.82a1.315,1.315,0,0,1-1.306-1.116,112.9,112.9,0,0,0-4.557-15.553c-2.331-6.023-3.233-7.628-12.457-12.428-.928-.483-1.86-.952-2.794-1.425l-.165-.083c-5.018-2.531-10.2-5.148-14.347-9.36a13.124,13.124,0,0,1-2.544-4.419c-.27-.656-.518-1.258-.8-1.809-.317-.621-.714-1.254-1.136-1.925a17.72,17.72,0,0,1-1.944-3.715,4.426,4.426,0,0,1,.1-3.156,2.052,2.052,0,0,1,1.344-1.026,3.954,3.954,0,0,1,.922-.108c2.178,0,4.388,1.732,5.73,3.353.937,1.132,1.762,2.339,2.559,3.507,1.75,2.561,3.4,4.979,5.807,5.9a1.324,1.324,0,0,1-.475,2.559,1.344,1.344,0,0,1-.468-.085c-3.184-1.223-5.071-3.986-7.069-6.913-.768-1.123-1.547-2.262-2.392-3.283-.686-.825-2.331-2.384-3.667-2.394a2.93,2.93,0,0,0,.12.815,15.887,15.887,0,0,0,1.686,3.157c.445.71.881,1.41,1.238,2.106.339.665.631,1.376.889,2a11.183,11.183,0,0,0,1.985,3.574c3.84,3.9,8.608,6.309,13.657,8.855,1,.5,1.993,1.005,2.983,1.521,10.046,5.228,11.133,7.18,13.7,13.819a116.378,116.378,0,0,1,4.7,16.1,1.327,1.327,0,0,1-1.1,1.515l-.19.016Z"/>
          </g>
          <g id="グループ_444" data-name="グループ 444">
            <path id="パス_637" data-name="パス 637" d="M2350.736,912.2a27.59,27.59,0,0,1-9.867-4.515,1.324,1.324,0,0,1,1.71-2.022,24.62,24.62,0,0,0,8.6,3.93,1.323,1.323,0,0,1-.245,2.623Z"/>
          </g>
          <g id="グループ_445" data-name="グループ 445">
            <path id="パス_638" data-name="パス 638" d="M2342.058,919.283a1.323,1.323,0,0,1-.844-.3,18.277,18.277,0,0,0-3.158-1.645c-.814-.367-1.582-.713-2.137-1.03a11.968,11.968,0,0,1-4.374-4.746c-.39-.683-.816-1.394-1.26-2.132-1.871-3.113-3.978-6.618-4.521-10.117-.416-2.69.752-3.554,1.485-3.83a2.535,2.535,0,0,1,.891-.155c1.889,0,4.17,1.95,5.024,3.3a37.158,37.158,0,0,0,2.435,3.08c.591.7,1.142,1.36,1.51,1.842a1.327,1.327,0,0,1-.252,1.856,1.322,1.322,0,0,1-1.854-.253c-.33-.432-.818-1.013-1.381-1.684a38.677,38.677,0,0,1-2.7-3.426,5.566,5.566,0,0,0-2.6-2.04,3.588,3.588,0,0,0,.052.905c.464,2.989,2.439,6.275,4.182,9.175.482.8.9,1.5,1.283,2.17a9.466,9.466,0,0,0,3.385,3.757c.456.26,1.23.609,1.913.916a18.349,18.349,0,0,1,3.759,2.021,1.323,1.323,0,0,1-.845,2.341Z"/>
          </g>
          <g id="グループ_446" data-name="グループ 446">
            <path id="パス_639" data-name="パス 639" d="M2326.892,899.2a1.319,1.319,0,0,1-1.319-1.2,7.042,7.042,0,0,0-.933-1.906c-.795-1.325-1.693-2.822-1.527-4.383a2.672,2.672,0,0,1,1.206-2.023,2.546,2.546,0,0,1,1.365-.373,3.707,3.707,0,0,1,1.282.248,18.165,18.165,0,0,1,5.767,4.9,1.323,1.323,0,1,1-2.249,1.4,17.115,17.115,0,0,0-4.439-3.811,1.371,1.371,0,0,0-.3-.079l-.005.03a6.106,6.106,0,0,0,1.166,2.736,7.7,7.7,0,0,1,1.3,3.025,1.325,1.325,0,0,1-1.2,1.439l-.111.005Z"/>
          </g>
          <g id="グループ_447" data-name="グループ 447">
            <path id="パス_640" data-name="パス 640" d="M2379.633,959.8a7.518,7.518,0,0,1-3.684-.766,3.116,3.116,0,0,1-1.6-2.069,1.326,1.326,0,0,1,1-1.583,1.362,1.362,0,0,1,.291-.032,1.313,1.313,0,0,1,1.291,1.034c.02.094.076.209.322.349a5.267,5.267,0,0,0,2.383.413,23.554,23.554,0,0,0,6.883-1.266c5.407-1.768,9.417-3.8,12.705-8.485a1.323,1.323,0,0,1,2.388.532,1.311,1.311,0,0,1-.223.991c-3.707,5.278-8.123,7.541-14.047,9.478A26.359,26.359,0,0,1,2379.633,959.8Z"/>
          </g>
          <g id="グループ_448" data-name="グループ 448">
            <path id="パス_641" data-name="パス 641" d="M2408.575,975.469a1.327,1.327,0,0,1-1.21-.784,94.37,94.37,0,0,1-2.7-9.687c-1.269-5.047-3.185-12.665-4.152-14.115a1.324,1.324,0,0,1,2.2-1.468c1.217,1.828,2.819,8.2,4.516,14.938,1.049,4.17,2.032,8.079,2.555,9.255a1.324,1.324,0,0,1-1.209,1.861Z"/>
          </g>
          <g id="グループ_449" data-name="グループ 449">
            <path id="パス_642" data-name="パス 642" d="M2377.227,975.1a1.317,1.317,0,0,1-1.292-1.036c-.43-1.934-1.367-12.611-1.425-14.626a1.336,1.336,0,0,1,1.3-1.362,1.358,1.358,0,0,1,1.341,1.283c.055,1.912.967,12.344,1.364,14.13a1.329,1.329,0,0,1-1.007,1.579A1.279,1.279,0,0,1,2377.227,975.1Z"/>
          </g>
          <g id="グループ_450" data-name="グループ 450">
            <path id="パス_643" data-name="パス 643" d="M2369.839,924.578a1.312,1.312,0,0,1-.826-.288,22.236,22.236,0,0,0-13.693-4.665,1.323,1.323,0,1,1,0-2.646,24.944,24.944,0,0,1,15.346,5.242,1.323,1.323,0,0,1-.827,2.357Z"/>
          </g>
          <g id="グループ_451" data-name="グループ 451">
            <path id="パス_644" data-name="パス 644" d="M2456.986,785.47l-.262-1.268.662-.229a15.61,15.61,0,0,0,4.462-2.091c4.192-3.125,6.221-7.488,8.369-12.108a57.418,57.418,0,0,1,4.126-7.784,12.307,12.307,0,0,1,7.226-4.927,7.649,7.649,0,0,1,1.8-.23,3.4,3.4,0,0,1,1.9.467,1.323,1.323,0,1,1-1.469,2.2l-.005,0a3.92,3.92,0,0,0-.411-.024,4.929,4.929,0,0,0-1.155.146,9.665,9.665,0,0,0-5.691,3.834,55.481,55.481,0,0,0-3.927,7.429c-2.192,4.716-4.459,9.591-9.188,13.117a17.946,17.946,0,0,1-5.243,2.491l-.756.264Z"/>
          </g>
          <g id="グループ_452" data-name="グループ 452">
            <path id="パス_645" data-name="パス 645" d="M2505.34,766.512a1.331,1.331,0,0,1-1.14-.649,5.533,5.533,0,0,0-4.058-2.41,6.8,6.8,0,0,0-.931-.065,5.113,5.113,0,0,0-3.511,1.243,1.316,1.316,0,0,1-.912.365,1.333,1.333,0,0,1-.96-.413,1.324,1.324,0,0,1,.05-1.872,7.777,7.777,0,0,1,5.337-1.97,9.38,9.38,0,0,1,1.293.09,8.186,8.186,0,0,1,5.971,3.684,1.323,1.323,0,0,1-1.139,2Z"/>
          </g>
        </g>
      </g>
    </g>
  </g>
</svg>
