<svg xmlns="http://www.w3.org/2000/svg" xmlns:xlink="http://www.w3.org/1999/xlink" width="300" height="220" viewBox="0 0 300 220">
  <defs>
    <clipPath id="clip-path">
      <path id="パス_457" data-name="パス 457" d="M1930,423h300V643H1930Z" fill="none"/>
    </clipPath>
  </defs>
  <g id="グループ_352" data-name="グループ 352" transform="translate(-1930 -423)">
    <g id="グループ_351" data-name="グループ 351" clip-path="url(#clip-path)">
      <g id="グループ_350" data-name="グループ 350">
        <g id="グループ_287" data-name="グループ 287">
          <path id="パス_389" data-name="パス 389" d="M2056.3,555.5c-.537-7.3-2.24-23.084-2.24-23.084a53.572,53.572,0,0,1-3.781-8.69c-1.134-3.784-2.962-12.345-2.962-12.345a6.912,6.912,0,0,1-4.851-1.954c-1.575-1.762-6.275-7.39-4.344-12.789,1.419-3.99,6.046-3.469,6.046-3.469s3.444-5.943,4.094-7.334c6.2-13.274,13.694-30.071,31.26-30.071,4.422,0,5.753.3,9.229,1.786,4.256,1.825,8.268,3.5,11.613,6.847,7.193,7.2,6.218,16.605,10.418,25.01,1.166,2.332,6.029,7.859,6.029,7.859a5.824,5.824,0,0,1,4.409,5.479c.261,3.665-2.322,7.443-4.767,9.638a14.334,14.334,0,0,1-5.628,3.215,92.357,92.357,0,0,1-3.024,9.075c-1.074,2.553-5.167,10.011-5.167,10.011l-1.072,9.962s1.2,8.071-3.578,13.537c-1.077,1.222-2.687,3.29-4.17,4.16-7.994,4.705-20.61,3.841-28.879.3C2062.151,561.454,2056.53,558.641,2056.3,555.5Z" fill="#fde1d3" fill-rule="evenodd"/>
          <path id="パス_390" data-name="パス 390" d="M1955.907,660.81s3.877-22.785,5.2-27.612c3.81-13.906,7.129-29.811,11.985-43.413a61.325,61.325,0,0,1,12.1-19.979c3.773-4.342,8.713-5.184,14-6.687a303.1,303.1,0,0,0,30.684-10.543c6.117-2.638,18.395-8.2,18.395-8.2s3.591-10.277,5.6-8.942c1.023.68,1.1,2.546,1.316,4.943.253,2.781.562,6.1.562,6.1a30.769,30.769,0,0,0,3.977,4.905c4.772,3.839,11.681,4.853,15.044,8.334a16.712,16.712,0,0,1,3.852,6.151l4.882-1.016a22.223,22.223,0,0,1,2.93-5.546c1.73-2.076,6.612-5.454,9.879-8.382a27.91,27.91,0,0,0,5.16-6.7s.7-8.457,1.563-8.629c1.854-.378,4.574,6.959,4.574,6.959s5.873,3.089,7.24,4.047c1.825,1.277,19.248,7.1,22.681,8.616,4.489,1.974,12.235,4.018,19.471,5.715,5.908,1.38,11.425,2.358,14.958,4.24,6.924,3.7,6.014,3.669,10.667,10.318,4.067,5.811,5.89,11.927,7.943,18.581,2.6,8.426,5.064,19.093,6.491,26.5,1.84,9.572,4.1,21.527,5.749,31.155.5,2.938,1.039,10.275,1.039,10.275s-18.827,9.483-48.472,14.15-57.006,5.1-70.117,4.5c-15.832-.729-30.676.673-46.4-1.176-6.668-.787-30.255-3.98-49.154-8.208C1968.431,666.506,1955.907,660.81,1955.907,660.81Z" fill="#fff" fill-rule="evenodd"/>
          <path id="パス_391" data-name="パス 391" d="M2024.218,637.965s.883-5.247,1.946-8.918c1.5-5.2,5.728-14.457,6.007-18.934.373-6.021-1.07-12.827-1.653-15.625-.34-1.621-1.465-3.617-1.359-6.446a16.217,16.217,0,0,1,1.662-5.573c2.153-4.216,6.719-8.736,9.534-13.075,1.173-1.8,4.6-7.876,2.616-10.193-1.72-2.013-4.7,2.607-5.725,3.447-2.005,1.65-3.882,3.436-5.35,4.566a15.953,15.953,0,0,0-4.639,4.525c-1.168,1.757-6.318,9.038-6.318,9.038s-2.373-2.123-3.572-8.106c-.23-1.14-1.477-5.6.039-9.439,1.445-3.664,5.985-9.579,7.324-12.862.708-1.74,2.741-8.133.954-9.149s-3.736.509-3.975.77c-1.093,1.206-3.061,4.6-4.955,7.173a60.42,60.42,0,0,1-4.439,5.363s-.933-3.049-2.241-3.319c-.743-.156-1.656-.225-2.383,1.477-.33.774-.552,3.885-.982,6.342-1.173,6.686-.341,12.169-1.144,12.415-.584.179-4.788-8.425-5.237-9.905-1.224-4.011-1.953-6.258-.9-12.345.348-2.022,2.019-14.075-.432-16.121-4.588-3.821-5.77,9.26-6.366,11.444-.249.91-1.856,6.565-1.856,6.565s-.952-6.094-1.128-7.1a41.576,41.576,0,0,0-2.189-8.123c-.931-2.023-3.772-3.592-4.609-2.122-.746,1.3.1,6,.33,8.756s.328,11.018,1.837,15.985a18.953,18.953,0,0,0,3.9,7.211,87.225,87.225,0,0,1,7.394,10.351c4.087,7.151,6.945,17.3,7.96,25.419.587,4.706,1.775,10.774,1.3,15.521-.526,5.247-1.049,9.051-1.049,9.051s4.634,5.7,7.558,9.967a24.948,24.948,0,0,1,3.9,7.817,40.53,40.53,0,0,1,4.358-3.521A42.472,42.472,0,0,1,2024.218,637.965Z" fill="#fde1d3" fill-rule="evenodd"/>
          <path id="パス_392" data-name="パス 392" d="M2151.812,628.97a32.376,32.376,0,0,0-5.023-1.984s-1.517-3.722-1.675-4.233c-.55-1.8-1.156-3.449-1.641-5.262a52.336,52.336,0,0,1-1.359-9.456c-.173-3.557.856-4.9,1.31-8.073.428-3.005.242-7.866,1.082-10.467,1.678-5.233,5.372-11.847,4.851-13.723-.847-3.048-3.587-7.96-4.93-11.452-1.4-3.644-3.025-7.634-1.188-10.951.3-.531,1.994-.327,2.41.119a19.523,19.523,0,0,1,4.087,7.072c.229.656.971,1.781,1.237,2.42.054.133.164-7.252.83-10.177.8-3.521,3.4-1.728,4.7.111a19.961,19.961,0,0,1,1.606,4.019c1.165,5.116-.572,10.578-.572,15.627a12.441,12.441,0,0,0,1.146,5.469,1.422,1.422,0,0,0,2.138.343c1.315-.877,1.806-5.149,1.951-6.49.985-9.121-2.829-20.735-.841-30.01.517-2.432.49-2.936,2.333-4.59.512-.459,2.443.193,3.016,1.187s.724,6.57,1.035,8.214c1.2,6.291,2.175,13.65,2.711,17.929.323,2.562.994,6.8.994,6.8a15.611,15.611,0,0,0,3.405-5.312,64.293,64.293,0,0,0,2.51-10.563c.849-5.716,1.408-12.756,2.5-17.113.414-1.664,2.6-6.569,4.546-7.682,1.331-.764,2.23-.106,2.682,1.569.667,2.44-.424,11.235-.424,11.235s1.869-4.477,2.4-5.242c1.178-1.682,2.631-3.137,4.168-2.364,1.035.525.968,1.186.584,4.579-.18,1.641-.241,4.465-.663,7.174-.623,4-.468,10.044-2.007,13.9-1.8,4.5-4.21,7.839-6.812,11.611a46.41,46.41,0,0,0-3.524,5.24c-1.726,3.248-3.364,7.323-4.917,9.656-2.659,4-6.743,10.053-8.577,14.638-2.043,5.112-1.87,5.814-2.182,11.331-.183,3.174,1.842,9.227,1.842,9.227s-1.62,3.48-2.262,5.266l-1.771,3.353-1.057,4.394s-3.934-4.894-6.01-5.126C2155.994,631.133,2153.588,629.829,2151.812,628.97Z" fill="#fde1d3" fill-rule="evenodd"/>
          <path id="パス_393" data-name="パス 393" d="M2042.211,493.264s-1.721-9.662-2.047-12.172c-.876-6.815-1.21-12.34.9-18.9a44.381,44.381,0,0,1,4.367-8.474c3.087-4.627,6.768-10.958,11.577-14.647,3.185-2.441,7.07-3.02,10.859-3.707,4.158-.758,7.936,1.158,12.092.584,2.41-.332,7.985-3.249,10.4-3.49,6.737-.669,10.815-.3,16.329,3.9,4.353,3.314,8.235,9.519,11.015,15.021,2.626,5.2,5.921,10.931,6.787,16.315.811,5.034-.562,10.737-1.416,15.437-.647,3.54-4.185,14.466-4.185,14.466a18.559,18.559,0,0,1-10.46-7.844c-1.824-3-4.552-7-7.028-11.216s-5.018-9.991-7.322-12.491c-4.007-4.337-11.309-1.845-16.967-2.44-3.247-.339-8.282-2.17-11.332-.814-5.514,2.454-8.217,10.87-10.515,16.149-1.128,2.6-2.263,5.592-3.735,8.447a30.986,30.986,0,0,1-2.019,3.41C2046.958,494.515,2042.211,493.264,2042.211,493.264Z" fill="#b0916f" fill-rule="evenodd"/>
          <path id="パス_394" data-name="パス 394" d="M2085.685,529.45a14.3,14.3,0,0,0-7.691-2.86c-1.995-.014-4.069.9-6.042,1.589-1.062.371-4.253,4.426-1.27,5.91,3.314,1.661,4.155-1.46,7.7-.752,1.261.255,5.224,2.389,6.629,1.828A3.2,3.2,0,0,0,2085.685,529.45Z" fill="#f2c6c3" fill-rule="evenodd"/>
          <path id="パス_395" data-name="パス 395" d="M2069.065,561.982l8.327,4.271,8-1.589,4.764-2.682,4.709,5.365-7.447,2.521-.6,7.5a38.986,38.986,0,0,0,2.4,9.005c1.828,4.187,5.776,11.835,6.389,14.051,1.093,3.941,3.994,14.235,4.528,22.711.614,9.8,2.3,20.606,2.3,30.4,0,6.738-.219,27.178-.219,27.178s-6.337.388-16.189-.034c-7.934-.153-15.818-.881-15.818-.881s.936-4.911,1.039-5.908c.488-4.522,1.067-9.093,1.312-13.634.627-11.654,1.52-20.434,1.3-31.715-.15-7.564-1.547-17.585-1.062-25.391.371-5.909,1.409-9.551,2.573-15.368.413-2.066,1.868-9.538,1.868-9.538l-3.448-8.162a20.208,20.208,0,0,1-5.371-1.535c-1.072-.594-3.34-1.694-3.34-1.694Z" fill="#f3746e" fill-rule="evenodd"/>
        </g>
        <g id="グループ_349" data-name="グループ 349">
          <g id="グループ_288" data-name="グループ 288">
            <path id="パス_396" data-name="パス 396" d="M2024.3,638.774a1.351,1.351,0,0,1-.21-.014,1.318,1.318,0,0,1-1.094-1.516,65.484,65.484,0,0,1,4.787-16.352c1.512-3.679,2.817-6.854,3.112-11.615.351-5.771-1.006-11.529-2-15.733-.781-3.311-1.342-5.692-.954-7.219,1.407-5.619,4.672-9.5,8.129-13.608,0,0,1.087-1.295,1.6-1.913,2.663-3.242,5.379-9.186,4.4-10.6a.83.83,0,0,0-.251-.272c-.442.009-1.9,1.519-2.961,2.621-.635.67-1.331,1.387-2.1,2.132-1.878,1.8-3.412,3.135-4.644,4.2L2032,569a34.745,34.745,0,0,0-2.669,2.45,36.907,36.907,0,0,0-3.523,4.989c-.563.9-1.1,1.744-1.608,2.486l-.168.239c-1.79,2.606-4.056,5.769-5.685,7.061a1.3,1.3,0,0,1-.817.284,1.314,1.314,0,0,1-1.312-1.473,1.3,1.3,0,0,1,.5-.883c1.516-1.2,4.15-5.036,5.142-6.481l.167-.244c.5-.721,1.021-1.55,1.523-2.353a38.762,38.762,0,0,1,3.846-5.413,37.84,37.84,0,0,1,2.937-2.708l.209-.182c1.18-1.025,2.647-2.3,4.4-3.987.677-.655,1.3-1.3,1.869-1.892l.157-.161c1.913-1.99,3.3-3.43,4.893-3.43.076,0,.149,0,.223.009a2.9,2.9,0,0,1,2.163,1.4c2.561,3.682-3.279,12.235-4.535,13.767-.321.393-.646.781-.97,1.167l-.645.769c-3.257,3.872-6.333,7.53-7.591,12.552-.231.921.376,3.488.962,5.97,1.031,4.369,2.443,10.346,2.063,16.506-.314,5.171-1.695,8.532-3.294,12.423a63.472,63.472,0,0,0-4.633,15.8A1.309,1.309,0,0,1,2024.3,638.774Z"/>
          </g>
          <g id="グループ_289" data-name="グループ 289">
            <path id="パス_397" data-name="パス 397" d="M2006.927,582.7a1.357,1.357,0,0,1-.493-.1,1.318,1.318,0,0,1-.727-1.725c1.051-2.577.81-6.956.6-10.819a34.68,34.68,0,0,1,.107-8.174c.715-3.342,2.55-5.4,4.874-8,1.114-1.249,2.372-2.659,3.639-4.38.635-.855,1.281-1.821,2.06-3,2.525-3.784,4.7-7.052,7.078-7.052.077,0,.152,0,.228.01a3.562,3.562,0,0,1,2.794,1.647c1.029,1.6.954,4.213-.219,7.558-.947,2.7-3.073,6.033-4.95,8.97a45.1,45.1,0,0,0-2.92,4.954,13.056,13.056,0,0,0-.8,7.51l.285,1.591c.585,3.385,1.189,6.882,3.194,7.62a1.321,1.321,0,0,1-.46,2.559,1.3,1.3,0,0,1-.457-.082c-3.424-1.271-4.161-5.52-4.873-9.629-.113-.638-.2-1.111-.281-1.573a15.659,15.659,0,0,1,.968-9.029,43.32,43.32,0,0,1,3.1-5.3c1.823-2.854,3.865-6.051,4.7-8.456,1.233-3.522.752-4.856.487-5.266a.982.982,0,0,0-.817-.442c-.951,0-3.566,3.926-4.682,5.6l-.183.275c-.674,1.01-1.438,2.156-2.139,3.1a58.746,58.746,0,0,1-3.79,4.566c-2.145,2.4-3.694,4.14-4.267,6.8a33.5,33.5,0,0,0-.054,7.39c.243,4.392.493,8.9-.787,12.052A1.3,1.3,0,0,1,2006.927,582.7Z"/>
          </g>
          <g id="グループ_290" data-name="グループ 290">
            <path id="パス_398" data-name="パス 398" d="M2004.449,626.888a1.342,1.342,0,0,1-1.156-1.531,62.394,62.394,0,0,0,.249-20.192,146.208,146.208,0,0,0-7.263-26.855,93.623,93.623,0,0,0-5.317-11.274l-.252-.477c-1.6-3.053-3-7.717-2.1-11.654,1.353-5.941,2.443-10.19,4.316-16.837.042-.145.082-.3.126-.473l.1-.385c.516-2.049,1.221-4.851,3.038-5.807a2.826,2.826,0,0,1,1.31-.32,3.162,3.162,0,0,1,1.093.2c4.209,1.568,2.892,13.176,2.878,13.292l-.334,2.254a74.9,74.9,0,0,0-.966,8.567c-.023,2.266,1.15,4.975,2.093,7.152l.184.429c1.957,4.542,4.792,9.334,6.067,10.256a1.319,1.319,0,0,1-1.538,2.143c-2.182-1.584-5.419-7.807-6.949-11.357l-.178-.414c-1.044-2.411-2.344-5.411-2.32-8.236a76.277,76.277,0,0,1,1.009-9.005l.079-.527c.088-.584.171-1.129.236-1.617.529-3.763-.012-10.028-1.18-10.463a.51.51,0,0,0-.17-.04c-.867.436-1.541,3.123-1.8,4.135l-.031.123c-.076.3-.145.569-.21.8-1.844,6.543-2.925,10.762-4.285,16.718-.739,3.228.48,7.2,1.866,9.836l.232.436a95.427,95.427,0,0,1,5.48,11.638,148.874,148.874,0,0,1,7.391,27.338,65.149,65.149,0,0,1-.251,21.049,1.318,1.318,0,0,1-1.3,1.1Z"/>
          </g>
          <g id="グループ_291" data-name="グループ 291">
            <path id="パス_399" data-name="パス 399" d="M1997.892,580.28a1.326,1.326,0,0,1-1.2-.779c-.851-1.92-3.673-5.97-6.4-9.887a95.409,95.409,0,0,1-5.873-9c-1.488-3.076-1.742-7.146-2.062-12.3-.078-1.3-.166-2.672-.277-4.111-.155-2-.392-3.719-.584-5.1l-.019-.137c-.494-3.522-.885-6.3,1.92-6.951a3.561,3.561,0,0,1,.809-.094,3.807,3.807,0,0,1,2.085.642c1.847,1.184,3.313,4.023,4.126,8,.5,2.434,1.6,10.213,1.606,10.282a1.323,1.323,0,0,1-1.117,1.491l-.149.01a1.322,1.322,0,0,1-1.345-1.132c-.44-3.068-1.213-8.326-1.58-10.126-.638-3.124-1.775-5.54-2.966-6.3a1.175,1.175,0,0,0-.648-.224,1.026,1.026,0,0,0-.227.027c-.346.081-.324,1.019.1,4.016l.025.189c.2,1.413.442,3.167.6,5.213.113,1.451.2,2.835.279,4.154.306,4.876.547,8.717,1.8,11.309a94.211,94.211,0,0,0,5.52,8.43l.132.19c2.813,4.035,5.711,8.192,6.665,10.342a1.323,1.323,0,0,1-.671,1.738A1.223,1.223,0,0,1,1997.892,580.28Z"/>
          </g>
          <g id="グループ_292" data-name="グループ 292">
            <path id="パス_400" data-name="パス 400" d="M2006.069,573.65a1.312,1.312,0,0,1-1.308-1.128,44.587,44.587,0,0,1,.637-13.162c.21-1.248.322-2.436.419-3.484.2-2.193.352-3.765,1.178-4.724a3.435,3.435,0,0,1,2.622-1.331,3.083,3.083,0,0,1,1,.166,5.139,5.139,0,0,1,3.024,4.48,1.327,1.327,0,0,1-1.244,1.388h0a1.357,1.357,0,0,1-1.394-1.243,2.631,2.631,0,0,0-1.241-2.13.431.431,0,0,0-.138-.024c-.216,0-.462.23-.632.423a10.789,10.789,0,0,0-.534,3.132c-.11,1.229-.228,2.445-.453,3.787a42.5,42.5,0,0,0-.626,12.343,1.32,1.32,0,0,1-.248.979,1.3,1.3,0,0,1-.876.519l-.17.009Z"/>
          </g>
          <g id="グループ_293" data-name="グループ 293">
            <path id="パス_401" data-name="パス 401" d="M2146.852,628.034a1.325,1.325,0,0,1-1.2-.771c-5.822-12.711-5.045-20.939-4.064-24.713a28.12,28.12,0,0,0,.851-6.412,33.928,33.928,0,0,1,.833-6.785,28.374,28.374,0,0,1,2.55-6.633,25.61,25.61,0,0,0,2.464-6.463,1.314,1.314,0,0,1,1.287-1.032,1.3,1.3,0,0,1,.281.03,1.323,1.323,0,0,1,1.011,1.567,28.243,28.243,0,0,1-2.668,7.049,25.473,25.473,0,0,0-2.355,6.077,31.179,31.179,0,0,0-.766,6.239l0,.1a30.417,30.417,0,0,1-.931,6.922c-.89,3.439-1.567,11,3.911,22.95a1.323,1.323,0,0,1-1.2,1.871Z"/>
          </g>
          <g id="グループ_294" data-name="グループ 294">
            <path id="パス_402" data-name="パス 402" d="M2158.406,579.073a1.32,1.32,0,0,1-1.207-.788c-1.455-3.273-1-7.472-.553-11.533a36.016,36.016,0,0,0,.3-8.064c-.451-3.489-1.617-5.186-2.272-5.886-.462-.491-.813-.666-.973-.666-.31.1-.806.909-.962,2.139a70.906,70.906,0,0,0-.457,8.651,1.319,1.319,0,1,1-2.639,0,73.8,73.8,0,0,1,.479-8.988c.221-1.725,1.056-3.762,2.738-4.309a2.771,2.771,0,0,1,.845-.131,4.033,4.033,0,0,1,2.9,1.5c1.062,1.131,2.439,3.324,2.965,7.344a37.658,37.658,0,0,1-.294,8.67c-.426,3.9-.828,7.563.343,10.2a1.311,1.311,0,0,1-.673,1.738A1.263,1.263,0,0,1,2158.406,579.073Z"/>
          </g>
          <g id="グループ_295" data-name="グループ 295">
            <path id="パス_403" data-name="パス 403" d="M2152.561,592.816a1.325,1.325,0,0,1-1.314-1.194c-.258-2.555-.946-9.357-2.137-12.767-1.151-3.286-2.638-6.7-4.076-10.006l-.39-.9c-.541-1.245-1.065-2.452-1.56-3.643-.358-.892-3.413-8.751-.844-11.641a2.754,2.754,0,0,1,2.093-1.014,2.683,2.683,0,0,1,.448.038c2.537.442,4.523,4.718,5.259,6.536.194.461,4.238,8.2,4.5,8.613a52.056,52.056,0,0,1,3.612,6.6c.648,1.485,1.214,3.07,1.761,4.6a45.849,45.849,0,0,0,2.969,7.059,1.317,1.317,0,0,1-.49,1.8,1.373,1.373,0,0,1-.655.17,1.324,1.324,0,0,1-1.146-.657,46.743,46.743,0,0,1-3.134-7.4c-.566-1.593-1.1-3.084-1.724-4.512a48.893,48.893,0,0,0-3.415-6.238c-.346-.536-4.5-8.478-4.73-9.037-.979-2.455-2.532-4.8-3.259-4.929.014.007-.027.023-.12.129-.862.972.012,5.769,1.305,8.87.612,1.473,1.265,2.98,1.931,4.5,1.384,3.173,2.936,6.734,4.146,10.19,1.174,3.348,1.86,9.243,2.273,13.385a1.3,1.3,0,0,1-.288.965,1.316,1.316,0,0,1-.887.48l-.119.007Z"/>
          </g>
          <g id="グループ_296" data-name="グループ 296">
            <path id="パス_404" data-name="パス 404" d="M2171.788,582.855a1.319,1.319,0,0,1-1.155-1.448,73.638,73.638,0,0,0,.046-9.2c-.247-3.513-.589-5.749-1.062-8.844l-.357-2.337c-.336-2.235-.742-4.393-1.1-6.3-.44-2.357-.856-4.582-1.159-6.855-.13-.947-.2-1.965-.28-3.043l-.013-.17c-.153-2.226-.439-6.363-1.57-6.363-1.275.041-2.285,3.9-2.285,8.79,0,3.338.375,7.319.737,11.169l.056.587c.27,2.932.521,5.639.612,8.093.173,4.487-.188,10.324-2.891,12.639a1.319,1.319,0,1,1-1.714-2c1.459-1.251,2.177-5.088,1.969-10.528-.1-2.562-.367-5.434-.655-8.475-.369-3.958-.749-8.037-.749-11.481,0-4.21.626-11.293,4.816-11.425l.122,0c3.578,0,3.9,4.65,4.179,8.752l.021.282c.069.962.141,1.957.254,2.836.3,2.235.73,4.512,1.144,6.714l.046.244c.379,2.029.754,4.042,1.068,6.141l.336,2.22c.494,3.194.852,5.5,1.109,9.172a76.316,76.316,0,0,1-.056,9.681,1.312,1.312,0,0,1-1.309,1.168Z"/>
          </g>
          <g id="グループ_297" data-name="グループ 297">
            <path id="パス_405" data-name="パス 405" d="M2181,580.13a1.255,1.255,0,0,1-.529-.113,1.312,1.312,0,0,1-.687-1.712c.153-.375.694-1.668.694-1.668.574-1.341,1.165-2.741,1.546-3.871,2.039-6,2.5-12.554,2.747-16.073l.02-.294c.037-.5.068-.932.1-1.289.184-2.025.4-5.093.577-7.558.267-3.8.563-7.992.865-10.908.432-4.2-.308-4.841-.315-4.847a2.12,2.12,0,0,0-.5.164c-1.953.9-3.64,5.872-4.3,8.994A68.718,68.718,0,0,0,2180,550c-.167,1.954-.329,3.748-.614,5.919-.8,6.063-3.4,13.938-6.213,16.09a1.32,1.32,0,0,1-.8.272,1.316,1.316,0,0,1-.794-2.366c1.922-1.481,4.4-8.319,5.194-14.341.287-2.168.445-3.991.6-5.754a71.485,71.485,0,0,1,1.27-9.41c.315-1.51,2.075-9.133,5.775-10.844a3.889,3.889,0,0,1,1.611-.393,2.583,2.583,0,0,1,1.521.478c1.389.994,1.822,3.232,1.4,7.26-.3,2.971-.621,7.513-.853,10.831l-.12,1.636c-.167,2.288-.32,4.4-.461,5.975-.032.308-.057.668-.087,1.082l-.034.451c-.255,3.639-.732,10.417-2.877,16.728-.4,1.18-.983,2.557-1.6,4.014l-.709,1.687A1.317,1.317,0,0,1,2181,580.13Z"/>
          </g>
          <g id="グループ_298" data-name="グループ 298">
            <path id="パス_406" data-name="パス 406" d="M2167.347,624.413a1.31,1.31,0,0,1-1.249-.892c-5.043-14.6,2.059-25.289,6.758-32.362l.836-1.264a58.341,58.341,0,0,0,6.153-11.729l.042-.1c.33-.776.7-1.634,1.1-2.578a1.321,1.321,0,0,1,1.739-.684,1.318,1.318,0,0,1,.682,1.733c-.337.777-.64,1.489-.922,2.153l-.2.475a60.662,60.662,0,0,1-6.391,12.179l-.83,1.257c-4.683,7.039-11.1,16.676-6.474,30.062a1.325,1.325,0,0,1-.818,1.676A1.25,1.25,0,0,1,2167.347,624.413Z"/>
          </g>
          <g id="グループ_299" data-name="グループ 299">
            <path id="パス_407" data-name="パス 407" d="M2024.568,556.452a1.318,1.318,0,0,1-.521-2.53c4.727-2.026,9.361-4.159,13.449-6.042,3.583-1.651,6.891-3.176,10.054-4.557a1.363,1.363,0,0,1,.524-.107,1.319,1.319,0,0,1,.533,2.527c-3.2,1.394-6.659,2.988-10,4.53-4.776,2.2-9.088,4.179-13.515,6.075A1.246,1.246,0,0,1,2024.568,556.452Z"/>
          </g>
          <g id="グループ_300" data-name="グループ 300">
            <path id="パス_408" data-name="パス 408" d="M2001.163,563.731a1.318,1.318,0,0,1-1.091-2.059,1.306,1.306,0,0,1,.847-.555c.9-.175,1.978-.45,2.924-.694l.194-.048c.737-.184,1.442-.359,2.034-.488a1.319,1.319,0,1,1,.558,2.579c-.509.109-1.1.257-1.717.412l-.419.1c-1.149.294-2.176.551-3.083.723A1.046,1.046,0,0,1,2001.163,563.731Z"/>
          </g>
          <g id="グループ_301" data-name="グループ 301">
            <path id="パス_409" data-name="パス 409" d="M1956.007,659.337a1.367,1.367,0,0,1-.225-.016,1.315,1.315,0,0,1-1.074-1.526c4.563-26.54,14.835-64.831,20.352-75.869,3.433-6.863,8.238-12.933,13.181-16.656a1.294,1.294,0,0,1,.791-.267,1.321,1.321,0,0,1,.8,2.371c-4.64,3.494-9.162,9.228-12.412,15.734-4.934,9.866-15.186,46.476-20.116,75.138A1.317,1.317,0,0,1,1956.007,659.337Z"/>
          </g>
          <g id="グループ_302" data-name="グループ 302">
            <path id="パス_410" data-name="パス 410" d="M2139.377,557.1a1.274,1.274,0,0,1-.467-.081c-2.956-1.108-6.039-2.135-8.516-2.96-7.893-2.641-15.341-5.133-21.906-9.707a1.313,1.313,0,0,1-.326-1.837,1.317,1.317,0,0,1,1.833-.325c6.249,4.351,13.523,6.785,21.223,9.362,2.825.946,5.737,1.92,8.62,3a1.315,1.315,0,0,1-.461,2.549Z"/>
          </g>
          <g id="グループ_303" data-name="グループ 303">
            <path id="パス_411" data-name="パス 411" d="M2162.164,563.639l-.886-.127L2158.3,563a1.318,1.318,0,0,1,.215-2.617,1.283,1.283,0,0,1,.246.024l3.74.619a1.317,1.317,0,0,1-.2,2.618Z"/>
          </g>
          <g id="グループ_304" data-name="グループ 304">
            <path id="パス_412" data-name="パス 412" d="M2174.959,568.092a1.282,1.282,0,0,1-.723-.223,11.84,11.84,0,0,0-2.988-1.364,1.321,1.321,0,0,1-.9-1.633,1.324,1.324,0,0,1,1.267-.954,1.342,1.342,0,0,1,.373.054,14.318,14.318,0,0,1,3.678,1.69,1.308,1.308,0,0,1,.405,1.817A1.312,1.312,0,0,1,2174.959,568.092Z"/>
          </g>
          <g id="グループ_305" data-name="グループ 305">
            <path id="パス_413" data-name="パス 413" d="M2203.991,663.015a1.34,1.34,0,0,1-1.3-1.093c-.548-3.218-1.144-7.011-1.775-11.027l-.124-.789c-3.512-22.391-8.816-56.213-18.8-73.342a1.317,1.317,0,1,1,2.279-1.32c10.233,17.555,15.582,51.661,19.121,74.23.677,4.328,1.314,8.4,1.9,11.8a1.324,1.324,0,0,1-1.078,1.525A1.668,1.668,0,0,1,2203.991,663.015Z"/>
          </g>
          <g id="グループ_306" data-name="グループ 306">
            <path id="パス_414" data-name="パス 414" d="M2010.182,673.586a1.606,1.606,0,0,1-.3-.034,1.343,1.343,0,0,1-.976-1.621c2.534-9.562,6.2-25.831,5.234-28.786a30.448,30.448,0,0,0-6.079-10.132c-3.741-4.392-7.946-10.415-6.737-14.162a4.062,4.062,0,0,1,3.175-2.71,1.317,1.317,0,1,1,.625,2.559c-.953.235-1.194.662-1.292.963-.614,1.9,1.834,6.472,6.238,11.639a33.018,33.018,0,0,1,6.578,11.025c1.459,4.474-4.062,25.98-5.184,30.245A1.326,1.326,0,0,1,2010.182,673.586Z"/>
          </g>
          <g id="グループ_307" data-name="グループ 307">
            <path id="パス_415" data-name="パス 415" d="M2015.433,646.787a1.346,1.346,0,0,1-.933-.55,1.306,1.306,0,0,1-.222-.983c.616-3.7,4.331-5.731,7.61-7.525,1.015-.557,1.969-1.08,2.7-1.587,1.13-.794,3.8-2.952,4.2-5.824a6.765,6.765,0,0,0-1.811-5.227,1.307,1.307,0,0,1-.291-.965,1.319,1.319,0,0,1,2.335-.7,9.3,9.3,0,0,1,2.38,7.264c-.526,3.771-3.549,6.39-5.305,7.615a32.521,32.521,0,0,1-2.941,1.74c-2.752,1.509-5.871,3.219-6.279,5.652a1.3,1.3,0,0,1-1.3,1.1Z"/>
          </g>
          <g id="グループ_308" data-name="グループ 308">
            <path id="パス_416" data-name="パス 416" d="M1983.831,668.092a1.318,1.318,0,0,1-1.242-1.759c1.445-4.169,3.607-9.007,5.9-14.129l.063-.142a168.272,168.272,0,0,0,7.139-17.666c.737-2.409,1.321-4.749,1.79-6.629l.052-.213c1.6-6.447,2.761-11.1,7.3-11.36h0a1.344,1.344,0,0,1,1.387,1.239,1.325,1.325,0,0,1-1.242,1.394c-2.6.145-3.509,3.809-4.89,9.354l-.029.116c-.52,2.084-1.1,4.4-1.851,6.869a169.881,169.881,0,0,1-7.312,18.095l-.072.164c-2.24,5.02-4.355,9.759-5.749,13.776A1.314,1.314,0,0,1,1983.831,668.092Z"/>
          </g>
          <g id="グループ_309" data-name="グループ 309">
            <path id="パス_417" data-name="パス 417" d="M2024.1,676.192a1.151,1.151,0,0,1-.32-.044,1.275,1.275,0,0,1-.783-.552,1.308,1.308,0,0,1-.19-.992c.368-1.75,1.246-7.423,2.176-13.429l.245-1.582c1.1-7.119,2.239-14.48,2.716-16.6,1.231-5.446,2.4-11.562.641-15.236a1.318,1.318,0,0,1,.622-1.761,1.294,1.294,0,0,1,.568-.13,1.312,1.312,0,0,1,1.186.745c2.124,4.442.885,11.084-.444,16.962-.466,2.055-1.618,9.523-2.734,16.744l-.036.233c-1.058,6.887-1.967,12.738-2.357,14.6A1.326,1.326,0,0,1,2024.1,676.192Z"/>
          </g>
          <g id="グループ_310" data-name="グループ 310">
            <path id="パス_418" data-name="パス 418" d="M2177.01,668.235a1.326,1.326,0,0,1-1.048-.521c-7.642-10.138-13.9-28.515-14.335-31.72-.449-3.223,1.049-5.783,2.37-8.041a18.181,18.181,0,0,0,1.534-2.993c1.064-3.022,1.689-5.585-.683-8.736a1.321,1.321,0,0,1,.251-1.837,1.3,1.3,0,0,1,.8-.273,1.318,1.318,0,0,1,1.056.523c3.158,4.186,2.257,7.829,1.064,11.2a19.965,19.965,0,0,1-1.719,3.407c-1.176,2-2.383,4.053-2.063,6.394.42,3.068,6.461,20.7,13.832,30.484a1.327,1.327,0,0,1-.258,1.847A1.364,1.364,0,0,1,2177.01,668.235Z"/>
          </g>
          <g id="グループ_311" data-name="グループ 311">
            <path id="パス_419" data-name="パス 419" d="M2197.011,665.734a1.316,1.316,0,0,1-.961-.418c-7.014-7.443-19.633-23.706-24.1-33.635l-.208-.464a66.331,66.331,0,0,1-2.946-7.315c-.833-2.65-1.777-5.654-3.755-7.615a1.321,1.321,0,0,1-.01-1.863,1.336,1.336,0,0,1,.943-.391,1.3,1.3,0,0,1,.93.387c2.442,2.42,3.532,5.9,4.408,8.692a63.409,63.409,0,0,0,2.833,7.014l.212.477c4.355,9.677,16.729,25.6,23.618,32.9a1.321,1.321,0,0,1-.963,2.226Z"/>
          </g>
          <g id="グループ_312" data-name="グループ 312">
            <path id="パス_420" data-name="パス 420" d="M2163.8,640.753a1.322,1.322,0,0,1-1.247-.887c-2.089-6.191-7.486-8.243-12.7-10.227-1.462-.555-2.883-1.1-4.2-1.7a8.664,8.664,0,0,1-4.656-5.05,10.316,10.316,0,0,1,.59-7.967,1.324,1.324,0,0,1,1.76-.6,1.328,1.328,0,0,1,.61,1.765,7.692,7.692,0,0,0-.478,5.923,6.069,6.069,0,0,0,3.274,3.529c1.234.569,2.54,1.069,3.922,1.6,5.6,2.134,11.9,4.531,14.375,11.883a1.313,1.313,0,0,1-.816,1.67A1.438,1.438,0,0,1,2163.8,640.753Z"/>
          </g>
          <g id="グループ_313" data-name="グループ 313">
            <path id="パス_421" data-name="パス 421" d="M2153.937,677.3a1.324,1.324,0,0,1-1.188-.744c-4.187-8.788-6.375-23.3-7.822-32.908-.4-2.625-.811-5.339-1.163-7.166-.644-3.356-1.3-6.041-1.872-8.41-1.483-6.116-2.3-9.484-.333-13.179a1.331,1.331,0,0,1,1.169-.7,1.319,1.319,0,0,1,1.159,1.941c-1.494,2.808-.762,5.828.566,11.31l.042.175c.571,2.354,1.219,5.025,1.86,8.365.348,1.811.729,4.333,1.132,7l.04.266c1.437,9.476,3.6,23.768,7.6,32.158a1.331,1.331,0,0,1-.623,1.76A1.363,1.363,0,0,1,2153.937,677.3Z"/>
          </g>
          <g id="グループ_314" data-name="グループ 314">
            <path id="パス_422" data-name="パス 422" d="M2055.586,547.2h-.019a1.315,1.315,0,0,1-1.318-1.294,87.456,87.456,0,0,0-1.821-13.857,1.3,1.3,0,0,1,.2-.985,1.322,1.322,0,0,1,.85-.556,1.311,1.311,0,0,1,1.54,1.054,90.527,90.527,0,0,1,1.867,14.288,1.321,1.321,0,0,1-1.281,1.349l-.041.007Z"/>
          </g>
          <g id="グループ_315" data-name="グループ 315">
            <path id="パス_423" data-name="パス 423" d="M2101.29,545.842a1.326,1.326,0,0,1-.9-.459,1.305,1.305,0,0,1-.311-.958,88.122,88.122,0,0,1,1.348-10.384,1.319,1.319,0,0,1,2.593.487,85.875,85.875,0,0,0-1.31,10.1,1.334,1.334,0,0,1-1.316,1.222Z"/>
          </g>
          <g id="グループ_316" data-name="グループ 316">
            <path id="パス_424" data-name="パス 424" d="M2083.068,565.91a1.377,1.377,0,0,1-.277-.029,1.332,1.332,0,0,1-1.012-1.573c.875-3.966,5.236-7.425,9.452-10.769l.176-.14c.667-.53,1.261-1,1.834-1.469,4.192-3.427,7.262-6.357,8.6-12.884a1.319,1.319,0,0,1,1.3-1.055,1.354,1.354,0,0,1,.259.026,1.319,1.319,0,0,1,1.028,1.562c-1.5,7.357-5.041,10.738-9.512,14.393-.662.538-1.346,1.088-2.042,1.631-3.673,2.917-7.84,6.228-8.512,9.274A1.322,1.322,0,0,1,2083.068,565.91Z"/>
          </g>
          <g id="グループ_317" data-name="グループ 317">
            <path id="パス_425" data-name="パス 425" d="M2078.621,567.188a1.32,1.32,0,0,1-1.281-1c-1.159-4.755-6.218-7.2-11.11-9.571l-.218-.106c-.873-.424-1.729-.841-2.551-1.266-6.723-3.49-10.207-8.29-11.3-15.561a1.326,1.326,0,0,1,1.1-1.5l.161-.013a1.331,1.331,0,0,1,1.348,1.117c.955,6.355,4.009,10.552,9.9,13.61.87.455,1.78.9,2.7,1.342,5.192,2.525,11.074,5.385,12.524,11.313a1.327,1.327,0,0,1-.165,1.015,1.28,1.28,0,0,1-.814.579A1.16,1.16,0,0,1,2078.621,567.188Z"/>
          </g>
          <g id="グループ_318" data-name="グループ 318">
            <path id="パス_426" data-name="パス 426" d="M2057.48,576.906a2.4,2.4,0,0,1-.948-.2c-2.059-.889-2.578-3.874-3.295-8.006a51.971,51.971,0,0,0-1.963-8.4,39.986,39.986,0,0,0-2.362-4.763c-1.288-2.357-2.737-5.009-3.041-6.741-.284-1.643.441-3.241,1.36-5.263.206-.451.4-.874.589-1.311.159-.37.323-.764.493-1.175l.073-.173c1.328-3.237,2.834-6.909,5.669-6.909l.124,0a1.334,1.334,0,0,1,.943.451,1.287,1.287,0,0,1,.319.943,1.314,1.314,0,0,1-1.307,1.242l-.126,0c-1.009,0-2.452,3.5-3.146,5.18l-.236.576c-.147.357-.266.646-.384.919-.2.458-.4.9-.593,1.31-.711,1.56-1.324,2.909-1.177,3.754.22,1.277,1.483,3.6,2.7,5.839l.091.168a40.6,40.6,0,0,1,2.5,5.077,53.789,53.789,0,0,1,2.07,8.814c.4,2.281,1,5.721,1.747,6.047.62-.09,2.894-3.456,3.864-4.893l.066-.1a58.542,58.542,0,0,1,4.291-5.812c2.617-2.97,5.585-4.744,7.936-4.744a4.461,4.461,0,0,1,1.738.341,1.319,1.319,0,0,1-1.022,2.432,1.872,1.872,0,0,0-.732-.137c-1.575,0-3.85,1.477-5.939,3.855a54.312,54.312,0,0,0-4.035,5.467l-.06.088C2061.375,574.2,2059.548,576.906,2057.48,576.906Z"/>
          </g>
          <g id="グループ_319" data-name="グループ 319">
            <path id="パス_427" data-name="パス 427" d="M2102.535,576.933a2.467,2.467,0,0,1-.425-.038c-2.084-.351-4.246-3.248-6.982-6.916-2.7-3.619-6.4-8.568-9.044-8.754a1.324,1.324,0,0,1-1.223-1.4,1.3,1.3,0,0,1,1.3-1.232c3.951.279,7.73,5.336,11.066,9.8,1.66,2.229,3.878,5.206,5.043,5.8a21.436,21.436,0,0,0,.289-3.4,40.109,40.109,0,0,1,.912-8.216c.388-1.59,1.032-3.473,1.653-5.293,1.063-3.122,2.269-6.66,2.345-8.964.067-2.1-3.008-9.662-4.165-11.418a1.3,1.3,0,0,1-.194-.979,1.32,1.32,0,0,1,.567-.843,1.289,1.289,0,0,1,.728-.222,1.315,1.315,0,0,1,1.1.6c1.266,1.916,4.7,10.084,4.6,12.955-.093,2.7-1.308,6.257-2.484,9.7l-.056.165c-.587,1.735-1.194,3.528-1.53,4.925a37.611,37.611,0,0,0-.84,7.666c-.1,2.808-.171,4.663-1.295,5.589A2.168,2.168,0,0,1,2102.535,576.933Z"/>
          </g>
          <g id="グループ_320" data-name="グループ 320">
            <path id="パス_428" data-name="パス 428" d="M2077.129,579.5a1.344,1.344,0,0,1-.407-.058,1.456,1.456,0,0,1-.592-.351h-.071l-.154-.253-.289-.505c-1.921-3.321-3.759-7.015-2.83-9.234a8.045,8.045,0,0,1,3.113-3.014,15.64,15.64,0,0,1,7.586-2.461,5.339,5.339,0,0,1,3.927,1.427c2.1,2.1.692,12.033.016,12.977a1.342,1.342,0,0,1-1.092.542,1.372,1.372,0,0,1-.5-.092A9.238,9.238,0,0,0,2082.5,578c-.255,0-.526.006-.815.019a6.129,6.129,0,0,0-3.322,1.027A2.4,2.4,0,0,1,2077.129,579.5Zm6.357-13.241a12.983,12.983,0,0,0-6.152,2.038c-1.728,1.122-2.056,1.674-2.114,1.816-.124.3-.3,1.621,2.36,6.337a8.921,8.921,0,0,1,3.994-1.067c.307-.013.6-.018.874-.018a15.361,15.361,0,0,1,2.967.262c.438-2.917.67-8.112.127-8.713A2.838,2.838,0,0,0,2083.486,566.258Z"/>
          </g>
          <g id="グループ_321" data-name="グループ 321">
            <path id="パス_429" data-name="パス 429" d="M2073.547,571.335a24.293,24.293,0,0,1-8.836-3.355,1.3,1.3,0,0,1-.59-.812,1.327,1.327,0,0,1,1.282-1.632,1.3,1.3,0,0,1,.7.2,21.869,21.869,0,0,0,7.732,2.974,1.321,1.321,0,0,1-.2,2.626Z"/>
          </g>
          <g id="グループ_322" data-name="グループ 322">
            <path id="パス_430" data-name="パス 430" d="M2087.48,571.056a1.317,1.317,0,0,1-1.037-2.134,1.3,1.3,0,0,1,.891-.492,19.251,19.251,0,0,0,5.069-1.622c.506-.222.993-.421,1.478-.614a1.329,1.329,0,0,1,.489-.094,1.318,1.318,0,0,1,.488,2.542c-.306.121-.608.248-.91.376l-.487.205a21.416,21.416,0,0,1-5.826,1.822l-.134.011Z"/>
          </g>
          <g id="グループ_323" data-name="グループ 323">
            <path id="パス_431" data-name="パス 431" d="M2085.441,566.347a1.331,1.331,0,0,1-.991-.451,1.314,1.314,0,0,1,.128-1.86,43.638,43.638,0,0,1,4.7-3.166,1.271,1.271,0,0,1,.667-.184,1.32,1.32,0,0,1,1.273,1.645,1.313,1.313,0,0,1-.612.806l-.117.072a33.835,33.835,0,0,0-4.177,2.811A1.328,1.328,0,0,1,2085.441,566.347Z"/>
          </g>
          <g id="グループ_324" data-name="グループ 324">
            <path id="パス_432" data-name="パス 432" d="M2077.5,567.754a1.306,1.306,0,0,1-.727-.221c-.346-.228-1.327-.724-2.572-1.349-1.55-.779-3.437-1.726-5.344-2.8a1.317,1.317,0,0,1,.639-2.469,1.34,1.34,0,0,1,.647.169c1.846,1.027,3.672,1.952,5.24,2.738l.16.081c1.287.645,2.218,1.112,2.694,1.432a1.321,1.321,0,0,1-.737,2.414Z"/>
          </g>
          <g id="グループ_325" data-name="グループ 325">
            <path id="パス_433" data-name="パス 433" d="M2070.334,680.612a1.335,1.335,0,0,1-1.175-1.5c1.048-7.349,3.648-31.688,3.57-45.549-.039-6.29-.471-11.171-.853-15.479a74.4,74.4,0,0,1-.372-14.331c.776-7.929,2.189-15.077,4.424-25.908a1.315,1.315,0,0,1,1.284-1.053,1.268,1.268,0,0,1,.282.031,1.325,1.325,0,0,1,1.017,1.555c-2.222,10.768-3.625,17.867-4.382,25.634a72.859,72.859,0,0,0,.37,13.807c.391,4.393.832,9.346.865,15.732.08,13.972-2.539,38.523-3.594,45.937a1.321,1.321,0,0,1-1.307,1.128Z"/>
          </g>
          <g id="グループ_326" data-name="グループ 326">
            <path id="パス_434" data-name="パス 434" d="M2101.913,681.332l-.051-.031a1.309,1.309,0,0,1-1.057-1.364c1.595-29.775-2.115-67.2-6.249-78.337-.853-2.293-2.148-5.034-3.4-7.684l-.169-.359c-1.2-2.53-2.418-5.112-3.259-7.3a36.559,36.559,0,0,1-2.518-8.836,1.331,1.331,0,0,1,1.173-1.447h.008a1.356,1.356,0,0,1,1.447,1.186,34.164,34.164,0,0,0,2.349,8.147c.818,2.115,2.021,4.66,3.185,7.121l.045.094c1.271,2.68,2.685,5.656,3.61,8.156,4.222,11.366,8.023,49.319,6.411,79.4a1.312,1.312,0,0,1-1.317,1.249Z"/>
          </g>
          <g id="グループ_327" data-name="グループ 327">
            <path id="パス_435" data-name="パス 435" d="M2180.324,581.716a1.3,1.3,0,0,1-.606-.147,1.322,1.322,0,0,1-.565-1.777c.5-.97,2.233-3.657,4.064-6.5,2.711-4.213,6.08-9.452,7.106-11.574,1.251-2.59,1.488-6.4,1.786-11.215l.012-.2c.08-1.252.163-2.557.265-3.937.166-2.149.426-3.993.617-5.34.415-2.96.441-3.926.109-4a1.02,1.02,0,0,0-.231-.028,1.16,1.16,0,0,0-.633.216c-1.184.763-2.31,3.16-2.939,6.255-.408,1.961-1.3,8.116-1.558,9.956l-.015.1a1.307,1.307,0,0,1-1.309,1.134l-.138-.008a1.339,1.339,0,0,1-1.167-1.5l.047-.33c.928-6.428,1.356-8.923,1.553-9.883.8-3.942,2.259-6.764,4.1-7.946a3.782,3.782,0,0,1,2.078-.636,3.636,3.636,0,0,1,.8.091c2.8.649,2.408,3.414,1.919,6.914-.221,1.548-.449,3.224-.6,5.2-.094,1.208-.167,2.369-.238,3.479l-.037.6c-.317,5.124-.568,9.171-2.046,12.223-1.062,2.2-4.229,7.129-7.023,11.482l-.33.512c-1.755,2.733-3.413,5.313-3.853,6.147A1.284,1.284,0,0,1,2180.324,581.716Z"/>
          </g>
          <g id="グループ_328" data-name="グループ 328">
            <path id="パス_436" data-name="パス 436" d="M2078.014,550.515c-.88,0-1.711-.04-2.538-.122-18.866-1.79-27.979-25.076-29.5-40.29a1.323,1.323,0,0,1,1.178-1.45h.006a1.34,1.34,0,0,1,1.439,1.187c1.435,14.345,9.844,36.285,27.129,37.93.767.073,1.542.11,2.3.11,17.251,0,28.727-19.278,31.365-32.968a1.321,1.321,0,0,1,1.293-1.068,1.337,1.337,0,0,1,.259.027,1.28,1.28,0,0,1,.83.542,1.313,1.313,0,0,1,.208,1C2109.366,528.984,2097.829,550.515,2078.014,550.515Z"/>
          </g>
          <g id="グループ_329" data-name="グループ 329">
            <path id="パス_437" data-name="パス 437" d="M2045.317,512.25a1.057,1.057,0,0,1-.35-.052c-4.833-1.028-7.659-7.423-8.292-11.209-.571-3.4.411-6.454,2.562-7.975a5.293,5.293,0,0,1,3.114-.97,8.1,8.1,0,0,1,3.914,1.133,1.32,1.32,0,0,1-.648,2.472,1.3,1.3,0,0,1-.639-.167,5.47,5.47,0,0,0-2.619-.8,2.72,2.72,0,0,0-1.6.482c-1.3.916-1.88,3.029-1.485,5.382.542,3.239,2.924,8.366,6.319,9.087a1.322,1.322,0,0,1-.278,2.613Z"/>
          </g>
          <g id="グループ_330" data-name="グループ 330">
            <path id="パス_438" data-name="パス 438" d="M2112.691,515.532c-.079,0-.165,0-.244-.007a1.322,1.322,0,0,1,.067-2.642l.158,0c1.682,0,3.582-1.453,5.071-3.888,1.945-3.175,2.528-6.757,1.414-8.711-.588-1.048-1.71-1.569-3.429-1.593a1.318,1.318,0,0,1,0-2.636c3.381.04,4.978,1.614,5.723,2.927,1.818,3.216.518,8.159-1.459,11.39S2115.287,515.532,2112.691,515.532Z"/>
          </g>
          <g id="グループ_331" data-name="グループ 331">
            <path id="パス_439" data-name="パス 439" d="M2044.767,504.8a1.322,1.322,0,0,1-1.093-.575c-.116-.177-.221-.337-.324-.507a5.531,5.531,0,0,0-2.137-2.183,1.323,1.323,0,0,1-.482-1.8,1.341,1.341,0,0,1,1.146-.657,1.313,1.313,0,0,1,.66.177,8.147,8.147,0,0,1,3.047,3.057c.106.174.19.308.278.439a1.321,1.321,0,0,1-.363,1.83A1.3,1.3,0,0,1,2044.767,504.8Z"/>
          </g>
          <g id="グループ_332" data-name="グループ 332">
            <path id="パス_440" data-name="パス 440" d="M2113.37,508.823a1.311,1.311,0,0,1-.7-.2,1.327,1.327,0,0,1-.413-1.82,14.957,14.957,0,0,1,3.432-3.853,1.312,1.312,0,0,1,.738-.226,1.329,1.329,0,0,1,1.09.568,1.323,1.323,0,0,1-.352,1.841,13.1,13.1,0,0,0-2.672,3.072A1.307,1.307,0,0,1,2113.37,508.823Z"/>
          </g>
          <g id="グループ_333" data-name="グループ 333">
            <path id="パス_441" data-name="パス 441" d="M2079.589,516.932a1.322,1.322,0,0,1-.732-2.423c1.151-.759,1.019-1.789.039-4.5a13.5,13.5,0,0,1-.694-2.322,12.266,12.266,0,0,1,.958-6.729,1.334,1.334,0,0,1,1.238-.86,1.275,1.275,0,0,1,.459.084,1.294,1.294,0,0,1,.737.69,1.317,1.317,0,0,1,.036,1.007,10.053,10.053,0,0,0-.825,5.386,11.2,11.2,0,0,0,.524,1.721c.829,2.3,2.061,5.7-1.015,7.723A1.352,1.352,0,0,1,2079.589,516.932Z"/>
          </g>
          <g id="グループ_334" data-name="グループ 334">
            <path id="パス_442" data-name="パス 442" d="M2059.769,488.448a1.323,1.323,0,0,1-.89-2.3,9.719,9.719,0,0,1,6.63-2.517,9.224,9.224,0,0,1,3.613.7,1.318,1.318,0,1,1-1.075,2.406,6.526,6.526,0,0,0-2.512-.457,7.268,7.268,0,0,0-4.877,1.82A1.325,1.325,0,0,1,2059.769,488.448Z"/>
          </g>
          <g id="グループ_335" data-name="グループ 335">
            <path id="パス_443" data-name="パス 443" d="M2100.223,489.3a1.316,1.316,0,0,1-.886-.347,6.94,6.94,0,0,0-4.686-1.775,6.759,6.759,0,0,0-2.238.368,1.288,1.288,0,0,1-.443.078,1.32,1.32,0,0,1-.441-2.563,9.4,9.4,0,0,1,3.122-.518,9.542,9.542,0,0,1,6.451,2.453,1.321,1.321,0,0,1-.879,2.3Z"/>
          </g>
          <g id="グループ_336" data-name="グループ 336">
            <path id="パス_444" data-name="パス 444" d="M2084.144,536.529a7.034,7.034,0,0,1-2.976-.881l-.107-.049a9.35,9.35,0,0,0-3.3-1.03c-.181-.013-.355-.019-.525-.019a9.852,9.852,0,0,0-2.928.533,7.979,7.979,0,0,1-2.319.463,3.916,3.916,0,0,1-2.958-1.408,3.58,3.58,0,0,1-.544-4.11c1.039-2.249,4.449-4.67,9.478-4.67.2,0,.4,0,.6.012,3.829.16,7.081,1.78,8.7,4.333,1.4,2.209,1.184,4.575-.545,5.889a4.269,4.269,0,0,1-2.572.937h0Zm-6.916-4.614c.239,0,.479,0,.733.023a11.607,11.607,0,0,1,4.226,1.275,5.34,5.34,0,0,0,1.952.669,1.6,1.6,0,0,0,.988-.4c.582-.439.548-1.367-.089-2.366-1.158-1.828-3.619-2.991-6.583-3.113-.173-.006-.345-.01-.515-.01-3.646,0-6.363,1.619-7.067,3.142a.979.979,0,0,0,.089,1.211,1.347,1.347,0,0,0,1.052.561,6.017,6.017,0,0,0,1.506-.336A12.1,12.1,0,0,1,2077.228,531.915Z"/>
          </g>
          <g id="グループ_337" data-name="グループ 337">
            <path id="パス_445" data-name="パス 445" d="M2048.04,481.67a1.286,1.286,0,0,1-.906-.4,1.32,1.32,0,0,1,.953-2.237l.328,0c5.275,0,7.106-3.838,9.226-8.283l.057-.12a28.793,28.793,0,0,1,3.284-5.749,11.14,11.14,0,0,1,8.647-4.292,10.528,10.528,0,0,1,5.114,1.343,1.313,1.313,0,0,1,.627.8,1.29,1.29,0,0,1-.123,1,1.314,1.314,0,0,1-1.79.5,7.828,7.828,0,0,0-3.837-1.039,8.655,8.655,0,0,0-6.584,3.348,26.243,26.243,0,0,0-2.957,5.218c-2.211,4.65-4.715,9.914-11.68,9.914C2048.279,481.676,2048.16,481.675,2048.04,481.67Z"/>
          </g>
          <g id="グループ_338" data-name="グループ 338">
            <path id="パス_446" data-name="パス 446" d="M2047.038,490.507a8.683,8.683,0,0,1-1.8-.206,1.32,1.32,0,0,1,.283-2.609,1.416,1.416,0,0,1,.278.03,5.878,5.878,0,0,0,1.257.147c1.679,0,2.9-.883,3.841-2.778a1.32,1.32,0,0,1,2.365,1.172C2051.874,489.041,2049.725,490.507,2047.038,490.507Z"/>
          </g>
          <g id="グループ_339" data-name="グループ 339">
            <path id="パス_447" data-name="パス 447" d="M2080.175,464.268a1.339,1.339,0,0,1-.954-.454,1.321,1.321,0,0,1-.321-.959,7.667,7.667,0,0,1,2.952-5.638,9.7,9.7,0,0,1,5.939-2.027,8.97,8.97,0,0,1,1.465.119,1.319,1.319,0,0,1-.216,2.62,1.391,1.391,0,0,1-.221-.018,6.067,6.067,0,0,0-1-.079,7.169,7.169,0,0,0-4.327,1.449,5.1,5.1,0,0,0-1.958,3.756,1.329,1.329,0,0,1-1.312,1.231Z"/>
          </g>
          <g id="グループ_340" data-name="グループ 340">
            <path id="パス_448" data-name="パス 448" d="M2110.727,484.917a13.53,13.53,0,0,1-8.852-3.881c-2.116-2.078-3.449-4.957-4.739-7.741-2.234-4.832-3.994-8.64-8.8-8.64a11.524,11.524,0,0,0-2.18.228,1.383,1.383,0,0,1-.242.022,1.32,1.32,0,0,1-1.095-2.069,1.289,1.289,0,0,1,.846-.544,14.077,14.077,0,0,1,2.683-.275c6.473,0,8.864,5.16,11.175,10.15,1.188,2.576,2.414,5.237,4.2,6.993a11.036,11.036,0,0,0,6.96,3.131,6.012,6.012,0,0,0,1.992-.33,1.338,1.338,0,0,1,.435-.073,1.32,1.32,0,0,1,.44,2.565A8.6,8.6,0,0,1,2110.727,484.917Z"/>
          </g>
          <g id="グループ_341" data-name="グループ 341">
            <path id="パス_449" data-name="パス 449" d="M2114.693,495.474a8.772,8.772,0,0,1-8.294-7.021,1.319,1.319,0,0,1,2.574-.577c.543,2.408,2.712,4.968,5.661,4.968a5.111,5.111,0,0,0,.92-.084,1.336,1.336,0,0,1,.231-.02,1.317,1.317,0,0,1,.229,2.614A7.138,7.138,0,0,1,2114.693,495.474Z"/>
          </g>
          <g id="グループ_342" data-name="グループ 342">
            <path id="パス_450" data-name="パス 450" d="M2076.16,458.354a1.327,1.327,0,0,1-1.223-.838c-1.791-4.584-.809-12.806,2.019-16.919a1.3,1.3,0,0,1,1.084-.574,1.318,1.318,0,0,1,.75.234,1.314,1.314,0,0,1,.334,1.835c-2.374,3.455-3.235,10.618-1.736,14.46a1.323,1.323,0,0,1-.027,1.023,1.3,1.3,0,0,1-.727.689A1.335,1.335,0,0,1,2076.16,458.354Z"/>
          </g>
          <g id="グループ_343" data-name="グループ 343">
            <path id="パス_451" data-name="パス 451" d="M2041.47,455.378a6.339,6.339,0,0,1-1.485-.173,1.3,1.3,0,0,1-.813-.579,1.315,1.315,0,0,1,1.119-2.019,1.294,1.294,0,0,1,.292.033,3.893,3.893,0,0,0,.886.1c2.284,0,4.728-1.951,6.884-5.493,3.8-6.263,8.812-12.944,20.109-12.944a34.026,34.026,0,0,1,5.611.5,1.321,1.321,0,0,1,1.084,1.518,1.337,1.337,0,0,1-1.307,1.1,1.391,1.391,0,0,1-.2-.015,30.817,30.817,0,0,0-5.1-.456c-10.014,0-14.514,6.023-17.945,11.669C2047.96,452.979,2044.716,455.378,2041.47,455.378Z"/>
          </g>
          <g id="グループ_344" data-name="グループ 344">
            <path id="パス_452" data-name="パス 452" d="M2041.142,487.089a1.326,1.326,0,0,1-1.288-1.04c-2.754-12.957-2.163-22.061,1.81-27.837a1.324,1.324,0,0,1,1.091-.573,1.316,1.316,0,0,1,1.077,2.069c-3.536,5.144-3.994,13.581-1.4,25.788a1.318,1.318,0,0,1-1.018,1.564A1.579,1.579,0,0,1,2041.142,487.089Z"/>
          </g>
          <g id="グループ_345" data-name="グループ 345">
            <path id="パス_453" data-name="パス 453" d="M2124.363,459.947c-4.1-.283-6.178-3.635-11.089-13.139-2.331-4.517-5.482-8.2-8.646-10.114a21.166,21.166,0,0,0-10.771-2.985,16.238,16.238,0,0,0-11.078,3.916,1.3,1.3,0,0,1-.887.345,1.322,1.322,0,0,1-.971-.424,1.314,1.314,0,0,1,.078-1.864,18.812,18.812,0,0,1,12.824-4.658,23.609,23.609,0,0,1,12.166,3.414c3.563,2.148,7.073,6.214,9.63,11.156,4.6,8.922,6.327,11.542,8.886,11.719a1.319,1.319,0,0,1-.086,2.635Z"/>
          </g>
          <g id="グループ_346" data-name="グループ 346">
            <path id="パス_454" data-name="パス 454" d="M2120.128,494.8a1.3,1.3,0,0,1-.4-.064,1.331,1.331,0,0,1-.857-1.652c1.7-5.289,6.865-21.362,3.19-28.362a1.322,1.322,0,0,1,1.168-1.934,1.306,1.306,0,0,1,1.171.716c3.743,7.132.074,20.754-3.012,30.38A1.325,1.325,0,0,1,2120.128,494.8Z"/>
          </g>
          <g id="グループ_347" data-name="グループ 347">
            <path id="パス_455" data-name="パス 455" d="M2063.711,505.775a2.425,2.425,0,0,1-.268-.014,2.728,2.728,0,0,1-1.844-1.024,3.894,3.894,0,0,1-.789-2.867,3.457,3.457,0,0,1,3.128-3.3c.086,0,.172.005.26.013a2.743,2.743,0,0,1,1.85,1.028,3.9,3.9,0,0,1,.787,2.867A3.453,3.453,0,0,1,2063.711,505.775Z" fill-rule="evenodd"/>
          </g>
          <g id="グループ_348" data-name="グループ 348">
            <path id="パス_456" data-name="パス 456" d="M2094.6,507.2a2.6,2.6,0,0,1-.339-.022,2.739,2.739,0,0,1-1.812-1.087,3.9,3.9,0,0,1-.694-2.886,3.476,3.476,0,0,1,3.168-3.2,2.455,2.455,0,0,1,.329.021,2.75,2.75,0,0,1,1.824,1.1,3.89,3.89,0,0,1,.683,2.881A3.463,3.463,0,0,1,2094.6,507.2Z" fill-rule="evenodd"/>
          </g>
        </g>
      </g>
    </g>
  </g>
</svg>
