<svg xmlns="http://www.w3.org/2000/svg" xmlns:xlink="http://www.w3.org/1999/xlink" width="300" height="220" viewBox="0 0 300 220">
  <defs>
    <clipPath id="clip-path">
      <path id="パス_512" data-name="パス 512" d="M2300,423h300V643H2300Z" fill="none"/>
    </clipPath>
  </defs>
  <g id="グループ_406" data-name="グループ 406" transform="translate(-2300 -423)">
    <g id="グループ_405" data-name="グループ 405" clip-path="url(#clip-path)">
      <g id="グループ_404" data-name="グループ 404">
        <g id="グループ_355" data-name="グループ 355">
          <path id="パス_458" data-name="パス 458" d="M2502.373,622.514c-.354-3.889-2.841-7.1-3.772-10.835-3.1-12.4-6.44-25.357-7.551-38.1a105.418,105.418,0,0,1-.485-12.3c.12-3.925,1.112-7.269-.732-10.957-2.265-4.532-9.154-5.687-12.949-8.671q-.155-2.327-.13-4.68c1.623-1.893,2.628-4.641,3.746-6.656,1.1-1.987,3.889-4.637,5.5-6.255,5.01-5.01,12.4-12.479,13.761-19.765,1.244-6.64.542-14.93-2.5-21.016-3.014-6.026-9.534-11.659-14.262-16.388-3.6-3.6-6.526-8.484-10.943-11.006-3.061-1.75-5.305-3.745-9.2-4-15.846-1.058-30.528,10.3-39.9,22.017-4.8,6-8.8,11.3-9.506,19.265-1.108,12.545,5.06,23.427,11.882,33.4a78.5,78.5,0,0,0,6.163,8.207,25.451,25.451,0,0,0-1.561,4.719,70.068,70.068,0,0,0-2.8,20.575c0,18.06,1.992,43.105,17.894,54.905,4.6,3.415,11.35,1.931,16.559,1.217a88.48,88.48,0,0,0,8.771-1.238,90.917,90.917,0,0,0,5.96,15.118c1.222,2.352,2.123,4.971,4.26,6.7,1.785,1.44,4.191.613,5.966-.366a59.856,59.856,0,0,0,12.662-9.494C2500.223,625.924,2502.526,624.193,2502.373,622.514Z" fill="#fdeee9" fill-rule="evenodd"/>
          <g id="グループ_353" data-name="グループ 353">
            <path id="パス_459" data-name="パス 459" d="M2513.583,560.686c-.95-2.8-3.173-8.686-4.146-11.921A91.5,91.5,0,0,1,2506,531.374c-2.369-21.32-1.3-44.313-6.54-65.258-2.788-11.153-9.383-23.151-19.74-27.34-3.674-1.488-7.5-2.842-12.247-1.649a.737.737,0,0,0-.569.6c-4.192-4.272-12.2-5.182-16.25-5.41-3.425-.188-5.783.448-9.194,1.13-5.636,1.127-10.971,7.9-14.555,11.938-7.866,8.849-10.7,18.9-13.755,28.891-2.906,9.49-4.538,23.513-6.705,32.95-2.4,10.458-4.1,24.353-5.43,33.964a165.316,165.316,0,0,0-.76,40.031c1.681,16.244,9.909,24.406,14.534,39.666,1.928,6.365,4.125,14.7,2.661,21.438-.906,4.166-3.15,6.58-6.586,8.544-1.223.7-1.79,3.146.689,3.146a35.041,35.041,0,0,0,4.732-.347,30.671,30.671,0,0,0,5.884,1.155c8.266.55,22.391,2.383,25.267-8.155a14.725,14.725,0,0,0,.7-5.324,67.009,67.009,0,0,0-.56-9.249c-.759-5.319-2.677-8.924-4.112-14.086-2.88-10.367-8.132-25.354-10.755-39.294a158.039,158.039,0,0,1-2.331-23.8,30.363,30.363,0,0,0,3.962-9.208,87.667,87.667,0,0,0,1.517-12.58s-5.661-7.178-7.585-11.795a78.309,78.309,0,0,1-3.084-10.131c-.056-.223-.489-3.475-.489-3.475a8.194,8.194,0,0,1-3.387-1.091,26.235,26.235,0,0,1-3.465-3.071c-2.262-1.979-3.251-7.138-3.375-9.985-.141-3.255,1.723-6.787,5.688-5.716,2.059.556,4.828,3.792,4.828,3.792l.678-8.481a12.364,12.364,0,0,0,5.356-1.182,24.158,24.158,0,0,0,5.411-4.033,29.128,29.128,0,0,0,6.887-4.574c4.317-4.316,6.628-13.11,11.656-16.629,2.279-1.594,3.7.318,5.721,1.113a7.419,7.419,0,0,0,5.163.185c.786.08,2.035-.3,3.187-.289a5.259,5.259,0,0,1,3.551,1.374c3.2,4.053,6.25,10.864,8.551,15.558s9.2,9.643,9.2,9.643l-.324,8.351s3.2-1.479,4.962-1.107c4.468.945,3.9,6.259,3.781,8.322a17.5,17.5,0,0,1-3.249,8.713c-1.138,1.463-2.584,1.793-3.8,2.833-.869.745-3.249-.427-3.249-.427s-4.461,11.532-7.867,15.7c-2.158,2.636-6.312,7.867-6.312,7.867l-.323,6.924a64.338,64.338,0,0,1,8.089,4.594c2.644,1.983,2.5,3.338,2.5,3.338a9.3,9.3,0,0,1,2.561,2.3,4.415,4.415,0,0,1,.62,2.647,3.322,3.322,0,0,1,.455,2.485c-.644,4.106-2.686,9.062-2.307,15.258a87.147,87.147,0,0,0,2.449,16.728c1.664,6.4,4.287,12.889,6.206,18.262,1.278,3.576,1.974,5.2,3.243,8.774.4,1.127,2.7,6.441,2.7,6.441s.533-6.353.93-8.727c1.624-9.738,1.215-20.024,6.325-28.964,2.04-3.569,6.358-10.72,7.185-14.85C2515.671,566.014,2514.641,563.792,2513.583,560.686Z" fill="#eac6b0" fill-rule="evenodd"/>
            <path id="パス_460" data-name="パス 460" d="M2478.122,630.557c-1.863-6.666-7.445-24.88-7.445-24.88s-2.538,12.018-2.923,13.953c-1.549,7.747-2.245,16.8-.139,24.519.639,2.346,1.184,5.483,2.8,7.427,2.125,2.549,6.27,2.858,9.34,3.039a41.4,41.4,0,0,0,5.029-.935s-1.976-7.8-2.695-10.214C2480.893,639.437,2479.249,634.59,2478.122,630.557Z" fill="#f7dcad" fill-rule="evenodd"/>
          </g>
          <g id="グループ_354" data-name="グループ 354">
            <path id="パス_461" data-name="パス 461" d="M2531.848,586.216c-1.709-6.275-6.255-11.231-11.561-14.767a56.111,56.111,0,0,0-5.067-2.513,49.616,49.616,0,0,1-2.512,5.889c-2.715,3.951-6.563,9.728-8.316,14.206-3.006,7.684-1.974,15.188-2.783,23.276a34.13,34.13,0,0,1-1.923,7.41l.919,2.943a43.889,43.889,0,0,1-4.6,4.87c-1.875,1.52-9.019,4.747-13.235,5.373a7.391,7.391,0,0,1-3.7-.39s1.546,7.462,1.579,7.574c1.227,3.95,2.6,7.912,3.644,11.909.319,1.221.276,2.061,1.657,2.521,3.576,1.19,8.614.83,14.355.377s10.234-2.682,17.606-2.116c1.7.131,11.979,2.518,12.7.353,1.822-5.47,2.1-17.1,2.621-22.868.585-6.441.562-14.736.683-21.074C2534.058,601.278,2534.015,594.151,2531.848,586.216Z" fill="#eea9aa" fill-rule="evenodd"/>
            <path id="パス_462" data-name="パス 462" d="M2470.9,650.889c-3.045-3.995-3.308-5.5-4.272-9.416-2.563-10.436,3.581-32.822,3.581-32.822s-8.314,3.9-15.835,3.806a40.312,40.312,0,0,1-13.129-2.812s2.354,9.381,3.8,14.957a71.377,71.377,0,0,1,1.565,14.343c0,3.2-.82,5.674-1.623,8.8-.53,2.069-2.719,4.468-3,5.5-.314,1.176,8.2.958,12.393-.366,7.185-2.265,11.969-.8,19.095.978A19.141,19.141,0,0,1,2470.9,650.889Z" fill="#eea9aa" fill-rule="evenodd"/>
            <path id="パス_463" data-name="パス 463" d="M2473.59,653.885l-.109-.028C2473.94,654.233,2473.864,653.955,2473.59,653.885Z" fill="#eea9aa" fill-rule="evenodd"/>
            <path id="パス_464" data-name="パス 464" d="M2413.172,609.889s-5.769-3.692-9.346-14.477a93.43,93.43,0,0,1-3.806-16.672c-.954-7.74-.608-8.152-.608-8.152s-6.163,1.159-8.137,1.552c-4.53.908-9.812,4.185-13.127,7.587-2.445,2.507-5.339,9.668-6.3,12.877-2.767,9.222-3.595,19.6-4.219,29.388-.27,4.251-.627,9.017-.77,13.277-.192,5.736-.794,9.2-.794,14.968,0,.9.1,4.256,2.621,4.256,5.32,0,8.484-1.273,12.478-1.064,3.872.2,8.826,1.09,14.2,1.316,5.072.212,10.572-.2,14.114-1.3,4.67-1.458,7.86-7.471,8.02-11.768a106.535,106.535,0,0,0-1.008-17.435A98.131,98.131,0,0,0,2413.172,609.889Z" fill="#eea9aa" fill-rule="evenodd"/>
          </g>
        </g>
        <g id="グループ_403" data-name="グループ 403">
          <g id="グループ_356" data-name="グループ 356">
            <path id="パス_465" data-name="パス 465" d="M2489.888,494.4a1.362,1.362,0,0,1-1.36-1.586c.284-1.816.44-5.551.48-6.653a1.349,1.349,0,0,1,1.362-1.326,1.405,1.405,0,0,1,1.019.438,1.368,1.368,0,0,1,.37.981,69.279,69.279,0,0,1-.513,6.988A1.383,1.383,0,0,1,2489.888,494.4Z"/>
          </g>
          <g id="グループ_357" data-name="グループ 357">
            <path id="パス_466" data-name="パス 466" d="M2424.97,493.089a1.377,1.377,0,0,1-1.378-1.374,43.4,43.4,0,0,1,.794-8.385,1.376,1.376,0,0,1,1.346-1.106,1.325,1.325,0,0,1,.272.027,1.377,1.377,0,0,1,1.078,1.618,40.8,40.8,0,0,0-.739,7.846A1.375,1.375,0,0,1,2424.97,493.089Z"/>
          </g>
          <g id="グループ_358" data-name="グループ 358">
            <path id="パス_467" data-name="パス 467" d="M2422.547,508.563a1.409,1.409,0,0,1-.325-.039c-2.76-.69-5.339-3.93-6.026-5.011a18.227,18.227,0,0,1-3.031-11.45,6.137,6.137,0,0,1,2.98-5.013,5.508,5.508,0,0,1,2.741-.709,6.56,6.56,0,0,1,2.886.691,11.289,11.289,0,0,1,3.3,2.835c.345.384.617.689.887.961a1.375,1.375,0,0,1-1.948,1.942c-.314-.314-.629-.666-.953-1.028a9.24,9.24,0,0,0-2.485-2.235,3.9,3.9,0,0,0-1.684-.413,2.81,2.81,0,0,0-1.393.352,3.485,3.485,0,0,0-1.588,2.867,15.544,15.544,0,0,0,2.613,9.727c.863,1.352,2.94,3.458,4.362,3.814a1.376,1.376,0,0,1,1,1.667A1.375,1.375,0,0,1,2422.547,508.563Z"/>
          </g>
          <g id="グループ_359" data-name="グループ 359">
            <path id="パス_468" data-name="パス 468" d="M2421.771,498.927a1.38,1.38,0,0,1-1.121-.577c-.206-.288-.4-.575-.594-.864a11.755,11.755,0,0,0-1.719-2.165,1.376,1.376,0,0,1,1.853-2.034,13.849,13.849,0,0,1,2.123,2.627c.194.288.379.563.577.841a1.357,1.357,0,0,1,.237,1.022,1.372,1.372,0,0,1-.559.895A1.355,1.355,0,0,1,2421.771,498.927Z"/>
          </g>
          <g id="グループ_360" data-name="グループ 360">
            <path id="パス_469" data-name="パス 469" d="M2490.427,513.079a4.42,4.42,0,0,1-2.664-.9,1.376,1.376,0,1,1,1.636-2.213,1.768,1.768,0,0,0,1.072.362c1.64,0,3.608-2.129,4.227-2.95a16.4,16.4,0,0,0,2.667-11.015c-.13-1.179-.556-2.7-1.852-3.284a2.811,2.811,0,0,0-1.152-.231,5.931,5.931,0,0,0-3.319,1.266,1.377,1.377,0,0,1-1.6-2.24,8.634,8.634,0,0,1,4.928-1.776,5.53,5.53,0,0,1,2.268.468c1.936.866,3.167,2.816,3.464,5.491a19.329,19.329,0,0,1-3.194,12.963C2495.519,510.895,2492.988,513.079,2490.427,513.079Z"/>
          </g>
          <g id="グループ_361" data-name="グループ 361">
            <path id="パス_470" data-name="パス 470" d="M2491.932,502.21a1.377,1.377,0,0,1-1.1-2.2,24.747,24.747,0,0,1,2.444-2.926,1.376,1.376,0,0,1,1.947,1.945,22.032,22.032,0,0,0-2.166,2.6A1.392,1.392,0,0,1,2491.932,502.21Z"/>
          </g>
          <g id="グループ_362" data-name="グループ 362">
            <path id="パス_471" data-name="パス 471" d="M2468.7,539.868a1.369,1.369,0,0,1-1.231-.766,1.378,1.378,0,0,1,.626-1.845c5-2.466,8.935-7.823,11.806-12.215,4.441-6.784,7.262-13.566,8.162-19.613a1.38,1.38,0,0,1,1.359-1.173,1.524,1.524,0,0,1,.2.015,1.378,1.378,0,0,1,1.161,1.558c-.959,6.444-3.926,13.608-8.58,20.721-3.068,4.686-7.307,10.419-12.9,13.175A1.368,1.368,0,0,1,2468.7,539.868Z"/>
          </g>
          <g id="グループ_363" data-name="グループ 363">
            <path id="パス_472" data-name="パス 472" d="M2454.225,542.131a23.931,23.931,0,0,1-13.889-4.627l-.628-.413c-7.55-4.941-11.633-13.739-13.728-20.25-1.329-4.119-2.943-9.839-3.088-13.689a1.38,1.38,0,0,1,1.322-1.428h0a1.394,1.394,0,0,1,1.427,1.324c.131,3.524,1.679,8.988,2.955,12.951,1.962,6.089,5.743,14.291,12.617,18.788l.649.431a21.488,21.488,0,0,0,12.427,4.164,1.375,1.375,0,0,1-.042,2.749Z"/>
          </g>
          <g id="グループ_364" data-name="グループ 364">
            <path id="パス_473" data-name="パス 473" d="M2454.5,523.139a1.374,1.374,0,0,1-1.263-.829,1.374,1.374,0,0,1,.716-1.81,14.5,14.5,0,0,1,5.753-1.278h.152c1.682.015,2.69.479,3,1.378a1.374,1.374,0,0,1-.845,1.748,1.389,1.389,0,0,1-.453.076,1.371,1.371,0,0,1-.963-.393,7.253,7.253,0,0,0-.763-.055h-.167a11.661,11.661,0,0,0-4.618,1.05A1.356,1.356,0,0,1,2454.5,523.139Z"/>
          </g>
          <g id="グループ_365" data-name="グループ 365">
            <path id="パス_474" data-name="パス 474" d="M2458.646,509.093a1.374,1.374,0,0,1-1.266-1.917,1.357,1.357,0,0,1,.759-.736,1.509,1.509,0,0,0,.777-.86,2.1,2.1,0,0,0,.053-1.545,17.251,17.251,0,0,0-1.179-2.179c-1.081-1.784-2.2-3.626-1.416-6.753.022-.084.038-.171.055-.26a3.3,3.3,0,0,1,.844-1.854,1.376,1.376,0,0,1,1.948,1.944c-.014.036-.057.26-.085.408,0,.009-.069.329-.092.426-.5,2.019.134,3.071,1.1,4.662a20.041,20.041,0,0,1,1.354,2.522,4.844,4.844,0,0,1-.04,3.682,4.227,4.227,0,0,1-2.3,2.363A1.412,1.412,0,0,1,2458.646,509.093Z"/>
          </g>
          <g id="グループ_366" data-name="グループ 366">
            <path id="パス_475" data-name="パス 475" d="M2479.191,488.44a1.431,1.431,0,0,1-.946-.49,4.916,4.916,0,0,0-3.825-1.408,7.516,7.516,0,0,0-4.414,1.339,1.059,1.059,0,0,1-.754.3,1.162,1.162,0,0,1-1.026-.591,1.253,1.253,0,0,1-.192-.967,1.186,1.186,0,0,1,.538-.853,9.553,9.553,0,0,1,5.815-1.87,7.415,7.415,0,0,1,5.761,2.288,1.543,1.543,0,0,1-.012,1.894l-.15.173-.269.048A1.436,1.436,0,0,1,2479.191,488.44Z"/>
          </g>
          <g id="グループ_367" data-name="グループ 367">
            <path id="パス_476" data-name="パス 476" d="M2437.354,487.008a1.611,1.611,0,0,1-.987-.455,1.458,1.458,0,0,1,0-1.976,16.307,16.307,0,0,1,9.715-3.873,8.831,8.831,0,0,1,4.342,1.08,1.018,1.018,0,0,1,.576.593,1.489,1.489,0,0,1-.048,1.193,1.152,1.152,0,0,1-1.138.7,1.518,1.518,0,0,1-.656-.147,6.132,6.132,0,0,0-3.081-.766,13.058,13.058,0,0,0-7.707,3.04A1.151,1.151,0,0,1,2437.354,487.008Z"/>
          </g>
          <g id="グループ_368" data-name="グループ 368">
            <path id="パス_477" data-name="パス 477" d="M2473.921,498.313a2.668,2.668,0,1,1,2.8-2.664A2.738,2.738,0,0,1,2473.921,498.313Z" fill-rule="evenodd"/>
          </g>
          <g id="グループ_369" data-name="グループ 369">
            <path id="パス_478" data-name="パス 478" d="M2441.763,496.776a2.666,2.666,0,1,1,2.8-2.662A2.736,2.736,0,0,1,2441.763,496.776Z" fill-rule="evenodd"/>
          </g>
          <g id="グループ_370" data-name="グループ 370">
            <path id="パス_479" data-name="パス 479" d="M2494.92,487.156a1.408,1.408,0,0,1-.3-.034c-10.45-2.4-14.455-10.664-17.988-17.961-.76-1.569-1.4-2.869-2.065-4.115-.2-.372-.392-.749-.582-1.122l-.056-.11a10.916,10.916,0,0,0-2.826-4.009,3,3,0,0,0-1.823-.728,2.79,2.79,0,0,0-1.031.215,1.376,1.376,0,0,1-1.016-2.558,5.557,5.557,0,0,1,2.05-.412,5.666,5.666,0,0,1,3.483,1.289,13.156,13.156,0,0,1,3.615,4.957c.2.39.4.784.608,1.172.711,1.318,1.4,2.731,2,3.978l.118.243c3.427,7.071,6.968,14.379,16.121,16.477a1.376,1.376,0,0,1-.308,2.718Z"/>
          </g>
          <g id="グループ_371" data-name="グループ 371">
            <path id="パス_480" data-name="パス 480" d="M2466.633,456.541a1.375,1.375,0,0,1-.975-2.347,7.986,7.986,0,0,0,1.689-4.3c.756-4.628.116-8.516-1.955-11.882a1.377,1.377,0,0,1,1.17-2.1,1.384,1.384,0,0,1,1.173.655c2.433,3.958,3.195,8.462,2.327,13.77-.44,2.685-1.243,4.58-2.456,5.8A1.361,1.361,0,0,1,2466.633,456.541Z"/>
          </g>
          <g id="グループ_372" data-name="グループ 372">
            <path id="パス_481" data-name="パス 481" d="M2462.85,458.159a1.381,1.381,0,0,1-.432-.069,1.377,1.377,0,0,1-.872-1.742,6.8,6.8,0,0,0-.762-5.111,3.6,3.6,0,0,0-2.249-1.885,1.376,1.376,0,0,1,.265-2.725,1.362,1.362,0,0,1,.279.029,6.271,6.271,0,0,1,4.085,3.2,9.61,9.61,0,0,1,.992,7.366A1.381,1.381,0,0,1,2462.85,458.159Z"/>
          </g>
          <g id="グループ_373" data-name="グループ 373">
            <path id="パス_482" data-name="パス 482" d="M2430.888,480.375a13.909,13.909,0,0,1-6.424-1.5,1.376,1.376,0,0,1,.63-2.6,1.393,1.393,0,0,1,.63.154,11.029,11.029,0,0,0,5.1,1.173,16.347,16.347,0,0,0,12.352-6.042,82.3,82.3,0,0,0,4.928-7.77l1.062-1.8.1-.186c.587-1.131,2.38-4.583,4.477-6.041a5.683,5.683,0,0,1,3.253-1.041,4.606,4.606,0,0,1,3.851,1.909,1.383,1.383,0,0,1-.338,1.918,1.36,1.36,0,0,1-.789.25,1.378,1.378,0,0,1-1.127-.586,1.948,1.948,0,0,0-1.621-.746,2.92,2.92,0,0,0-1.66.555c-.7.485-1.891,1.757-3.612,5.059-.083.162-.144.275-.172.319l-1.135,1.934a82.771,82.771,0,0,1-5.017,7.878A18.934,18.934,0,0,1,2430.888,480.375Z"/>
          </g>
          <g id="グループ_374" data-name="グループ 374">
            <path id="パス_483" data-name="パス 483" d="M2426.693,484.494a10.5,10.5,0,0,1-3.835-.711c-.882-.356-2.962-1.34-3.288-2.838a1.377,1.377,0,0,1,1.047-1.635,1.372,1.372,0,0,1,1.615.95,5.677,5.677,0,0,0,1.634.961,7.755,7.755,0,0,0,2.84.526,8.007,8.007,0,0,0,5.32-1.989,1.383,1.383,0,0,1,1.945.1,1.365,1.365,0,0,1,.351,1,1.348,1.348,0,0,1-.455.945A10.8,10.8,0,0,1,2426.693,484.494Z"/>
          </g>
          <g id="グループ_375" data-name="グループ 375">
            <path id="パス_484" data-name="パス 484" d="M2484.462,550.545a1.375,1.375,0,0,1-1.3-.922c-.917-2.611-5.939-5-9.264-6.585-.454-.215-.879-.421-1.265-.608a61.948,61.948,0,0,1-6.031-3.514c-4.008-2.543-7.793-4.946-12.845-5.105a37.048,37.048,0,0,1-4.622-.534l-.135-.022c-.575-.092-1.147-.184-1.72-.263a4.35,4.35,0,0,0-.6-.042c-.108,0-.2,0-.29.01a11.008,11.008,0,0,0,3.268,2.029,28.8,28.8,0,0,0,2.9.841,21.816,21.816,0,0,1,4.692,1.572,69.893,69.893,0,0,1,8.405,5.655,1.385,1.385,0,0,1,.256,1.935,1.375,1.375,0,0,1-1.935.242,67.293,67.293,0,0,0-7.966-5.373,19.284,19.284,0,0,0-4.086-1.355,31.765,31.765,0,0,1-3.217-.933c-.044-.016-4.5-1.768-5.26-4.157a2.282,2.282,0,0,1,.289-2.039,3.339,3.339,0,0,1,2.911-1.179,7.508,7.508,0,0,1,1.009.07c.471.064.943.138,1.418.214l.495.079a34.564,34.564,0,0,0,4.271.5c5.795.184,9.886,2.777,14.219,5.523a59.811,59.811,0,0,0,5.779,3.374c.375.184.79.383,1.234.593,3.739,1.782,9.387,4.474,10.683,8.164a1.37,1.37,0,0,1-.846,1.752A1.3,1.3,0,0,1,2484.462,550.545Z"/>
          </g>
          <g id="グループ_376" data-name="グループ 376">
            <path id="パス_485" data-name="パス 485" d="M2461.466,572.107c-1.471,0-3.978-1.319-5.626-3.527-2.009-2.692-4.54-6.733-3.337-10.73a27.5,27.5,0,0,1,2.959-5.505s.426-.67.549-.871l.244-.4c2.062-3.341,4.189-6.784,6.579-7.771a8.409,8.409,0,0,1,3.213-.574c2.923,0,6.138,1.073,8.974,2.019,1,.336,1.9.63,2.656.837.249.07,1.036.279,1.036.279,4.2,1.1,9.955,2.6,10.481,8.411a1.38,1.38,0,0,1-1.246,1.495h0a1.4,1.4,0,0,1-1.488-1.245c-.351-3.88-4.837-5.057-8.439-6-.366-.095-.724-.189-1.065-.281-.822-.226-1.752-.534-2.795-.883-2.65-.882-5.649-1.881-8.1-1.881a5.712,5.712,0,0,0-2.17.37c-1.578.651-3.634,3.989-5.286,6.671l-.8,1.282a26.953,26.953,0,0,0-2.658,4.839c-.846,2.807,1.254,6.074,2.906,8.288a6.679,6.679,0,0,0,3.222,2.389,1.359,1.359,0,0,1,.527-.106,1.425,1.425,0,0,1,.416.064,1.388,1.388,0,0,1,.894,1.735,1.6,1.6,0,0,1-1.29,1.065A2.35,2.35,0,0,1,2461.466,572.107Z"/>
          </g>
          <g id="グループ_377" data-name="グループ 377">
            <path id="パス_486" data-name="パス 486" d="M2466.421,575.75a3.057,3.057,0,0,1-.908-.148c-1.8-.57-3.467-2.638-4.8-4.3-.348-.433-.651-.809-.905-1.1-.38-.422-.8-.861-1.237-1.306-1.938-2-4.135-4.264-4.28-7.309a6.242,6.242,0,0,1,1.815-4.594l.321-.383c.236-.282.457-.545.67-.828.594-.775,1.151-1.593,1.873-2.663a41.3,41.3,0,0,1,3.055-4.144,7.423,7.423,0,0,1,5.923-2.461c2.933,0,6.113,1.125,8.667,2.028.647.229,1.251.443,1.8.622.753.239,1.514.462,2.273.685.962.282,1.811.531,2.653.807l.358.119c1.847.6,4.381,1.418,5.431,3.606a5.172,5.172,0,0,1-.015,4.189,1.381,1.381,0,0,1-1.288.888,1.4,1.4,0,0,1-.481-.086,1.381,1.381,0,0,1-.8-1.776,2.552,2.552,0,0,0,.108-2.025c-.535-1.115-2.418-1.729-3.792-2.176l-.379-.127c-.845-.279-1.7-.527-2.559-.776s-1.6-.469-2.348-.709c-.575-.186-1.2-.408-1.869-.643-2.343-.828-5.258-1.86-7.724-1.86a4.866,4.866,0,0,0-3.89,1.512,39.745,39.745,0,0,0-2.812,3.823c-.681,1.011-1.333,1.968-1.991,2.833-.258.339-.519.653-.774.957-.94,1.115-1.534,1.821-1.477,3.055.095,2,1.826,3.787,3.5,5.513l.166.173c.4.417.8.826,1.158,1.231.284.317.615.727.977,1.179a14.814,14.814,0,0,0,3.213,3.295,4.412,4.412,0,0,0-.378-1.668,1.376,1.376,0,1,1,2.366-1.406c.515.864,1.309,3.664.134,5.143A2.185,2.185,0,0,1,2466.421,575.75Z"/>
          </g>
          <g id="グループ_378" data-name="グループ 378">
            <path id="パス_487" data-name="パス 487" d="M2468.227,572.393c-1.459,0-2.673-1.254-3.476-2.083-.231-.24-.388-.4-.524-.52-.341-.29-.694-.57-1.044-.849l-.171-.136c-2.481-1.967-5.289-4.2-4.295-8.507a12.126,12.126,0,0,1,1.993-3.973c.192-.269.945-1.341.945-1.342.865-1.235,1.94-2.775,2.553-3.547a3.532,3.532,0,0,1,2.971-1.224c1.854,0,4.355.778,7.252,1.68,1.586.5,3.12.971,4.7,1.385,4.353,1.143,5.311,2.583,5.41,4.394l-.491.163.5-.055a1.379,1.379,0,0,1-1.349,1.66,1.382,1.382,0,0,1-1.341-1.086,3.061,3.061,0,0,1-.061-.538c-.018-.322-.057-1.008-3.365-1.875-1.725-.455-3.427-.985-4.8-1.412a28.466,28.466,0,0,0-6.473-1.56c-.488,0-.738.1-.8.179-.538.675-1.532,2.1-2.331,3.235l-.121.175c-.382.547-.723,1.034-.965,1.373a9.7,9.7,0,0,0-1.546,2.986c-.6,2.618,1.127,3.991,3.321,5.73l.087.069c.416.331.816.651,1.2.982.2.168.447.416.719.7a5.536,5.536,0,0,0,1.428,1.222c.126-.172.379-.946-1.236-3.953l-.05-.094c-.068-.125-.721-1.09-1.545-2.255a1.383,1.383,0,0,1,.076-1.685l1.908-2.253a1.369,1.369,0,0,1,1.665-.341c1.708.841,3.8,1.844,4.3,2.042a1.388,1.388,0,0,1,.779,1.783,1.368,1.368,0,0,1-1.281.873,1.388,1.388,0,0,1-.5-.095c-.555-.221-2.168-.994-3.549-1.667l-.531.628c.628.9,1,1.467,1.114,1.68.981,1.829,3.176,5.926.259,7.725A2.525,2.525,0,0,1,2468.227,572.393Z"/>
          </g>
          <g id="グループ_379" data-name="グループ 379">
            <path id="パス_488" data-name="パス 488" d="M2469.9,586.821a1.382,1.382,0,0,1-1.282-.877c-2.059-5.28-.3-11.61,1.252-17.194a60.6,60.6,0,0,0,1.575-6.527,1.385,1.385,0,0,1,1.359-1.161,1.334,1.334,0,0,1,.215.017,1.377,1.377,0,0,1,1.145,1.568,63.259,63.259,0,0,1-1.626,6.781c-1.519,5.457-3.085,11.079-1.358,15.517a1.374,1.374,0,0,1-1.28,1.876Z"/>
          </g>
          <g id="グループ_380" data-name="グループ 380">
            <path id="パス_489" data-name="パス 489" d="M2465.79,591.492a1.365,1.365,0,0,1-1.066-.509c-.372-.453-.753-.912-1.133-1.365-4.341-5.216-8.826-10.6-6.845-20.5a1.369,1.369,0,0,1,1.624-1.079,1.375,1.375,0,0,1,1.072,1.619c-1.719,8.607,2.157,13.262,6.259,18.191l1.153,1.389a1.378,1.378,0,0,1-1.064,2.252Z"/>
          </g>
          <g id="グループ_381" data-name="グループ 381">
            <path id="パス_490" data-name="パス 490" d="M2453.288,556.265a1.377,1.377,0,0,1-1.348-1.111,15.579,15.579,0,0,0-1.638-3.884c-1.047-1.99-2.121-4.03-2.086-6.232a2.885,2.885,0,0,1,1.117-2.439,2.951,2.951,0,0,1,1.777-.532,5.523,5.523,0,0,1,1.589.26c2.7.818,5.327,3.806,6.758,6.117a1.383,1.383,0,0,1-.448,1.9,1.374,1.374,0,0,1-1.893-.447c-1.226-1.986-3.381-4.377-5.211-4.931a2.927,2.927,0,0,0-.8-.145.824.824,0,0,0-.112.006,1.223,1.223,0,0,0-.026.261c-.028,1.486.834,3.126,1.746,4.862a17.747,17.747,0,0,1,1.926,4.677,1.373,1.373,0,0,1-1.085,1.616A1.611,1.611,0,0,1,2453.288,556.265Z"/>
          </g>
          <g id="グループ_382" data-name="グループ 382">
            <path id="パス_491" data-name="パス 491" d="M2484.9,655.339a1.372,1.372,0,0,1-1.326-1.021c-1.187-4.419-4.879-17.2-8.4-29.088-2.331-7.857-4.095-13.655-4.966-16.325-.789-2.411-1.361-4.537-1.866-6.413a77.346,77.346,0,0,0-2.8-8.837,1.375,1.375,0,1,1,2.559-1.005,78.482,78.482,0,0,1,2.89,9.125c.535,1.976,1.074,3.971,1.829,6.273.873,2.675,2.645,8.5,4.986,16.4,3.542,11.94,7.242,24.748,8.424,29.158a1.381,1.381,0,0,1-.972,1.688A1.364,1.364,0,0,1,2484.9,655.339Z"/>
          </g>
          <g id="グループ_383" data-name="グループ 383">
            <path id="パス_492" data-name="パス 492" d="M2513.978,653.777a1.381,1.381,0,0,1-1.2-.706c-6.71-12.03-23.8-53.9-26.262-65.555-1.856-8.786-3.374-18.954-.576-27.762a1.363,1.363,0,0,1,1.306-.958,1.387,1.387,0,0,1,.421.066,1.371,1.371,0,0,1,.894,1.727c-2.6,8.2-1.134,17.924.645,26.36,2.369,11.217,19.51,53.193,25.977,64.779a1.376,1.376,0,0,1-.536,1.875A1.353,1.353,0,0,1,2513.978,653.777Z"/>
          </g>
          <g id="グループ_384" data-name="グループ 384">
            <path id="パス_493" data-name="パス 493" d="M2508.991,643.167a1.47,1.47,0,0,1-.216-.015,1.38,1.38,0,0,1-1.141-1.58c.638-3.9.2-9.531-.192-14.5-.319-4.09-.62-7.949-.284-10.359a44.115,44.115,0,0,1,1.882-7.27l.113-.356c.25-.784.5-1.56.718-2.327a1.385,1.385,0,0,1,1.32-.993,1.375,1.375,0,0,1,1.322,1.762c-.233.807-.494,1.629-.758,2.457l-.094.3a41.825,41.825,0,0,0-1.778,6.811c-.294,2.131-.005,5.83.3,9.746.4,5.151.857,10.951.164,15.179A1.37,1.37,0,0,1,2508.991,643.167Z"/>
          </g>
          <g id="グループ_385" data-name="グループ 385">
            <path id="パス_494" data-name="パス 494" d="M2530.692,654.9a1.386,1.386,0,0,1-.2-.013,1.374,1.374,0,0,1-1.158-1.555c1.1-7.833,2.406-20.125,2.778-28.458.636-14.275.888-28.748-1.55-37.916-1.928-7.247-5.123-10.353-12.025-14.985a29.331,29.331,0,0,0-3.784-1.743,1.377,1.377,0,0,1,1.013-2.561,32.32,32.32,0,0,1,4.306,2.019c7.363,4.945,11.008,8.511,13.148,16.564,2.535,9.524,2.286,24.249,1.639,38.744-.377,8.459-1.7,20.852-2.8,28.722A1.377,1.377,0,0,1,2530.692,654.9Z"/>
          </g>
          <g id="グループ_386" data-name="グループ 386">
            <path id="パス_495" data-name="パス 495" d="M2366.075,654.483a1.373,1.373,0,0,1-1.364-1.391c.174-12.764,2.082-36.743,3.049-44.877,1.519-12.775,3.6-30.267,18.658-35.892,2.136-.8,9.068-3.072,12.787-3.072l.279,0a1.375,1.375,0,0,1-.019,2.75l-.24,0c-2.817,0-8.623,1.7-11.845,2.9-12.458,4.654-15.1,18.569-16.888,33.641-.96,8.076-2.855,31.9-3.031,44.587a1.379,1.379,0,0,1-1.376,1.355Z"/>
          </g>
          <g id="グループ_387" data-name="グループ 387">
            <path id="パス_496" data-name="パス 496" d="M2397.256,655.36a1.381,1.381,0,0,1-1.343-1.085,121.987,121.987,0,0,1-3.233-22.839,60.742,60.742,0,0,1,.994-10.918c.7-4.569,1.425-9.289.649-13.933a1.377,1.377,0,0,1,1.134-1.582,1.4,1.4,0,0,1,.227-.018,1.372,1.372,0,0,1,1.354,1.145c.848,5.071.094,9.993-.636,14.752a58.836,58.836,0,0,0-.971,10.475,119.867,119.867,0,0,0,3.17,22.333,1.374,1.374,0,0,1-.187,1.038,1.358,1.358,0,0,1-.865.6A1.324,1.324,0,0,1,2397.256,655.36Z"/>
          </g>
          <g id="グループ_388" data-name="グループ 388">
            <path id="パス_497" data-name="パス 497" d="M2454.969,614.027a35.732,35.732,0,0,1-14.524-3.285,1.377,1.377,0,0,1-.7-1.819,1.383,1.383,0,0,1,1.257-.816,1.339,1.339,0,0,1,.558.12,32.985,32.985,0,0,0,13.406,3.04,31.318,31.318,0,0,0,14.308-3.6,1.379,1.379,0,0,1,1.847.614,1.374,1.374,0,0,1-.61,1.845A34.031,34.031,0,0,1,2454.969,614.027Z"/>
          </g>
          <g id="グループ_389" data-name="グループ 389">
            <path id="パス_498" data-name="パス 498" d="M2473.2,655.111a1.366,1.366,0,0,1-.842-.286c-4.428-3.409-7.286-12.087-7.645-17.04-.489-6.673.867-13.22,2.179-19.551a98.544,98.544,0,0,0,2.123-13.136,1.372,1.372,0,0,1,1.358-1.284,1.479,1.479,0,0,1,1.052.486,1.343,1.343,0,0,1,.333.984,100.348,100.348,0,0,1-2.165,13.483c-1.278,6.161-2.6,12.518-2.136,18.82.314,4.327,2.838,12.179,6.583,15.059a1.375,1.375,0,0,1-.84,2.465Z"/>
          </g>
          <g id="グループ_390" data-name="グループ 390">
            <path id="パス_499" data-name="パス 499" d="M2477.812,655.567a1.4,1.4,0,0,1-.828-.277c-7.23-5.571-6.922-13.693-6.623-21.548l.045-1.1a1.357,1.357,0,0,1,1.36-1.324,1.39,1.39,0,0,1,1.388,1.426l-.041,1.1c-.276,7.159-.562,14.56,5.54,19.261a1.383,1.383,0,0,1,.251,1.931A1.367,1.367,0,0,1,2477.812,655.567Z"/>
          </g>
          <g id="グループ_391" data-name="グループ 391">
            <path id="パス_500" data-name="パス 500" d="M2500.752,618.549a1.377,1.377,0,0,1-1.231-1.994c.833-1.668.734-8.232.691-11.034-.01-.637-.017-1.18-.017-1.585,0-.667,0-1.325-.008-1.982-.041-7.421-.079-14.428,4.85-23.79a1.371,1.371,0,0,1,1.217-.737,1.387,1.387,0,0,1,.643.159,1.379,1.379,0,0,1,.576,1.857c-4.609,8.754-4.573,15.423-4.534,22.483l.006,2.008c0,.283.018,1.545.018,1.545.075,4.854.067,10.209-.983,12.31A1.36,1.36,0,0,1,2500.752,618.549Z"/>
          </g>
          <g id="グループ_392" data-name="グループ 392">
            <path id="パス_501" data-name="パス 501" d="M2480.95,634.428a1.377,1.377,0,0,1,0-2.754c7.7,0,16.189-5.352,18.356-9.956a1.383,1.383,0,0,1,1.246-.79,1.375,1.375,0,0,1,1.243,1.961C2498.955,628.928,2489.02,634.428,2480.95,634.428Z"/>
          </g>
          <g id="グループ_393" data-name="グループ 393">
            <path id="パス_502" data-name="パス 502" d="M2505.423,588.177a1.462,1.462,0,0,1-.365-.05,1.381,1.381,0,0,1-.844-.669,1.362,1.362,0,0,1-.108-1.049,25.113,25.113,0,0,1,5.2-9.314,19.481,19.481,0,0,0,4.314-7.785c.651-2.517-1-7.212-2.086-10.319l-.046-.132c-.183-.523-.347-.988-.486-1.406-.343-1.033-.7-2.078-1.073-3.134l-.243-.7a90.592,90.592,0,0,1-3.991-13.735A262.57,262.57,0,0,1,2502.9,509.2c-.485-14.063-1.33-28.661-4.2-40.16-2.633-10.526-5.9-18.479-14.015-25.583-3.066-2.681-8.582-5.53-12.769-5.53a6.644,6.644,0,0,0-2.092.306,1.377,1.377,0,0,1-.874-2.611,9.343,9.343,0,0,1,2.947-.443c4.875,0,11.159,3.2,14.6,6.206,8.663,7.581,12.115,15.948,14.876,26.991,2.933,11.725,3.793,26.5,4.285,40.728a260.1,260.1,0,0,0,2.752,30.3,88.409,88.409,0,0,0,3.876,13.295l.154.439c.4,1.156.8,2.306,1.183,3.442.147.448.321.949.513,1.49,1.273,3.635,3.016,8.609,2.157,11.925a22.048,22.048,0,0,1-4.8,8.78,22.969,22.969,0,0,0-4.743,8.409A1.382,1.382,0,0,1,2505.423,588.177Z"/>
          </g>
          <g id="グループ_394" data-name="グループ 394">
            <path id="パス_503" data-name="パス 503" d="M2474.014,542.379a1.377,1.377,0,0,1-1.375-1.376c0-1.074.042-2.125.083-3.141.045-1.078.088-2.1.088-3.13a1.376,1.376,0,1,1,2.752,0c0,1.065-.042,2.115-.084,3.13-.049,1.164-.088,2.142-.088,3.141A1.378,1.378,0,0,1,2474.014,542.379Z"/>
          </g>
          <g id="グループ_395" data-name="グループ 395">
            <path id="パス_504" data-name="パス 504" d="M2430.3,556.381a1.378,1.378,0,0,1-1.179-2.087c3.087-5.144,5.394-15.833,5.394-21.954a1.375,1.375,0,1,1,2.75,0c0,6.495-2.375,17.69-5.783,23.368A1.371,1.371,0,0,1,2430.3,556.381Z"/>
          </g>
          <g id="グループ_396" data-name="グループ 396">
            <path id="パス_505" data-name="パス 505" d="M2442.276,655.111a1.361,1.361,0,0,1-.859-.3,1.38,1.38,0,0,1-.214-1.934c5.356-6.693,5.234-20.159-.349-38.941q-.837-2.82-1.688-5.621l-.184-.611c-5.13-16.968-9.977-33-9.977-50.717,0-5.568,0-11.879,1.971-17.793a1.376,1.376,0,0,1,1.3-.942,1.4,1.4,0,0,1,.436.071,1.379,1.379,0,0,1,.872,1.74c-1.832,5.491-1.832,11.565-1.832,16.924,0,17.3,4.788,33.143,9.857,49.915q.945,3.12,1.879,6.249c5.851,19.685,5.8,34.017-.14,41.447A1.38,1.38,0,0,1,2442.276,655.111Z"/>
          </g>
          <g id="グループ_397" data-name="グループ 397">
            <path id="パス_506" data-name="パス 506" d="M2435.653,654.956a1.376,1.376,0,0,1-.845-2.462c5.71-4.438,4.319-12.688,3.756-15.112a1.375,1.375,0,1,1,2.679-.623c.655,2.827,2.248,12.467-4.748,17.908A1.4,1.4,0,0,1,2435.653,654.956Z"/>
          </g>
          <g id="グループ_398" data-name="グループ 398">
            <path id="パス_507" data-name="パス 507" d="M2416.169,655.3a1.367,1.367,0,0,1-1.317-.981,1.383,1.383,0,0,1,.921-1.713c3.756-1.126,4.544-7.023,4.544-11.771a1.376,1.376,0,0,1,2.752,0c0,8.149-2.249,13.131-6.505,14.406A1.335,1.335,0,0,1,2416.169,655.3Z"/>
          </g>
          <g id="グループ_399" data-name="グループ 399">
            <path id="パス_508" data-name="パス 508" d="M2409.456,654.9a1.384,1.384,0,0,1-1.321-.995,1.376,1.376,0,0,1,.939-1.7c5.595-1.614,6.958-9.6,7.117-16.009.255-10.154-2.789-20.451-5.732-30.409a158.827,158.827,0,0,1-5.006-20.089,1.382,1.382,0,0,1,1.151-1.573,1.264,1.264,0,0,1,.215-.017,1.37,1.37,0,0,1,1.355,1.162,156.01,156.01,0,0,0,4.922,19.729c3.005,10.169,6.112,20.684,5.847,31.268-.26,10.513-3.409,16.938-9.105,18.58A1.381,1.381,0,0,1,2409.456,654.9Z"/>
          </g>
          <g id="グループ_400" data-name="グループ 400">
            <path id="パス_509" data-name="パス 509" d="M2410.666,609.071a1.366,1.366,0,0,1-.9-.334c-6.831-5.866-10.5-23.357-11.2-30.908-1.218-12.975-.405-28.577,2.351-45.118.773-4.642,1.5-9.225,2.2-13.656,2.595-16.388,5.046-31.868,9.564-48.428,3.211-11.773,12.949-31.506,26.621-37.62a27.36,27.36,0,0,1,10.839-1.983,29.709,29.709,0,0,1,12.766,2.606,1.376,1.376,0,0,1-1.228,2.463,26.984,26.984,0,0,0-11.555-2.3,24.579,24.579,0,0,0-9.7,1.728c-11.453,5.121-21.291,21.9-25.09,35.83-4.491,16.472-6.924,31.853-9.5,48.137-.7,4.437-1.431,9.027-2.2,13.677-2.721,16.3-3.526,31.66-2.329,44.41.646,6.907,4.127,23.817,10.257,29.079a1.376,1.376,0,0,1-.9,2.419Z"/>
          </g>
          <g id="グループ_401" data-name="グループ 401">
            <path id="パス_510" data-name="パス 510" d="M2468.56,561.526a1.384,1.384,0,0,1-1.333-1.047l-.139-.537c-.117-.467-.238-.949-.327-1.445a1.349,1.349,0,0,1,.223-1.028,1.378,1.378,0,0,1,2.486.539c.083.465.2.917.315,1.368l.111.438a1.38,1.38,0,0,1-1,1.672A1.352,1.352,0,0,1,2468.56,561.526Z"/>
          </g>
          <g id="グループ_402" data-name="グループ 402">
            <path id="パス_511" data-name="パス 511" d="M2466.249,564.092c-.375,0-.385,0-.6-.013-.142-.008-.412-.019-1.045-.044a1.351,1.351,0,0,1-.957-.441,1.372,1.372,0,0,1-.363-.985,1.347,1.347,0,0,1,1.355-1.325c.651.022.935.036,1.1.045l.333.012.749-.007.143,1.312,0,1.308h-.134l-.016.138Z"/>
          </g>
        </g>
      </g>
    </g>
  </g>
</svg>
