<svg height="148" viewBox="0 0 148 148" width="148" xmlns="http://www.w3.org/2000/svg" xmlns:xlink="http://www.w3.org/1999/xlink"><linearGradient id="a" gradientUnits="objectBoundingBox" x1=".5" x2=".5" y2="1"><stop offset="0" stop-color="#ffcd79"/><stop offset="1" stop-color="#ff9a24"/></linearGradient><path d="m74 0a74 74 0 1 1 -74 74 74 74 0 0 1 74-74z" fill="url(#a)"/><path d="m42.857-9.174c0-17.612-4.353-37.969-21.9-37.969a29.9 29.9 0 0 1 -20.957 8.572 29.9 29.9 0 0 1 -20.96-8.571c-17.545 0-21.9 20.357-21.9 37.969 0 9.777 6.429 17.746 14.263 17.746h57.191c7.835-.002 14.263-7.973 14.263-17.747zm-17.143-59.4a25.721 25.721 0 0 0 -25.714-25.712 25.721 25.721 0 0 0 -25.714 25.714 25.721 25.721 0 0 0 25.714 25.715 25.721 25.721 0 0 0 25.714-25.715z" fill="#fff" transform="translate(74 113)"/></svg>