<svg xmlns="http://www.w3.org/2000/svg" viewBox="0 0 328.5 336.6"><path d="M164.3 336.6a151.6 151.6 0 0 1-16.8-1A151.2 151.2 0 0 1 131 333a153.5 153.5 0 0 1-15.7-4.4 157.3 157.3 0 0 1-15-6 162 162 0 0 1-14.4-7.6A166.9 166.9 0 0 1 48 284.5 177.7 177.7 0 0 1 0 164.2a166.9 166.9 0 0 1 .8-16.7A164.7 164.7 0 0 1 3.3 131 164 164 0 0 1 131.1 3.3 164.7 164.7 0 0 1 147.5.8a166.7 166.7 0 0 1 33.5 0 164.7 164.7 0 0 1 16.4 2.5 164 164 0 0 1 127.8 127.8 164.7 164.7 0 0 1 2.5 16.4 166.9 166.9 0 0 1 .8 16.7 169.6 169.6 0 0 1-13 65.3 180.5 180.5 0 0 1-59.4 76.5c-4.4 3.2-9 6.2-13.6 9a162 162 0 0 1-14.3 7.4 157.3 157.3 0 0 1-15.1 6 153.5 153.5 0 0 1-15.7 4.5 151.2 151.2 0 0 1-16.4 2.8 149.2 149.2 0 0 1-16.8 1zm.1-236.2a64.5 64.5 0 0 0-12.9 1.3 63.7 63.7 0 0 0-22.9 9.6 64.2 64.2 0 0 0-23.2 28.2 63.7 63.7 0 0 0-3.7 12 64.7 64.7 0 0 0 0 25.8 63.7 63.7 0 0 0 9.6 23 64.2 64.2 0 0 0 28.2 23.1 63.7 63.7 0 0 0 12 3.8 64.7 64.7 0 0 0 25.8 0 63.7 63.7 0 0 0 23-9.7 64.2 64.2 0 0 0 23.1-28.2 63.7 63.7 0 0 0 3.8-12 64.7 64.7 0 0 0 0-25.8 63.7 63.7 0 0 0-9.7-22.9 64.2 64.2 0 0 0-28.2-23.2 63.7 63.7 0 0 0-12-3.7 64.5 64.5 0 0 0-12.9-1.3z" fill="#ffae24"/></svg>