<svg id="コンポーネント_6_1" data-name="コンポーネント 6 – 1" xmlns="http://www.w3.org/2000/svg" width="50" height="50" viewBox="0 0 50 50">
  <rect id="長方形_882" data-name="長方形 882" width="50" height="50" fill="none"/>
  <g id="グループ_9674" data-name="グループ 9674" transform="translate(7 1)">
    <path id="パス_14665" data-name="パス 14665" d="M23,44H.5V3h10" transform="translate(0 -0.5)" fill="none" stroke="#07273c" stroke-miterlimit="10" stroke-width="1"/>
    <path id="パス_14666" data-name="パス 14666" d="M22.5,3h10V35" transform="translate(0 -0.5)" fill="none" stroke="#07273c" stroke-miterlimit="10" stroke-width="1"/>
    <line id="線_131" data-name="線 131" x2="19" transform="translate(7 13.5)" fill="none" stroke="#07273c" stroke-miterlimit="10" stroke-width="1"/>
    <line id="線_132" data-name="線 132" x2="19" transform="translate(7 19.5)" fill="none" stroke="#07273c" stroke-miterlimit="10" stroke-width="1"/>
    <line id="線_133" data-name="線 133" x2="19" transform="translate(7 25.5)" fill="none" stroke="#07273c" stroke-miterlimit="10" stroke-width="1"/>
    <line id="線_134" data-name="線 134" x2="19" transform="translate(7 31.5)" fill="none" stroke="#07273c" stroke-miterlimit="10" stroke-width="1"/>
    <path id="パス_14667" data-name="パス 14667" d="M11,1.169V6.134A.965.965,0,0,0,12.04,7H12.5a1,1,0,0,0,1.03-.751l.016-.1a3.524,3.524,0,0,1,3.667-2.6,3.525,3.525,0,0,1,3.668,2.6l.016.106A1.007,1.007,0,0,0,21.944,7,.971.971,0,0,0,23,6.147V1.169A.745.745,0,0,0,22.2.5H11.8A.745.745,0,0,0,11,1.169Z" transform="translate(-0.5)" fill="none" stroke="#07273c" stroke-miterlimit="10" stroke-width="1"/>
    <circle id="楕円形_102" data-name="楕円形 102" cx="7" cy="7" r="7" transform="translate(22.5 34.5)" fill="none" stroke="#07273c" stroke-miterlimit="10" stroke-width="1"/>
    <path id="パス_14668" data-name="パス 14668" d="M25.612,41.326l2.855,2.546,4.117-5.035" fill="none" stroke="#07273c" stroke-linecap="round" stroke-miterlimit="10" stroke-width="1"/>
  </g>
</svg>
