<svg id="コンポーネント_2_1" data-name="コンポーネント 2 – 1" xmlns="http://www.w3.org/2000/svg" xmlns:xlink="http://www.w3.org/1999/xlink" width="50" height="50" viewBox="0 0 50 50">
  <defs>
    <clipPath id="clip-path">
      <rect id="長方形_872" data-name="長方形 872" width="49" height="49" fill="none"/>
    </clipPath>
  </defs>
  <rect id="長方形_877" data-name="長方形 877" width="50" height="50" fill="none"/>
  <g id="グループ_9664" data-name="グループ 9664">
    <g id="グループ_9663" data-name="グループ 9663" clip-path="url(#clip-path)">
      <path id="パス_14645" data-name="パス 14645" d="M44.609,43.831a8.029,8.029,0,0,0-3.29-1.727L32.833,39.64a1.846,1.846,0,0,1-1.321-1.561l-.392-3.358A14.475,14.475,0,0,0,36.1,26.9c1.515-.134,2.679-1.819,2.679-3.946,0-1.965-.987-3.553-2.339-3.893" fill="none" stroke="#07273c" stroke-linecap="round" stroke-miterlimit="10" stroke-width="1"/>
      <path id="パス_14646" data-name="パス 14646" d="M12.491,19.081c-1.314.375-2.265,1.941-2.265,3.872,0,2.124,1.157,3.807,2.67,3.945a14.534,14.534,0,0,0,4.98,7.823l-.388,3.358a1.847,1.847,0,0,1-.8,1.319,1.867,1.867,0,0,1-.517.243L7.71,42.1a8.011,8.011,0,0,0-3.316,1.735" fill="none" stroke="#07273c" stroke-linecap="round" stroke-miterlimit="10" stroke-width="1"/>
      <path id="パス_14647" data-name="パス 14647" d="M36.438,19.06S37.138,5,24.5,5,12.49,19.081,12.49,19.081" fill="none" stroke="#07273c" stroke-linecap="round" stroke-miterlimit="10" stroke-width="1"/>
      <path id="パス_14648" data-name="パス 14648" d="M13.391,13.039A4.516,4.516,0,0,1,15.9,10.871a7.128,7.128,0,0,1,5.29.632c2.394,1.093,4.486,2.379,7.171,2.674A12.289,12.289,0,0,0,35.559,13" fill="none" stroke="#07273c" stroke-linecap="round" stroke-miterlimit="10" stroke-width="1"/>
      <path id="パス_14649" data-name="パス 14649" d="M31.422,37.293l-6.922,6.2-6.922-6.2" fill="none" stroke="#07273c" stroke-linecap="round" stroke-linejoin="round" stroke-width="1"/>
      <path id="パス_14650" data-name="パス 14650" d="M48.5,7.5V.5h-7" fill="none" stroke="#07273c" stroke-miterlimit="10" stroke-width="1"/>
      <path id="パス_14651" data-name="パス 14651" d="M.5,41.5v7h7" fill="none" stroke="#07273c" stroke-miterlimit="10" stroke-width="1"/>
      <path id="パス_14652" data-name="パス 14652" d="M7.5.5H.5v7" fill="none" stroke="#07273c" stroke-miterlimit="10" stroke-width="1"/>
      <path id="パス_14653" data-name="パス 14653" d="M41.5,48.5h7v-7" fill="none" stroke="#07273c" stroke-miterlimit="10" stroke-width="1"/>
    </g>
  </g>
</svg>
