<svg id="グループ_3370" data-name="グループ 3370" xmlns="http://www.w3.org/2000/svg" width="184.361" height="30" viewBox="0 0 184.361 30">
  <path id="パス_2941" data-name="パス 2941" d="M495.338,373h4.747l-5.988-13.09,1.151-.616a7.984,7.984,0,0,0,4.242-7.05v-1.083a8,8,0,0,0-7.989-7.989H473.794v30h4.167V347.341H491.5a3.827,3.827,0,0,1,3.822,3.822v1.083a3.827,3.827,0,0,1-3.822,3.822h-5.9v4.167h4.04Z" transform="translate(-344.939 -343.174)" fill="#fff"/>
  <path id="パス_2942" data-name="パス 2942" d="M450.724,343.364h-4.354v17.707c0,3.279-.864,7.639-8.34,7.639h-.222c-7.476,0-8.341-4.36-8.341-7.639V343.364h-4.354v17.707c0,7.622,4.627,11.994,12.7,11.994h.222c8.068,0,12.694-4.372,12.694-11.994Z" transform="translate(-330.066 -343.232)" fill="#fff"/>
  <path id="パス_2943" data-name="パス 2943" d="M313.774,364.115a7.911,7.911,0,0,0-7.9-7.9h-9.717a3.914,3.914,0,0,1-3.909-3.909v-1.083a3.913,3.913,0,0,1,3.909-3.909H313.08v-3.993H296.154a7.911,7.911,0,0,0-7.9,7.9V352.3a7.912,7.912,0,0,0,7.9,7.9h9.717a3.961,3.961,0,0,1,3.909,3.909V365.2a3.961,3.961,0,0,1-3.909,3.909h-17.62V373.1h17.62a7.911,7.911,0,0,0,7.9-7.9Z" transform="translate(-288.252 -343.218)" fill="#fff"/>
  <g id="グループ_1387" data-name="グループ 1387" transform="translate(32.617 0.105)">
    <rect id="長方形_132" data-name="長方形 132" width="21.031" height="3.993" transform="translate(1.18)" fill="#fff"/>
    <path id="パス_2944" data-name="パス 2944" d="M335.219,370.877a7.912,7.912,0,0,0,7.9,7.9H357.43v-3.993H343.121a3.962,3.962,0,0,1-3.909-3.909v-1.083a3.962,3.962,0,0,1,3.909-3.909H357.43v-3.993H343.121a7.912,7.912,0,0,0-7.9,7.9Z" transform="translate(-335.219 -348.997)" fill="#fff"/>
  </g>
  <g id="グループ_1388" data-name="グループ 1388" transform="translate(162.149 0.087)">
    <rect id="長方形_133" data-name="長方形 133" width="21.031" height="3.993" transform="translate(1.18)" fill="#fff"/>
    <path id="パス_2945" data-name="パス 2945" d="M521.736,370.851a7.911,7.911,0,0,0,7.9,7.9h14.309V374.76H529.638a3.961,3.961,0,0,1-3.909-3.909v-1.083a3.961,3.961,0,0,1,3.909-3.909h14.309v-3.993H529.638a7.911,7.911,0,0,0-7.9,7.9Z" transform="translate(-521.736 -348.972)" fill="#fff"/>
  </g>
  <path id="パス_2946" data-name="パス 2946" d="M379.6,359.436a13.61,13.61,0,0,0,13.6,13.594h9.711v-4.115H393.2a9.49,9.49,0,0,1-9.48-9.479v-2.364a9.491,9.491,0,0,1,9.48-9.48h9.711v-4.115H393.2a13.611,13.611,0,0,0-13.6,13.6Z" transform="translate(-316.161 -343.267)" fill="#fff"/>
</svg>
