<svg xmlns="http://www.w3.org/2000/svg" width="50" height="48" viewBox="0 0 50 48">
  <g id="グループ_3309" data-name="グループ 3309" transform="translate(-743.5 -1898.5)">
    <g id="グループ_3311" data-name="グループ 3311" transform="translate(745.5 1900.5)">
      <g id="グループ_3310" data-name="グループ 3310">
        <line id="線_81" data-name="線 81" x2="28" transform="translate(9.001 44)" fill="none" stroke="#fff" stroke-linecap="round" stroke-linejoin="round" stroke-width="4"/>
        <path id="パス_6054" data-name="パス 6054" d="M764.5,1926.5h-10l2-8h6Z" transform="translate(-736.5 -1882.5)" fill="none" stroke="#fff" stroke-linecap="round" stroke-linejoin="round" stroke-width="4"/>
        <path id="パス_6055" data-name="パス 6055" d="M791.5,1933.324a3.091,3.091,0,0,1-3,3.176h-40a3.092,3.092,0,0,1-3-3.176v-29.648a3.092,3.092,0,0,1,3-3.176h40a3.091,3.091,0,0,1,3,3.176Z" transform="translate(-745.5 -1900.5)" fill="none" stroke="#fff" stroke-linecap="round" stroke-linejoin="round" stroke-width="4"/>
        <line id="線_82" data-name="線 82" x2="46" transform="translate(0.001 28)" fill="none" stroke="#fff" stroke-miterlimit="10" stroke-width="4"/>
      </g>
      <circle id="楕円形_33" data-name="楕円形 33" cx="2" cy="2" r="2" transform="translate(21.001 30)" fill="#fff"/>
    </g>
  </g>
</svg>
