<svg xmlns="http://www.w3.org/2000/svg" width="24" height="24" viewBox="0 0 24 24">
  <g id="グループ_3306" data-name="グループ 3306" transform="translate(-97 -2041)">
    <path id="パス_6051" data-name="パス 6051" d="M107.226,2050.028a1.548,1.548,0,0,0,.115-2.181l-1.549-1.549a1.55,1.55,0,0,0-2.181.114l-.944.945a2.381,2.381,0,0,0-.444,2.925,30.648,30.648,0,0,0,9.5,9.5,2.386,2.386,0,0,0,2.926-.445l.944-.944a1.548,1.548,0,0,0,.114-2.181l-1.549-1.549a1.548,1.548,0,0,0-2.18.115l-.574.573a31.218,31.218,0,0,1-4.746-4.745Z" fill="none" stroke="#fff" stroke-linecap="round" stroke-linejoin="round" stroke-width="1"/>
    <path id="パス_6052" data-name="パス 6052" d="M115,2059c.5.5,1.561,5.5-6,5.5a11.5,11.5,0,1,1,9.488-5" fill="none" stroke="#fff" stroke-linecap="round" stroke-linejoin="round" stroke-width="1"/>
  </g>
</svg>
