<svg xmlns="http://www.w3.org/2000/svg" xmlns:xlink="http://www.w3.org/1999/xlink" width="84.96" height="67.392" viewBox="0 0 84.96 67.392">
  <defs>
    <linearGradient id="linear-gradient" y1="0.28" x2="1.555" y2="0.266" gradientUnits="objectBoundingBox">
      <stop offset="0" stop-color="#26c4ff"/>
      <stop offset="1" stop-color="#1dffba"/>
    </linearGradient>
  </defs>
  <path id="交差_1" data-name="交差 1" d="M64.168,81.2H69.64c.864,7.1,5.279,12.192,14.5,12.192,7.488,0,13.248-5.376,13.248-13.152,0-8.545-5.376-13.824-15.647-13.824H78.088V61.232h3.649c10.272,0,14.688-4.8,14.688-12.768,0-6.528-5.089-12.1-12.96-12.1-7.488,0-12.768,4.992-12.96,11.712H65.032c0-10.463,8.735-16.9,18.432-16.9,10.751,0,18.527,7.392,18.527,17.376,0,8.064-4.7,12.96-10.656,15.168a16.475,16.475,0,0,1,11.616,16.32c0,10.368-7.392,18.528-18.816,18.528C71.752,98.576,64.84,91.184,64.168,81.2ZM17.992,79.376V50.384c0-12.288,8.544-19.2,18.528-19.2s18.527,6.912,18.527,19.1V79.472c0,12.192-8.544,19.1-18.527,19.1S17.992,91.664,17.992,79.376Zm5.472-29.088V79.472c0,8.64,5.664,13.92,13.056,13.92,7.3,0,12.96-5.28,12.96-13.92V50.288c0-8.64-5.665-13.92-12.96-13.92C29.128,36.368,23.464,41.648,23.464,50.288Z" transform="translate(-17.992 -31.184)" fill="url(#linear-gradient)"/>
</svg>
