<svg xmlns="http://www.w3.org/2000/svg" width="223.001" height="213.617" viewBox="0 0 223.001 213.617">
  <g id="グループ_3365" data-name="グループ 3365" transform="translate(-1125.499 -5046.5)" opacity="0.15">
    <path id="パス_4503" data-name="パス 4503" d="M1300.123,5072.557l16.141,37.583-143.653,61.7-16.139-37.583" fill="none" stroke="#000" stroke-linecap="round" stroke-linejoin="round" stroke-width="3"/>
    <path id="パス_4504" data-name="パス 4504" d="M1281.667,5093.1l-97.593,41.911a32.215,32.215,0,0,1-42.314-16.889l-1.2-2.786L1297.354,5048l1.2,2.788A32.218,32.218,0,0,1,1281.667,5093.1Z" fill="none" stroke="#000" stroke-linecap="round" stroke-linejoin="round" stroke-width="3"/>
    <path id="パス_4505" data-name="パス 4505" d="M1148.58,5128.2l-14.434,6.2,5.18,12.062-1.686-3.922L1127,5147.112l9.005,20.966,10.641-4.57-2.132-4.964" fill="none" stroke="#000" stroke-linecap="round" stroke-linejoin="round" stroke-width="3"/>
    <path id="パス_4506" data-name="パス 4506" d="M1156.317,5133.9l12.721,29.624-18.9,8.12-3.689-8.589" fill="none" stroke="#000" stroke-linecap="round" stroke-linejoin="round" stroke-width="3"/>
    <line id="線_34" data-name="線 34" y1="33.674" x2="78.406" transform="translate(1184.749 5076.452)" fill="none" stroke="#000" stroke-linecap="round" stroke-linejoin="round" stroke-width="3"/>
    <path id="パス_4507" data-name="パス 4507" d="M1279,5198.851a15.847,15.847,0,1,0,0,.007Z" fill="none" stroke="#000" stroke-linecap="round" stroke-linejoin="round" stroke-width="3"/>
    <path id="パス_4508" data-name="パス 4508" d="M1275.787,5218.74l56.246,15v-15.769l-46.246-12" fill="none" stroke="#000" stroke-linecap="round" stroke-linejoin="round" stroke-width="3"/>
    <line id="線_35" data-name="線 35" x2="10.705" y2="24.941" transform="translate(1234.491 5156.055)" fill="none" stroke="#000" stroke-linecap="round" stroke-linejoin="round" stroke-width="3"/>
    <line id="線_36" data-name="線 36" x1="10.691" y1="24.91" transform="translate(1248.791 5149.411)" fill="none" stroke="#000" stroke-linecap="round" stroke-linejoin="round" stroke-width="3"/>
    <path id="パス_4509" data-name="パス 4509" d="M1347,5250.211h-14.968V5201.5H1347" fill="none" stroke="#000" stroke-linecap="round" stroke-linejoin="round" stroke-width="3"/>
    <line id="線_37" data-name="線 37" y1="65.522" transform="translate(1347 5193.095)" fill="none" stroke="#000" stroke-linecap="round" stroke-linejoin="round" stroke-width="3"/>
  </g>
</svg>
