<svg xmlns="http://www.w3.org/2000/svg" width="218" height="223.978" viewBox="0 0 218 223.978">
  <g id="グループ_3364" data-name="グループ 3364" transform="translate(-491 -4474.022)" opacity="0.15">
    <g id="グループ_3362" data-name="グループ 3362">
      <g id="グループ_2436" data-name="グループ 2436">
        <g id="グループ_2435" data-name="グループ 2435">
          <line id="線_29" data-name="線 29" x2="137" transform="translate(504.5 4585.5)" fill="none" stroke="#000" stroke-linecap="round" stroke-miterlimit="10" stroke-width="3"/>
          <line id="線_30" data-name="線 30" y2="68" transform="translate(572.5 4517.5)" fill="none" stroke="#000" stroke-linecap="round" stroke-miterlimit="10" stroke-width="3"/>
          <path id="パス_4478" data-name="パス 4478" d="M504.257,4585.733a68.614,68.614,0,1,1,137.228.1" fill="none" stroke="#000" stroke-linecap="round" stroke-miterlimit="10" stroke-width="3"/>
          <path id="パス_4479" data-name="パス 4479" d="M572.866,4517.049s-36.778,14.682-36.778,68.612" fill="none" stroke="#000" stroke-linecap="round" stroke-miterlimit="10" stroke-width="3"/>
          <path id="パス_4480" data-name="パス 4480" d="M536.094,4585.649" fill="none" stroke="#000" stroke-linecap="round" stroke-miterlimit="10" stroke-width="3"/>
          <path id="パス_4481" data-name="パス 4481" d="M572.869,4517.049s36.778,14.682,36.778,68.612" fill="none" stroke="#000" stroke-linecap="round" stroke-miterlimit="10" stroke-width="3"/>
          <path id="パス_4482" data-name="パス 4482" d="M609.648,4585.649" fill="none" stroke="#000" stroke-linecap="round" stroke-miterlimit="10" stroke-width="3"/>
          <path id="パス_4483" data-name="パス 4483" d="M572.875,4556.229c-37.888,0-47.7-19.877-47.7-19.877" fill="none" stroke="#000" stroke-linecap="round" stroke-miterlimit="10" stroke-width="3"/>
          <path id="パス_4484" data-name="パス 4484" d="M620.584,4536.352s-9.818,19.877-47.7,19.877" fill="none" stroke="#000" stroke-linecap="round" stroke-miterlimit="10" stroke-width="3"/>
          <path id="パス_4485" data-name="パス 4485" d="M602.51,4550.263" fill="none" stroke="#000" stroke-linecap="round" stroke-miterlimit="10" stroke-width="3"/>
          <line id="線_31" data-name="線 31" y1="69" transform="translate(572.5 4585.5)" fill="none" stroke="#000" stroke-linecap="round" stroke-miterlimit="10" stroke-width="3"/>
          <path id="パス_4486" data-name="パス 4486" d="M641.485,4585.731a68.614,68.614,0,0,1-137.228,0" fill="none" stroke="#000" stroke-linecap="round" stroke-miterlimit="10" stroke-width="3"/>
          <path id="パス_4487" data-name="パス 4487" d="M572.869,4654.348s36.778-14.685,36.778-68.617" fill="none" stroke="#000" stroke-linecap="round" stroke-miterlimit="10" stroke-width="3"/>
          <path id="パス_4488" data-name="パス 4488" d="M609.648,4585.731" fill="none" stroke="#000" stroke-linecap="round" stroke-miterlimit="10" stroke-width="3"/>
          <path id="パス_4489" data-name="パス 4489" d="M572.866,4654.348s-36.779-14.685-36.779-68.612" fill="none" stroke="#000" stroke-linecap="round" stroke-miterlimit="10" stroke-width="3"/>
          <path id="パス_4490" data-name="パス 4490" d="M536.094,4585.731" fill="none" stroke="#000" stroke-linecap="round" stroke-miterlimit="10" stroke-width="3"/>
          <path id="パス_4491" data-name="パス 4491" d="M620.584,4635.04s-9.818-19.874-47.7-19.874" fill="none" stroke="#000" stroke-linecap="round" stroke-miterlimit="10" stroke-width="3"/>
          <path id="パス_4492" data-name="パス 4492" d="M525.157,4635.04s9.818-19.874,47.7-19.874" fill="none" stroke="#000" stroke-linecap="round" stroke-miterlimit="10" stroke-width="3"/>
          <path id="パス_4493" data-name="パス 4493" d="M543.225,4621.133" fill="none" stroke="#000" stroke-linecap="round" stroke-miterlimit="10" stroke-width="3"/>
        </g>
      </g>
      <g id="グループ_2438" data-name="グループ 2438">
        <rect id="長方形_162" data-name="長方形 162" width="56" height="40" transform="translate(492.5 4502.5)" fill="#fff" stroke="#000" stroke-linecap="round" stroke-miterlimit="10" stroke-width="3"/>
        <path id="パス_4501" data-name="パス 4501" d="M520.5,4475.522h0a21.916,21.916,0,0,0-22,21.828v5.15h44v-5.15A21.916,21.916,0,0,0,520.5,4475.522Z" fill="none" stroke="#000" stroke-linecap="round" stroke-miterlimit="10" stroke-width="3"/>
        <path id="パス_4502" data-name="パス 4502" d="M527.837,4518.034a7.349,7.349,0,0,0-9-7.176,7.243,7.243,0,0,0-5.187,4.493,7.356,7.356,0,0,0,2.849,8.817v6.753a4,4,0,0,0,4,4h0a4,4,0,0,0,4-4h0v-6.755A7.3,7.3,0,0,0,527.837,4518.034Z" fill="none" stroke="#000" stroke-linecap="round" stroke-miterlimit="10" stroke-width="3"/>
      </g>
      <path id="長方形_286" data-name="長方形 286" d="M592.5,4601.5h111a4,4,0,0,1,4,4v61h-119v-61A4,4,0,0,1,592.5,4601.5Z" fill="#fff" stroke="#000" stroke-linecap="round" stroke-miterlimit="10" stroke-width="3"/>
      <path id="長方形_287" data-name="長方形 287" d="M588.5,4666.5h119v26a4,4,0,0,1-4,4h-111a4,4,0,0,1-4-4v-26Z" fill="none" stroke="#000" stroke-linecap="round" stroke-miterlimit="10" stroke-width="3"/>
      <line id="線_73" data-name="線 73" x2="14" transform="translate(600.5 4681.5)" fill="none" stroke="#000" stroke-linecap="round" stroke-miterlimit="10" stroke-width="3"/>
      <line id="線_74" data-name="線 74" x2="13" transform="translate(657.5 4681.5)" fill="none" stroke="#000" stroke-linecap="round" stroke-miterlimit="10" stroke-width="3"/>
      <line id="線_75" data-name="線 75" x2="14" transform="translate(633.5 4681.5)" fill="none" stroke="#000" stroke-linecap="round" stroke-miterlimit="10" stroke-width="3"/>
      <line id="線_76" data-name="線 76" x2="13" transform="translate(681.5 4681.5)" fill="none" stroke="#000" stroke-linecap="round" stroke-miterlimit="10" stroke-width="3"/>
    </g>
    <g id="グループ_2826" data-name="グループ 2826">
      <g id="グループ_3363" data-name="グループ 3363">
        <g id="パス_5731" data-name="パス 5731">
          <path id="パス_6082" data-name="パス 6082" d="M606.579,4649.212l-1.63-1.583,1.607-1.574h8.185l1.646,1.6-1.621,1.559Zm-4.376-5.457v-7.187l1.583-1.627,1.577,1.608v7.184l-1.6,1.646Zm13.71,0v-7.187l1.583-1.627,1.574,1.607v7.185l-1.6,1.646ZM602.1,4630.635v-7.187l1.58-1.627,1.577,1.608v7.183l-1.6,1.645Zm13.793-.023v-7.187l1.581-1.63,1.576,1.6v7.187l-1.6,1.646Zm-9.332-9.488-1.629-1.583,1.6-1.574h8.184l1.646,1.6-1.624,1.56Z"/>
        </g>
        <g id="パス_5732" data-name="パス 5732">
          <path id="パス_6083" data-name="パス 6083" d="M638.01,4646l-.061-8.365,1.58-1.626,1.577,1.61.061,8.36-1.6,1.644Zm-.081-14.316.061-8.255,1.582-1.632,1.575,1.606-.061,8.252-1.6,1.648Zm-9.273-10.56-1.628-1.582,1.608-1.575h8.184l1.646,1.6-1.624,1.56Z"/>
        </g>
        <g id="パス_5733" data-name="パス 5733">
          <path id="パス_6084" data-name="パス 6084" d="M648.247,4642.937a1.653,1.653,0,0,1-1.128-.445l-.08-.08a1.96,1.96,0,0,1,0-2.67,1.649,1.649,0,0,1,2.333-.09l.088.089a1.976,1.976,0,0,1,0,2.674A1.637,1.637,0,0,1,648.247,4642.937Zm-.436-10.741a1.644,1.644,0,0,1-1.122-.44l-.088-.088a1.961,1.961,0,0,1,0-2.67,1.651,1.651,0,0,1,2.333-.089l.088.088a1.977,1.977,0,0,1,0,2.675A1.632,1.632,0,0,1,647.811,4632.2Z"/>
        </g>
        <g id="パス_5734" data-name="パス 5734">
          <path id="パス_6085" data-name="パス 6085" d="M659.665,4649.212l-1.63-1.583,1.608-1.574h8.184l1.646,1.6-1.62,1.559Zm9.334-5.457v-6.187l1.583-1.627,1.574,1.607v6.185l-1.6,1.646Zm-9.423-8.663-1.628-1.583,1.609-1.574h8.184l1.646,1.6-1.623,1.559Zm-4.393-5.457v-6.187l1.58-1.627,1.577,1.608v6.183l-1.6,1.645Zm4.457-8.511-1.628-1.582,1.61-1.575h8.184l1.646,1.6-1.624,1.56Z"/>
        </g>
        <g id="パス_5735" data-name="パス 5735">
          <path id="パス_6086" data-name="パス 6086" d="M681.756,4649.212l-1.628-1.582,1.611-1.575h8.181l1.646,1.6-1.624,1.56Zm9.339-5.456v-6.188l1.58-1.627,1.577,1.608v6.184l-1.6,1.646Zm-9.422-8.664-1.628-1.583,1.608-1.574h8.184l1.645,1.6-1.622,1.559Zm-4.394-5.457v-6.186l1.582-1.628,1.575,1.608v6.183l-1.6,1.645Zm4.456-8.5-1.628-1.583,1.611-1.58H689.9l1.645,1.6-1.625,1.565Z"/>
        </g>
      </g>
    </g>
  </g>
</svg>
