<?xml version="1.0" encoding="utf-8"?>
<!-- Generator: Adobe Illustrator 19.2.1, SVG Export Plug-In . SVG Version: 6.00 Build 0)  -->
<svg version="1.1" id="レイヤー_1" xmlns="http://www.w3.org/2000/svg" xmlns:xlink="http://www.w3.org/1999/xlink" x="0px"
	 y="0px" viewBox="0 0 512 512" style="enable-background:new 0 0 512 512;" xml:space="preserve">
<style type="text/css">
	.st0{fill:#ff8021;}
</style>
<g>
	<path class="st0" d="M265.5,226.8L265.5,226.8h-0.2c-6.1-0.1-10.5-1.7-14.1-3.2c-3.6-1.6-6.6-3.3-9.3-4.8l-1.1-0.6
		c-5-2.9-10.2-5.8-15.8-8c0,0-0.1,0-0.1,0l6.1,44.8l-19.5,24.7L192,254.8l6.2-45.9c-6.8,2.3-12.7,5.6-18.9,9.1c-1.8,1-3.6,2-5.4,3
		l-1.6,0.8c-4.1,2.1-9.3,4.7-17.6,4.9h-0.1h-0.2c0,0,0,0,0,0v3.7v256.2c0,14,11.4,25.4,25.4,25.4c14,0,25.4-11.4,25.4-25.4v-186h9.5
		v186c0,14,11.4,25.4,25.4,25.4c14,0,25.4-11.4,25.4-25.4V230.5L265.5,226.8C265.6,226.8,265.5,226.8,265.5,226.8z"/>
</g>
<g>
	<path class="st0" d="M168.5,129c-14.4,0.6-27,7.1-34.7,16.5c-8.4,10-11.8,22.1-11.9,33.6c0,7.8,1.6,15.6,5.1,22.8
		c3.5,7.1,9.2,13.8,17.3,17.9c3.3,1.7,7,2.4,10.2,2.4c0.1,0,0.1,0,0.2,0c8.1-0.2,12.7-3,17.1-5.2c12.7-6.9,24.7-15.5,44.2-15.6
		c3.1,0,6.4,0.2,9.9,0.8c9,1.3,17.3-4.8,18.7-13.8c1.3-9-4.8-17.3-13.8-18.7c-5.1-0.8-10.1-1.1-14.8-1.1c-20,0-35.7,6.5-46.7,12.3
		c-5.2,2.8-9.5,5.3-12.5,6.9c-0.1-0.1-0.2-0.3-0.2-0.4c-0.5-1-0.9-2.2-1.2-3.7l4.1-2.6c2.2-1.3,4.8-2.7,7.7-4.2
		c12-6.3,23.7-10.2,35.6-11.9c-0.8-0.5-1.6-1-2.4-1.7l-0.6-0.9l3.9-15.4h7.8h7.8l3.9,15.4l-0.6,0.9c-0.4,0.3-0.8,0.6-1.2,0.9
		c3.3,0.2,6.7,0.5,10,1c5.4,0.8,10,3.6,13.2,7.6c5.3,2.3,9.9,4.8,14.1,7.2c0.7,0.4,1.3,0.8,2,1.1l4.1,2.6c-0.3,1.4-0.7,2.7-1.2,3.7
		c-0.1,0.1-0.1,0.3-0.2,0.4c-1.8-1-4.2-2.3-6.8-3.9c-2.4-1.4-5.2-2.9-8.3-4.4c1,3,1.3,6.2,0.8,9.6c-1.5,9.9-10,17.4-19.9,17.8
		c5.4,2.3,10.3,5.1,15.1,7.9c2.8,1.6,5.6,3.1,8.8,4.6c3.2,1.4,7.1,2.8,12.4,2.9c0,0,0.1,0,0.1,0c3.2,0,6.9-0.7,10.2-2.4
		c8.1-4.1,13.8-10.8,17.3-17.9c3.5-7.2,5.1-14.9,5.1-22.8c0-11.5-3.5-23.7-11.9-33.6c-7.7-9.4-20.3-15.9-34.7-16.5
		c-0.6-0.1-1.2-0.1-1.8-0.1h-19.3h-40.7h-19.3C169.7,128.9,169.1,128.9,168.5,129z"/>
</g>
<g>
	<circle class="st0" cx="210" cy="71" r="46.2"/>
</g>
<g>
	<path class="st0" d="M273.7,27c0.6,0,1.1-0.5,1.5-1.6c0.4-1.1,0.6-2.4,0.7-4c0.1-2.8,0.3-4.4,0.6-5c0.1-0.1,1-0.2,2.8-0.3
		c1.8-0.1,2.9-0.2,3.3-0.2c0.6,0,1.7-0.1,3.2-0.2c1.6-0.1,2.6-0.2,3.1-0.2c0.2,0,0.3,0.3,0.3,0.8c0,0.8-0.2,2.4-0.5,4.6
		c-0.3,2.2-0.5,3.6-0.5,3.9c0,0.6,0.2,1.1,0.7,1.4c0.5,0.4,0.9,0.6,1.4,0.6c0.5,0,1-0.3,1.6-0.9c0.6-0.6,0.9-1.2,0.9-1.8
		c0-1.3,0.2-3.9,0.5-7.8c0.3-3.9,0.7-7.1,1.2-9.6c0.4-2.2,0.6-3.8,0.6-4.6c0-0.6-0.2-1.1-0.6-1.5c-0.4-0.4-0.9-0.6-1.5-0.6
		c-0.5,0-1,0.2-1.5,0.7c-0.5,0.4-0.7,0.8-0.7,1.1c0,2.1-0.1,4.1-0.4,6c-0.2,1.9-0.5,3-0.7,3.4c-0.2,0.4-1.8,0.7-4.7,1
		s-5.1,0.4-6.7,0.4c-0.7,0-1.1-0.1-1.2-0.2c0-1,0.2-2.5,0.6-4.6c0.3-1.8,0.5-3.1,0.5-4c0-1.9-0.7-2.8-2.2-2.8
		c-0.4,0-0.9,0.2-1.3,0.5c-0.4,0.4-0.6,0.7-0.7,1.1c-0.9,9.4-1.7,15.6-2.4,18.6c-0.3,1.3-0.5,2.3-0.5,3.1c0,0.8,0.2,1.5,0.7,1.9
		C272.4,26.8,273,27,273.7,27z"/>
</g>
<g>
	<path class="st0" d="M301.1,26.6c1.2,0,1.8-0.6,1.9-1.7c0.9-2.2,2.3-4.7,4.1-7.5c1.8-2.8,2.9-4.2,3.4-4.2c0.3,0,0.6,1.6,0.6,4.7
		c0.1,3.5,0.4,5.6,1.1,6.1c0.7,0.6,1.3,0.8,2,0.8c0.8,0,1.6-0.4,2.4-1.3c0.7-0.9,1.6-2.4,2.7-4.5c1.2-2.4,2-4,2.5-4.8
		c0.5-0.8,0.8-1.2,1.1-1.2c0.3,0,0.5,0.3,0.6,0.8c0.1,0.5,0.3,1.6,0.4,3.3c0.2,3.4,0.7,5.7,1.3,6.8c0.6,1.1,1.5,1.7,2.7,1.7
		c0.7,0,1.3-0.2,2-0.7c0.6-0.5,1-1,1-1.5c0-0.5-0.3-0.9-0.8-1.2c-0.7-0.3-1.2-1-1.5-2.1c-0.3-1-0.5-2.6-0.7-4.6
		c-0.2-2.6-0.6-4.4-1.2-5.5s-1.5-1.6-2.7-1.6c-1,0-2.1,0.5-3,1.4c-1,0.9-2.1,2.8-3.4,5.6c-1.2,2.5-1.9,3.8-2.1,3.8
		c-0.3,0-0.4-1.3-0.4-3.9c0-2.9-0.4-4.7-1-5.6c-0.6-0.8-1.5-1.3-2.5-1.3c-2.6,0-5.5,3.5-8.7,10.6c0-0.7,0.2-1.9,0.5-3.5
		c0.6-2.7,0.9-4.4,0.9-5.1c0-2.1-0.8-3.1-2.5-3.1c-0.5,0-0.9,0.1-1.2,0.4c-0.3,0.3-0.4,0.7-0.4,1.1c0,1.8-0.1,3.7-0.4,5.6
		c-0.4,2.4-0.6,5.4-0.6,8.9C298.9,25.5,299.6,26.6,301.1,26.6z"/>
</g>
<g>
	<path class="st0" d="M335.8,26.6c1.2,0,1.8-0.6,1.9-1.7c0.9-2.2,2.3-4.7,4.1-7.5c1.8-2.8,2.9-4.2,3.4-4.2c0.3,0,0.6,1.6,0.6,4.7
		c0.1,3.5,0.4,5.6,1.1,6.1c0.7,0.6,1.3,0.8,2,0.8c0.8,0,1.6-0.4,2.4-1.3c0.7-0.9,1.6-2.4,2.7-4.5c1.2-2.4,2-4,2.5-4.8
		c0.5-0.8,0.8-1.2,1.1-1.2c0.3,0,0.5,0.3,0.6,0.8c0.1,0.5,0.3,1.6,0.4,3.3c0.2,3.4,0.7,5.7,1.3,6.8c0.6,1.1,1.5,1.7,2.7,1.7
		c0.7,0,1.3-0.2,2-0.7c0.6-0.5,1-1,1-1.5c0-0.5-0.3-0.9-0.8-1.2c-0.7-0.3-1.2-1-1.5-2.1c-0.3-1-0.5-2.6-0.7-4.6
		c-0.2-2.6-0.6-4.4-1.2-5.5c-0.6-1.1-1.5-1.6-2.7-1.6c-1,0-2.1,0.5-3,1.4c-1,0.9-2.1,2.8-3.4,5.6c-1.2,2.5-1.9,3.8-2.1,3.8
		c-0.3,0-0.4-1.3-0.4-3.9c0-2.9-0.4-4.7-1-5.6c-0.6-0.8-1.5-1.3-2.5-1.3c-2.6,0-5.5,3.5-8.7,10.6c0-0.7,0.2-1.9,0.5-3.5
		c0.6-2.7,0.9-4.4,0.9-5.1c0-2.1-0.8-3.1-2.5-3.1c-0.5,0-0.9,0.1-1.2,0.4c-0.3,0.3-0.4,0.7-0.4,1.1c0,1.8-0.1,3.7-0.4,5.6
		c-0.4,2.4-0.6,5.4-0.6,8.9C333.6,25.5,334.3,26.6,335.8,26.6z"/>
</g>
<g>
	<path class="st0" d="M369.6,25.4c0.4,0,0.9-0.3,1.6-0.8c0.7-0.5,1.1-0.9,1.3-1.3c0.2-0.3,0.3-0.8,0.3-1.5c0-0.4-0.2-0.7-0.5-1.1
		c-0.4-0.3-0.9-0.5-1.6-0.5c-0.9,0-1.6,0.1-2.1,0.3c-0.5,0.2-0.8,0.5-0.8,0.8c-0.1,0.3-0.1,0.8-0.1,1.4c0,1.1,0.2,1.8,0.5,2.1
		C368.4,25.3,368.9,25.4,369.6,25.4z"/>
</g>
<g>
	<path class="st0" d="M378.2,25.4c0.4,0,0.9-0.3,1.6-0.8c0.7-0.5,1.1-0.9,1.3-1.3c0.2-0.3,0.3-0.8,0.3-1.5c0-0.4-0.2-0.7-0.5-1.1
		c-0.4-0.3-0.9-0.5-1.6-0.5c-0.9,0-1.6,0.1-2.1,0.3c-0.5,0.2-0.8,0.5-0.8,0.8c-0.1,0.3-0.1,0.8-0.1,1.4c0,1.1,0.2,1.8,0.5,2.1
		C377.1,25.3,377.6,25.4,378.2,25.4z"/>
</g>
<g>
	<path class="st0" d="M386.9,25.4c0.4,0,0.9-0.3,1.6-0.8c0.7-0.5,1.1-0.9,1.3-1.3c0.2-0.3,0.3-0.8,0.3-1.5c0-0.4-0.2-0.7-0.5-1.1
		c-0.4-0.3-0.9-0.5-1.6-0.5c-0.9,0-1.6,0.1-2.1,0.3c-0.5,0.2-0.8,0.5-0.8,0.8c-0.1,0.3-0.1,0.8-0.1,1.4c0,1.1,0.2,1.8,0.5,2.1
		C385.7,25.3,386.2,25.4,386.9,25.4z"/>
</g>
</svg>
