<?xml version="1.0" encoding="utf-8"?>
<!-- Generator: Adobe Illustrator 19.2.1, SVG Export Plug-In . SVG Version: 6.00 Build 0)  -->
<svg version="1.1" id="レイヤー_1" xmlns="http://www.w3.org/2000/svg" xmlns:xlink="http://www.w3.org/1999/xlink" x="0px"
	 y="0px" viewBox="0 0 512 512" style="enable-background:new 0 0 512 512;" xml:space="preserve">
<style type="text/css">
	.st0{fill:#ff8021;}
</style>
<g>
	<path class="st0" d="M165.3,369.2c-11.5,0-21.8-5.8-28-14.7l-63.7,47.5c-12.5,9.3-15.1,27-5.8,39.5c5.5,7.4,14,11.4,22.7,11.4
		c5.9,0,11.8-1.8,16.8-5.6l112.9-84.1c0.4-0.3,0.8-0.7,1.3-1l-51.7,6.8C168.3,369.1,166.8,369.2,165.3,369.2z"/>
</g>
<g>
	<path class="st0" d="M212.6,247.2c-0.7-1-1.4-2.1-2.1-3.4c-2.3-3.6-4.7-7.6-6.7-12L185.7,298l58.2-7.7L212.6,247.2z"/>
</g>
<g>
	
		<ellipse transform="matrix(0.8238 -0.5669 0.5669 0.8238 0.8072 285.8235)" class="st0" cx="460.2" cy="141.6" rx="51.8" ry="51.8"/>
</g>
<g>
	<path class="st0" d="M491.1,276.7l-87.7-43.4l-2-80.2c0.2-3.5-0.3-6.9-1.5-10.2c-6.4-17.2-27.6-33.2-57.1-28.8l22.2,14.6
		c10.9,7.2,13.9,22,6.7,32.9c-4.4,6.7-11.8,10.7-19.8,10.7c-4.6,0-9.2-1.4-13.1-3.9l-53.1-35c-10.8,5.1-21,10.9-31.3,17.9
		c-10.7,7.3-21.7,16-33.8,26.6c-24.5,24.9-16.7,46.6-5.7,63.3c0.6,1,1.2,2,1.9,3l36.5,50.3l-91.8,12.1
		c-15.8,2.1-26.9,16.5-24.8,32.3c1.9,14.5,14.3,25,28.5,25c1.3,0,2.5-0.1,3.8-0.3l139.8-18.4c10.1-1.3,18.7-7.9,22.7-17.2
		c4-9.3,2.8-20.1-3.1-28.3l-47.3-65.2c6-4.1,12.3-7.9,18.7-11.4c17.9-10,36.7-18.1,53.1-25.1c-16.8,14.9-35.3,27.8-55,38.4
		c-1.4,2.2-2.8,4.3-4.2,6.4l10.5,14.4c2.3-0.3,4.5-0.7,6.8-1.1c15.2-11.5,37.6-33.1,55-52.6l1,41.7c0.2,6.8,4.1,13,10.2,16.1
		l97.6,48.4c2.6,1.3,5.4,1.9,8.2,1.9c6.8,0,13.3-3.8,16.5-10.2C503.9,292.3,500.2,281.3,491.1,276.7z"/>
</g>
<g>
	<path class="st0" d="M163.8,143.1l-3.2-19.4l-2.5-15.3l-2.5-15.4l11.7-1.9l0.3,2l1,6.1c-4.1,4-6.3,9.9-5.4,16
		c1,6.2,5,11.3,10.3,13.8l1,6.1l1,6L163.8,143.1z M270.9,117.1l70.8,46.8c3.1,2.1,6.7,3,10.1,3c6,0,11.9-2.9,15.4-8.3
		c5.6-8.5,3.3-19.9-5.2-25.5l-76.8-50.7c-3.8-2.5-8.5-3.5-13-2.8l-93.7,14.6c-0.1,0-0.2,0-0.3,0.1l-0.9-5.2l-1.6-9.8l-22,3.6
		l-3.9-23.7L58.2,74.4l19.5,117.8l91.7-15.2l-3.9-23.7l22-3.6l-2.3-13.8l-0.9-5.2L270.9,117.1z"/>
</g>
<g>
	<rect x="79" y="210.7" class="st0" width="95.1" height="4.7"/>
</g>
<g>
	<rect x="59.2" y="239" class="st0" width="95.1" height="4.7"/>
</g>
<g>
	<rect y="224.8" class="st0" width="136.5" height="4.7"/>
</g>
<g>
	<rect x="327.8" y="383.4" class="st0" width="95.1" height="4.7"/>
</g>
<g>
	<rect x="308" y="411.7" class="st0" width="95.1" height="4.7"/>
</g>
<g>
	<rect x="248.8" y="397.6" class="st0" width="136.5" height="4.7"/>
</g>
</svg>
