<?xml version="1.0" encoding="utf-8"?>
<!-- Generator: Adobe Illustrator 19.2.1, SVG Export Plug-In . SVG Version: 6.00 Build 0)  -->
<svg version="1.1" id="レイヤー_1" xmlns="http://www.w3.org/2000/svg" xmlns:xlink="http://www.w3.org/1999/xlink" x="0px"
	 y="0px" viewBox="0 0 512 512" style="enable-background:new 0 0 512 512;" xml:space="preserve">
<style type="text/css">
	.st0{fill:#ff8021;}
</style>
<g>
	<path class="st0" d="M371,157.7c20.6,0,35.1-56,0-56S350.4,157.7,371,157.7z M458,153c20.6,0,35.1-56,0-56S437.4,153,458,153z
		 M512,260l-3.7-79.7c-0.2-3.2-0.7-7.4-3.3-9.4c-2.7-2.1-8.1-3.1-11.5-4c-8.4-2.3-14.1-4.4-22.6-6.8l-13,12.9L445,160
		c-6.7,1.9-11.7,3.6-17.7,5.4c3,3.9,4,8.7,4.5,13.8l5.7,56.3l-1.9,24.4L512,260z M141,157.7c-20.6,0-35.1-56,0-56
		C176.1,101.7,161.6,157.7,141,157.7z M54,153c-20.6,0-35.1-56,0-56S74.6,153,54,153z M0,260l3.7-79.7c0.2-3.2,0.7-7.4,3.3-9.4
		c2.7-2.1,8.1-3.1,11.5-4c8.4-2.3,14.1-4.4,22.6-6.8l13,12.9L67,160c6.7,1.9,11.7,3.6,17.7,5.4c-3,3.9-3.9,8.7-4.5,13.8l-5.7,56.3
		l1.9,24.4L0,260z M87.7,304.4l-2.6-64.1l5.6-55.5c0.3-3.2,0.7-7.4,3.3-9.4c2.7-2.1,8.1-3.1,11.5-4c8.4-2.3,14.1-4.4,22.6-6.8
		l13,12.9l5.5-5.5c-1.8,5.1-3.5,10.1-5.2,15.2c-2.2,6.8-3,14.1-1.7,21.2c4.8,26.8,12.1,54.2,18.9,80.6c1.7,6.8,5.5,11.9,10.2,15.3
		L87.7,304.4L87.7,304.4z M424.3,304.4l2.6-64.1l-5.6-55.5c-0.3-3.2-0.7-7.4-3.3-9.4c-2.7-2.1-8.1-3.1-11.5-4
		c-8.4-2.3-14.1-4.4-22.6-6.8l-13,12.9l-5.5-5.5c1.8,5.1,3.5,10.1,5.2,15.2c2.2,6.8,3,14.1,1.7,21.2c-4.8,26.8-12.1,54.2-18.9,80.6
		c-1.7,6.8-5.5,11.9-10.2,15.3L424.3,304.4L424.3,304.4z"/>
</g>
<g>
	<path class="st0" d="M316.9,273.7c-0.2-37.2-2.5-72.5-3.1-110.2c7.4,11.9,11.1,23.8,15,37.2C326.1,220.9,322.7,248.5,316.9,273.7z
		 M195.1,273.7c-5.8-25.1-9.2-52.8-11.9-73c4.2-13.8,7.6-25.3,15-37.2C197.6,201.2,195.3,236.5,195.1,273.7z M359.7,191
		c-8.8-26.7-19.1-54.6-36-78.1c-4.3-5.9,4.9-3-17-9.1c-11.9-3.3-18.4-6.3-30.5-9.7c-3.5,13.9-7.8,41.7-14.2,54.6l-0.9-34.3L256,111
		l-5.1,3.4l-0.9,34.3c-6.4-12.8-10.7-40.7-14.2-54.6l-44.1,13.5c-2.6,0.7-1.6,2.9-3.4,5.3c-16.9,23.5-27.2,51.3-36,78.1
		c-1.1,3.3-2.5,9-1.3,15.5c4.1,22.8,14.1,61.9,18.7,79.8c3.7,14.6,20,14,25.4,4.4c0,2.3,0.1,11.6,0.1,14h6.7
		c3.4,67.7,4.7,136.9,6.2,202.5c0.1,2.7,2.3,5,5.1,5h28.1c2.7,0,5-2.2,5.1-4.9l5.1-194.6c0.2-6.2,8.7-6.2,8.8,0l5.1,194.6
		c0.1,2.7,2.3,4.9,5.1,4.9h28.1c2.8,0,5-2.2,5.1-5c1.6-65.5,2.8-134.8,6.2-202.5h6.7c0-2.3,0.1-11.6,0.1-14
		c5.4,9.5,21.7,10.2,25.4-4.4c4.6-17.9,14.6-57,18.7-79.8C362.1,199.9,360.7,194.3,359.7,191z"/>
</g>
<g>
	<path class="st0" d="M256,84c30.9,0,52.7-84,0-84S225.1,84,256,84z"/>
</g>
</svg>
