<?xml version="1.0" encoding="utf-8"?>
<!-- Generator: Adobe Illustrator 19.2.1, SVG Export Plug-In . SVG Version: 6.00 Build 0)  -->
<svg version="1.1" id="レイヤー_1" xmlns="http://www.w3.org/2000/svg" xmlns:xlink="http://www.w3.org/1999/xlink" x="0px"
	 y="0px" viewBox="0 0 512 512" style="enable-background:new 0 0 512 512;" xml:space="preserve">
<style type="text/css">
	.st0{fill:#ff8021;}
</style>
<g>
	<path class="st0" d="M0,363.2c3.7,0,131.4,0,131.4,0L77.6,512H0V363.2z"/>
</g>
<g>
	<path class="st0" d="M512,363.2c-3.7,0-131.4,0-131.4,0L434.4,512H512V363.2z"/>
</g>
<g>
	<circle class="st0" cx="313.9" cy="129.3" r="21.2"/>
</g>
<g>
	<path class="st0" d="M402.6,164.5c-2-4.4-7.1-6.4-11.7-4.9l-39.1,12.5l-32.2-3.6c-6.4-0.9-8.1-2-13.9-5l-16.1-8.3
		c-5-2.6-7.1-3.6-11.1-7.6l-20.1-21.9l-16.9-38.6c-1.8-4.4-6.7-7.1-11.3-5.8c-5.5,1.5-8.3,7.5-6.3,12.6l15.3,37.5
		c1.8,4.6,5.8,9.5,8.7,12.2l22.4,24.7l-32,62.4l0.1,0.1l-22.1,42.4l-45.9,27.6c-5.5,3.3-9.5,9.5-5.4,16.4c3.9,6.4,11.3,6.7,16.9,3.3
		l49-29.5c2.1-1.3,3.6-3.3,4.7-5.2l27.6-41.3L316,269l22,51.1c2.4,5.5,8.5,8.4,14,6.6c6.5-2.1,9.7-9.3,7.1-15.4l-23.5-54.6
		c-1.2-3-3.6-5.7-7-7.1l-41.4-19.2l21.9-42.7l38.4,3.8c2.7,0.4,7.2-0.2,9.6-1l39.8-13C402.3,175.8,405,169.7,402.6,164.5z"/>
</g>
</svg>
