<?xml version="1.0" encoding="utf-8"?>
<!-- Generator: Adobe Illustrator 19.2.1, SVG Export Plug-In . SVG Version: 6.00 Build 0)  -->
<svg version="1.1" id="レイヤー_1" xmlns="http://www.w3.org/2000/svg" xmlns:xlink="http://www.w3.org/1999/xlink" x="0px"
	 y="0px" viewBox="0 0 512 512" style="enable-background:new 0 0 512 512;" xml:space="preserve">
<style type="text/css">
	.st0{fill:#ff8021;}
</style>
<g>
	<circle class="st0" cx="245.5" cy="97.7" r="22.9"/>
</g>
<g>
	<path class="st0" d="M304.4,181.7c0,0.1,0,0.1,0,0.2c0,0.1,0,0.2,0,0.4V181.7z"/>
</g>
<g>
	<path class="st0" d="M506.4,100.2l-65-65c-7.5-7.5-15.1-8.3-23.2-8.3c0,0-44.5,0.1-47.9,0.2c-6.6,0.4-10.8,2.9-14.9,6.1
		c-1.6,1.3-98.6,98.5-98.6,98.5c-4,4-7.5,10.5-7.5,19.9l-0.1,87.1L212.2,276c-4.5,4.5-4.5,11.7,0,16.2c4.5,4.5,11.7,4.5,16.2,0
		l35.6-35.6c8.6-8.6,8.5-16.4,8.3-22.6l0.6-26.4h40.9v45.8c0,6.3,5.2,11.5,11.5,11.5c6.3,0,11.5-5.2,11.5-11.5l-0.1-56.5
		c0-0.1,0-0.2,0-0.4c-0.2-7.5-6.3-13-12.5-13H291v-55.1l63.3-63.3h50.4l-29.8,31.4c-5.6,5.6-5.4,15.2-0.6,19.5
		c4.7,4.1,8.8,3.6,13.7,3.6h59.8c6.2,0,11.6-4.3,11.8-10.5c0.2-6.5-5-11.3-11.5-11.3H406l32.9-32.9l51.3,51.4
		c4.5,4.5,11.7,4.5,16.2,0C510.8,111.9,510.8,104.7,506.4,100.2z"/>
</g>
<g>
	<circle class="st0" cx="316.2" cy="26.8" r="22.9"/>
</g>
<g>
	<polygon class="st0" points="350.5,130.9 350.5,277.9 350.5,292.5 350.5,507.9 512,507.9 512,292.5 512,277.9 512,130.9 	"/>
</g>
<g>
	<rect x="175.3" y="310" class="st0" width="161.5" height="198"/>
</g>
<g>
	<rect x="0.1" y="433.4" class="st0" width="161.5" height="74.7"/>
</g>
</svg>
