<svg xmlns="http://www.w3.org/2000/svg" viewBox="0 0 63.34 75.58"><defs><style>.cls-1{fill:#1e1f21}</style></defs><g id="レイヤー_2" data-name="レイヤー 2"><g id="メモ"><path class="cls-1" d="M61.85 75.58H1.49A1.49 1.49 0 010 74.09V19.21L21 0h40.85a1.49 1.49 0 011.49 1.49v72.6a1.49 1.49 0 01-1.49 1.49zM1.31 19.79v54.3a.18.18 0 00.18.18h60.36a.19.19 0 00.18-.18V1.49a.19.19 0 00-.18-.18H21.47z"/><path class="cls-1" d="M.65 20.34a.85.85 0 00.84.84h20.18a.84.84 0 00.83-.84V1.49a.83.83 0 00-.83-.83zM13 43.93v8.41h-2.91V33.6h4.61a15.28 15.28 0 013 .22 4.72 4.72 0 011.69.74 4.35 4.35 0 011.38 1.76 5.91 5.91 0 01.5 2.44 6 6 0 01-.5 2.46A4.16 4.16 0 0119.4 43a4.54 4.54 0 01-1.69.73 14.54 14.54 0 01-3 .22H13zm.19-2.5h.78a6.88 6.88 0 003.38-.55 2.13 2.13 0 00.84-1.94 2.37 2.37 0 00-.9-2.11 6.31 6.31 0 00-3.32-.62h-.78zM24 52.34V33.6h4.11a26.85 26.85 0 015.64.4 7.64 7.64 0 012.86 1.35 7.79 7.79 0 012.46 3.19A11.13 11.13 0 0140 43a10.92 10.92 0 01-.84 4.42 7.92 7.92 0 01-2.46 3.19 7.67 7.67 0 01-2.8 1.35 21.91 21.91 0 01-4.88.4H24zm3.05-2.75h2.56a13.7 13.7 0 003.17-.28 4.71 4.71 0 001.83-1 5.72 5.72 0 001.6-2.26 9.6 9.6 0 000-6.29 5.62 5.62 0 00-1.6-2.25 4.6 4.6 0 00-1.9-1 15.18 15.18 0 00-3.46-.28h-2.2zM43.45 52.34V33.6H53.9v2.59h-7.41v4.67h7.41v2.67h-7.41v8.81z"/></g></g></svg>