<?xml version="1.0" encoding="utf-8"?>
<!-- Generator: Adobe Illustrator 25.0.1, SVG Export Plug-In . SVG Version: 6.00 Build 0)  -->
<svg version="1.1" id="レイヤー_1" xmlns="http://www.w3.org/2000/svg" xmlns:xlink="http://www.w3.org/1999/xlink" x="0px"
	 y="0px" viewBox="0 0 797.7 157.6" style="enable-background:new 0 0 797.7 157.6;" xml:space="preserve">
<style type="text/css">
	.st0{fill:#50A135;}
	.st1{enable-background:new    ;}
</style>
<g id="レイヤー_2_1_">
	<g id="ヘッター_フッター">
		<path class="st0" d="M535.3,4.8h-14.8v12h-21.7v15h21.7v18.8c0,28.7-7.1,34.9-20.1,36.1l-2.4,0.2v15.2l2.8-0.2
			c23.5-1.7,34.5-18,34.5-51.3V31.8h21.4v40.5c0,11.2-2.9,14.5-13,14.5h-6.5v14.7h6.5c19.8,0,27.9-8.5,27.9-29.3V16.8h-36.3
			L535.3,4.8z"/>
		<path class="st0" d="M624,4.4h-15v11.3h-29.1v48.1H595v-33h42.5v18.7c0,28.1-11.3,38.1-43.4,38.1h-4.9v14.8h4.9
			c40.9,0,58.3-15.7,58.3-52.6V15.7H624V4.4z"/>
		<path class="st0" d="M706.4,33.7l-0.3,7.9c-1.3,30.4-17.2,45.8-47.3,45.8h-2v15h1.5c39.4,0,61.8-21.4,62.9-60.3l0.2-7
			c0.1-3.7,1-10.1,5.6-10.8l2.3-0.3V8.3l-3,0.4C714.4,10.4,707,19.7,706.4,33.7z"/>
		<path class="st0" d="M783,52.6c-15.3,0-32.3-6.9-32.3-16.8V5.6h-15.3v96.9h15.3V59.3c8.4,5.4,19.6,8.3,32.3,8.3h14.7v-15L783,52.6
			z"/>
		<circle class="st0" cx="669.7" cy="25" r="12.9"/>
		<path class="st0" d="M121.3,131c-1.9-1.9-1.9-5.1,0-7l5.7-5.7c1.9-1.9,5.1-1.9,7,0l14.1,14.1c0.4-1.7,0.6-3.4,0.6-5.1V21.6
			c0-11.9-9.7-21.6-21.6-21.6H21.6C9.7,0,0,9.7,0,21.6v105.6c0,11.9,9.7,21.6,21.6,21.6h105.6c3.4,0,6.7-0.8,9.6-2.3L121.3,131z
			 M30,116.9C5.4,92.4,5.4,52.6,29.9,28s64.4-24.6,89-0.1s24.6,64.4,0.1,89c-11.8,11.8-27.8,18.5-44.5,18.5
			C57.8,135.4,41.8,128.7,30,116.9z M116.3,121.6c1.3-1.1,2.6-2.2,3.8-3.5s2.4-2.5,3.5-3.8l2.8,2.8l-0.2,0.2l-5.7,5.7
			c-0.4,0.5-0.8,1-1.1,1.6L116.3,121.6z"/>
		<path class="st0" d="M108.7,38.3c-18.9-18.9-49.5-18.9-68.4,0s-18.9,49.5,0,68.4c18.9,18.9,49.5,18.9,68.4,0
			c18.9-18.6,19.1-49,0.5-67.9C109,38.6,108.8,38.5,108.7,38.3z M95,109.9H53c-2.2-0.1-3.8-1.9-3.7-4.1c0.1-2,1.7-3.6,3.7-3.7h42
			c2.2,0.1,3.8,1.9,3.7,4.1C98.6,108.2,97,109.8,95,109.9z M60.6,63.5l-1.4-1.2c-5.7-4.8-5.5-10.5-5.5-10.7v-7H57v7
			c0,0.2,0,4.4,4.3,8.1c0.9,0.8,1.8,1.5,2.7,2.1c3.5,2.8,6.8,5.4,7.4,9.6c0.1,0.4,0.1,0.7,0.1,1.1c0,0.4,0,0.7-0.1,1.1
			c-0.5,4.1-3.8,6.8-7.4,9.6c-0.9,0.7-1.8,1.4-2.7,2.1c-4.5,3.8-4.3,8-4.3,8v7.1h-3.3v-7c0-0.2-0.2-5.8,5.5-10.7l1.4-1.2
			c3.7-3.1,7.5-6.3,7.5-9.1S64.3,66.6,60.6,63.5z M88.6,62.3c-0.9,0.8-1.8,1.5-2.8,2.2c-3.5,2.7-6.2,4.9-6.2,8c0,2.8,3.8,6,7.5,9.1
			l1.4,1.2c5.7,4.8,5.5,10.5,5.5,10.7v7h-3.3v-7c0-0.2,0-4.4-4.4-8.1l-1.4-1.2c-4.5-3.8-8.7-7.3-8.7-11.6c0-4.8,3.6-7.7,7.5-10.7
			c0.9-0.7,1.8-1.4,2.7-2.1c4.4-3.7,4.4-7.9,4.4-8v-7.1h3.3v7C94.2,51.8,94.3,57.5,88.6,62.3z M89.3,100.5H58.6
			c0.3-1.2,0.6-2.3,1-3.4c0.6-1.7,2.2-3.3,4-5.1c2.8-2.8,8-7.7,8.9-9.2c0.7-1.6,1.2-3.3,1.5-5c0.3,1.7,0.8,3.4,1.5,5
			c0.9,1.5,6,6.3,8.9,9.2c1.8,1.8,3.4,3.4,4,5.1C88.8,98.2,89.1,99.3,89.3,100.5z M79.7,62.5c-3.6,3.2-2.8,2.1-4,4.1
			S74,73.7,74,73.7s-0.5-5.1-1.7-7.2s-0.3-0.8-4-4.1c-2.3-2.1-4.2-4.6-5.7-7.3c0,0,5.4,3.8,11.4,3.8s11.4-3.8,11.4-3.8
			C83.9,57.9,82,60.4,79.7,62.5L79.7,62.5z M95,43.6H53c-2.2,0-3.9-1.7-3.9-3.9c0-2.2,1.7-3.9,3.9-3.9c0,0,0,0,0,0h42
			c2.2,0,3.9,1.7,3.9,3.9C98.9,41.9,97.2,43.6,95,43.6C95,43.6,95,43.6,95,43.6z"/>
		<circle class="st0" cx="252.6" cy="35.3" r="3.9"/>
		<path class="st0" d="M254.5,52.1l4.4-9.7c0.5-1,0-2.2-1-2.6c-0.3-0.1-0.6-0.2-0.9-0.2h-8.8c-1.1,0-2,0.9-2,2
			c0,0.3,0.1,0.6,0.2,0.8l4.4,9.7c0.4,1,1.6,1.5,2.6,1C253.9,52.9,254.3,52.5,254.5,52.1z"/>
		<rect x="248.2" y="43.8" class="st0" width="8.9" height="12.8"/>
		
			<rect x="241" y="45.4" transform="matrix(0.1647 -0.9863 0.9863 0.1647 160.0132 282.1193)" class="st0" width="11.2" height="2.3"/>
		
			<rect x="257.6" y="41" transform="matrix(0.9863 -0.1647 0.1647 0.9863 -4.1382 43.2473)" class="st0" width="2.3" height="11.2"/>
		<circle class="st0" cx="269.7" cy="35.3" r="3.9"/>
		<path class="st0" d="M271.5,52.1l4.4-9.7c0.5-1,0-2.2-1-2.6c-0.3-0.1-0.5-0.2-0.8-0.2h-8.8c-1.1,0-2,0.9-2,2
			c0,0.3,0.1,0.6,0.2,0.8l4.4,9.7c0.5,1,1.6,1.5,2.6,1C271,52.9,271.3,52.5,271.5,52.1z"/>
		<rect x="265.2" y="43.8" class="st0" width="8.9" height="12.8"/>
		
			<rect x="258" y="45.4" transform="matrix(0.1647 -0.9863 0.9863 0.1647 174.2611 298.9432)" class="st0" width="11.2" height="2.3"/>
		
			<rect x="274.6" y="41" transform="matrix(0.9863 -0.1647 0.1647 0.9863 -3.9052 46.0576)" class="st0" width="2.3" height="11.2"/>
		<circle class="st0" cx="286.8" cy="35.3" r="3.9"/>
		<path class="st0" d="M288.6,52.1l4.4-9.7c0.5-1,0-2.2-1-2.6c-0.3-0.1-0.6-0.2-0.8-0.2h-8.8c-1.1,0-2,0.9-2,2
			c0,0.3,0.1,0.6,0.2,0.8l4.4,9.7c0.4,1,1.6,1.5,2.6,1C288,52.9,288.4,52.5,288.6,52.1z"/>
		<rect x="282.3" y="43.8" class="st0" width="8.9" height="12.8"/>
		
			<rect x="275.1" y="45.4" transform="matrix(0.1647 -0.9863 0.9863 0.1647 188.5172 315.777)" class="st0" width="11.2" height="2.3"/>
		
			<rect x="290.8" y="39.4" transform="matrix(0.9872 -0.1595 0.1595 0.9872 -3.444 47.1625)" class="st0" width="2.3" height="11.2"/>
		<path class="st0" d="M221.3,82.7h-20.2l-0.3,3.3c-1.9,19.2-10,34.7-21.8,41.3l-1.9,1.1v23.5l5.2-2.3c21.4-9.5,35.5-32.4,38.6-62.9
			L221.3,82.7z"/>
		<path class="st0" d="M318.7,7.1h-97v62.2h83.1c7.7,0,13.9-6.3,14-14L318.7,7.1z M242.5,51.8V24.6h54.9v27.2H242.5z"/>
		<path class="st0" d="M245.9,127.5v-22.6h22.6V85.7h-22.6V72.1h-21.2v56c-1.4,0-2.8-0.1-4.3-0.1h-3.7v20.1h7.7
			c22.3,0,30-0.2,42.4-5.3l2.3-0.9v-21.6l-5.3,2.6C258.2,125.5,252.1,127.1,245.9,127.5z"/>
		<polygon class="st0" points="218.1,56.7 177.1,40.9 177.1,61.7 218.1,77.6 		"/>
		<polygon class="st0" points="218.1,18.3 177.1,2.7 177.1,23.5 218.1,39.8 		"/>
		<path class="st0" d="M322.4,148.1h-33.8c-10.8,0-18.1-7.1-18.1-17.8V72.1h20.9v14.8l27.3-9.1v20.3l-27.3,9.2v19.2
			c0,1.2,0.4,1.2,0.9,1.2h30.1V148.1z"/>
		<path class="st0" d="M476,4.4h-19.1l-5.4,19.5h-18.1c1.4-5,2.5-10.2,3.1-15.3l0.5-4.2h-19.5L417,7.5c-2.6,17.1-7.8,28.5-15.5,33.7
			l-1.6,1.1v15h-0.3l-3.2,0.3V15.4h-30.2v-11H347v11h-12.3v19.2h12.1c-0.8,13-4.2,21.1-10.3,24.4l-2,1v22.3l5-2
			c16-6.3,25.1-22.1,26.4-45.6h11.3v25.8c-0.1,3.9,1.1,7.8,3.5,10.9h-19.3v12.6h-26.7v18.9h16c-2.9,10-8.2,18.6-14.5,23.5l-1.5,1.1
			v22.4l5.5-3.1c9.3-5.3,16.3-14.1,21.2-23.5v26.8h19.7v-27c5.4,10.4,12.8,18.8,21.3,23.7l5.5,3.2v-22.6l-1.5-1.1
			c-6.5-4.8-11.7-13.2-14.7-23.4h8.1c4.4,0,8-3.6,8-8V83.9h-26.8V71.6c3,3.5,7.4,5.4,12,5.2h6.3c4.1,0,6.4-0.4,10.1-3l1.1-0.8V148
			h55.9c7.7,0,13.9-6.2,13.9-13.9l0,0v-4.8h-12v-16.2h12V94.2h-12V77.9h12v-19h-12v-16h12v-19h-9.7L476,4.4z M429.9,58.9v-16h19.5
			v16H429.9z M429.9,94.2V77.9h19.5v16.3H429.9z M429.9,129.3v-16.3h19.5v16.3H429.9z"/>
		<g class="st1">
			<path class="st0" d="M499.8,132.7c-0.2,0.2-0.5,0.4-0.8,0.4c-0.6,0-0.6-0.1-2.2-2.2c-2.2-2.9-2.3-3.1-2.3-4.2
				c0-1.5,0.6-2.3,1.3-2.3c0.7,0,1.1,0.3,2.5,2.2c0.6,0.9,1.6,2.3,1.8,2.6c0.2,0.3,0.3,1,0.3,1.3
				C500.5,131.1,500.4,132.1,499.8,132.7z M500.6,137.7c0,2-0.8,5-1.9,9.3c-0.7,2.5-0.8,2.8-1.2,3.3c-0.4,0.4-0.8,0.5-1.1,0.5
				c-1.2,0-1.4-1.7-1.4-2.2c0-0.9,0.2-1.6,0.6-2.7c0.8-2.3,1.5-5.8,2.1-8.7c0.1-0.5,0.4-1.9,1.3-1.9
				C500.1,135.2,500.6,136.5,500.6,137.7z M499.9,123.6c-0.4,0-0.6-0.2-1.9-1.6c-1.8-1.8-2-2-2.2-2.5c-0.1-0.2-0.4-0.8-0.4-1.4
				c0-2.2,1.2-2.4,1.5-2.4c0.6,0,0.9,0.3,2.2,1.8c0.3,0.3,1.8,1.9,1.9,2.1c0.3,0.5,0.4,1.4,0.4,1.4
				C501.4,122.9,500.4,123.6,499.9,123.6z M507,145.5c1.9-0.4,2.2,1.6,2.2,2.2c0,0.6-0.2,1.4-0.6,1.9c-0.2,0.3-0.5,0.4-1.3,0.5
				l-5.5,0.9c-0.2,0-0.4,0.1-0.6,0.1c-0.7,0-1.6-0.8-1.6-2.2c0-0.8,0.4-1.5,0.7-1.9c0.4-0.3,0.5-0.3,1.3-0.5v-11.6
				c0-2.2,0.4-3,1.7-3c-0.9-0.5-1.4-1.5-1.4-3.1v-9.3c0-1.3,0.6-2.3,0.9-2.7c0.5-0.5,1.2-0.6,1.7-0.6h9.4c2.5,0,2.8,2.9,2.8,3.3v8.7
				c0,1.7-0.4,2.3-0.5,2.7c-0.4,0.7-1.2,1.2-1.6,1.2h-2.5c0.5,0.7,0.5,1.4,0.5,2.7v2.1c0.9-0.5,1.7-1.1,3.2-2.1
				c0.2-0.2,0.3-0.2,0.7-0.2c0.7,0,1.3,0.8,1.3,2.2c0,1.2-0.1,1.8-2.5,3.2c-0.4,0.2-1.8,0.9-2.6,1.4v3.9c0,0.6,0.2,1,0.5,1h0.9
				c0.6,0,0.8-0.4,1-2.5c0.1-1,0.7-1.7,1-1.7c1.7,0,1.7,1.9,1.7,2.6c0,2-0.6,4.5-1.1,5.1c-0.9,1-0.9,1.1-1.3,1.1h-2.8
				c-2.4,0-3-1.6-3-4.1v-11.8c0-1.1,0-1.9,0.5-2.7h-5.2c-0.4,0-0.6,0-0.9-0.1c0.7,0.6,0.7,1.7,0.7,2.8v1.3h2.5c1.1,0,2,0,2,2.1
				c0,2.3-0.8,2.3-2,2.3h-2.5v5.2L507,145.5z M513.8,121.4c0-0.4-0.1-1-0.7-1h-7.5c-0.7,0-0.7,0.3-0.7,1.6h8.9V121.4z M504.9,126
				v1.1c0,0.9,0.3,0.9,0.7,0.9h7.6c0.4,0,0.6-0.4,0.6-1v-1H504.9z"/>
		</g>
		<g class="st1">
			<path class="st0" d="M526.5,148.1c0,1.3,0,3.2-1.3,3.2c-1.3,0-1.4-1.7-1.4-3.2v-4.2c-1.2,2.4-2.2,4.2-3.2,4.2
				c-1,0-1.4-1.5-1.4-2.2c0-0.9,0.4-1.6,1.1-2.6c0.8-1.3,1.6-2.6,2.3-4c0.1-0.2,0.1-0.2,0.2-0.3h-1.1c-1,0-1.3,0-1.6-0.6
				c-0.3-0.5-0.4-1.1-0.4-1.6c0-1,0.4-1.6,0.6-1.8c0.3-0.3,0.6-0.3,1.4-0.3h2.2v-1.2c0-1.3,0-3.1,1.3-3.1s1.4,1.7,1.4,3.1v1.2h2.3
				c1,0,1.3,0,1.6,0.6c0.3,0.5,0.4,1.1,0.4,1.6c0,1-0.4,1.6-0.6,1.8c-0.3,0.3-0.7,0.3-1.4,0.3h-1.1c1.1,1.7,1.3,1.8,2.5,3.2
				c0.3,0.4,0.7,0.7,0.7,1.9c0,0.9-0.5,2.5-1.4,2.5c-0.8,0-1.6-1.3-2.9-3.4V148.1z M536.7,120.5c0,0,0.5-2.5,0.5-3
				c0.2-1.5,0.4-2.6,1.4-2.6c0.3,0,1.6,0,1.6,2.2c0,0.6-0.3,2.7-0.5,3.4h0.9c0.9,0,2,0,2,2.1c0,2.2-1,2.2-2,2.2h-1.2v3.7h0.8
				c1,0,2,0,2,2.1c0,2.2-0.9,2.2-2,2.2h-0.8v4h0.9c1,0,2,0,2,2.2s-1.1,2.2-2,2.2h-0.9v4.5h1c1,0,2,0,2,2.2c0,2.2-1.1,2.2-2,2.2h-6.8
				c-1.3,0-2.2-1.1-2.2-3.4v-19.1c-0.2,0.1-0.3,0.2-0.6,0.1c0,0.9-0.1,1.5-0.2,1.7c-0.4,1.8-1.7,1.9-1.7,1.9h-1.6
				c-0.2,0-1.7-0.5-1.7-3.1v-4.3c0-1.3,0-1.3-0.7-1.3c-0.5,3.1-1.4,6-2.8,8.3c-0.2,0.3-0.8,1.2-1.6,1.2c-0.7,0-1.4-1.1-1.4-2.3
				c0-0.4,0.1-1,0.4-1.6c1.5-2.4,1.9-3,2.3-5.6h-0.7c-1,0-2,0-2-2c0-2,1-2,2-2h1c0-0.3,0-1.5,0-1.8c0-0.7,0.3-1.9,1.3-1.9
				c1.6,0,1.6,1.3,1.5,3.7h1.5c0.4,0,1.3,0.4,1.3,2.5v5.7c0,0.2,0,0.5,0.2,0.4c0.2,0,0.2-0.2,0.3-0.4c0.1-0.5,0.4-0.8,1-0.7
				c0-0.2,0-0.3,0-0.5c0-0.6,0.1-0.7,0.9-2.6c0.2-0.4,1.1-2.7,2.1-6.9c0.2-1,0.7-1.5,1.1-1.5c0.4,0,1.7,0.4,1.7,2.2
				c0,1-0.4,2.3-0.8,3.7H536.7z M536.7,128.5v-3.7h-2.1c-0.3,0-0.5,0-0.5,0.7v3H536.7z M536.7,136.8v-4h-2.5v4H536.7z M536.7,141.2
				h-2.5v3.6c0,0.6,0.2,0.8,0.5,0.8h2V141.2z"/>
		</g>
		<g class="st1">
			<path class="st0" d="M560.3,145.3c0,0.7,0,1.1,0.8,1.1h2.2c0.9,0,1.1-2,1.2-3.5c0-0.5,0.2-2,1.3-2c1.5,0,1.5,1.9,1.5,2.4
				c0,1.3-0.2,3.9-0.8,5.4c-0.2,0.4-1.2,2.3-3,2.3h-2.9c-0.2,0-1.8,0-2.7-1.1c-0.7-0.8-0.7-1.9-0.7-3.5v-5.8h-3.3
				c-0.2,2-0.5,5.9-3.9,8.7c-1.4,1.2-3.1,1.7-4.1,1.7c-1.6,0-1.6-2.2-1.6-2.4c0-1.7,0.8-2,1.8-2.2c2.1-0.6,4.2-1.7,4.8-5.7h-0.8
				c-1.1,0-1.9-0.3-2.4-0.9c-0.2-0.2-0.7-1.6-0.7-2.4v-18.2c0-0.4,0.3-2.2,1.1-2.8c0.7-0.4,1.7-0.5,2-0.5h11.2
				c1.4,0,3.1,0.5,3.1,3.2v18.2c0,0.4-0.3,2.2-1.1,2.8c-0.6,0.4-1.7,0.5-2,0.5h-1V145.3z M561.4,121.1c0-0.7-0.6-0.8-0.6-0.8h-10.2
				c-0.3,0-0.6,0.3-0.6,0.8v1.5h11.4V121.1z M550,127v2.4h11.4V127H550z M550,133.7v2c0,0.8,0.6,0.8,0.6,0.8h10.2
				c0.3,0,0.6-0.3,0.6-0.8v-2H550z"/>
		</g>
		<g class="st1">
			<path class="st0" d="M581.7,134.5c2.4,0,2.5,2.6,2.5,6.7c0,1.9,0,3.5,1.6,3.5c0.8,0,1.9-0.4,2.1-0.4c1.1-0.4,1.2-0.4,1.4-0.4
				c0.7,0,1.6,0.9,1.6,2.8c0,0.9-0.2,2-1.1,2.5c-1,0.5-3.3,0.8-4.7,0.8c-3.9,0-4.3-3-4.3-8.1c0-1.7,0-3.2-1.1-3.2
				c-1.3,0-4.1,4.3-5.4,6.5c-0.3,0.6-1.8,3.2-2.1,3.7c-0.2,0.4-0.7,0.8-1.2,0.8c-0.8,0-1.7-1-1.7-2.8c0-1,0.3-1.7,1.6-3.7
				c1.6-2.6,4.4-6.7,6.1-9.3c0.7-1,1.9-2.9,2.9-4.2c-1.1,0-5.8,0.6-6.7,0.6c-1.6,0-2-1.6-2-2.8c0-2.7,1.6-2.7,2-2.7
				c0.6,0,3.2,0,3.7,0c1.7,0,2-0.1,6.2-0.7h0.3c1.7,0,2,2.2,2,2.8c0,0.4,0,1.2-0.4,1.8c-1.1,1.6-2.8,4.2-3.9,5.8
				C581.2,134.6,581.4,134.5,581.7,134.5z M576.3,115.1c0.3,0,0.4,0,2,1c2.1,1.1,3.3,1.5,4.9,1.9c1,0.3,1.4,1.2,1.4,2.4
				c0,1.4-0.6,2.7-1.7,2.7c-0.9,0-5-1.5-7.1-2.8c-1.2-0.8-1.2-2.1-1.2-2.7C574.7,116.6,575.3,115.1,576.3,115.1z"/>
		</g>
		<g class="st1">
			<path class="st0" d="M604.6,129.4c5.9,0,7.4,6.2,7.4,9.9c0,7.5-4.8,11-9.6,11c-1,0-6.6,0-6.6-6.5c0-3.1,1.6-5.8,4.7-5.8
				c1.2,0,3.2,0.5,4.2,2.8c0.7,1.6,0.9,3.2,1,4.2c2.3-1.4,3.1-3.4,3.1-5.4c0-0.9-0.2-3.4-2-4.8c-0.9-0.7-2-0.8-3-0.8
				c-3.9,0-6.2,2.2-6.5,2.6c-0.4,0.5-2.2,2.4-2.5,2.8c-0.4,0.4-0.9,0.9-1.5,0.9c-0.9,0-1.7-1.1-1.7-2.8c0-1.5,0.7-2.3,1.3-3
				c4.7-5.1,5.3-5.7,8.6-9c0.9-0.9,2.1-2.1,3.3-3.3c-3.2,0.7-8.6,0.9-8.8,0.9c-1,0-1.7-1.1-1.7-2.6c0-1.2,0.4-1.9,0.8-2.2
				c0.4-0.4,0.9-0.4,1.4-0.4c0.4,0,2.1,0.1,2.5,0.1c2,0,4-0.2,6.1-0.3c0.3,0,2.1-0.2,2.1-0.2c0.4,0,2.4,0,2.4,3.1
				c0,1.9-0.9,2.9-1.6,3.8c-0.9,1.1-3.6,3.7-6,5.8C602.5,129.8,603.2,129.4,604.6,129.4z M600.3,142.2c-0.8,0-1.3,0.6-1.3,1.3
				c0,1.1,1.1,2.1,2.5,2.1c0.2,0,0.4,0,0.7-0.1C602.2,144.7,602.1,142.2,600.3,142.2z"/>
		</g>
		<g class="st1">
			<path class="st0" d="M620.4,148.1c0,1.6,0,2.1-0.4,2.6s-0.8,0.6-1.2,0.6c-1.5,0-1.5-1.5-1.5-3.2v-15.9c-0.9,2.1-1.1,2.6-1.9,2.6
				c-0.9,0-1.7-0.9-1.7-2.3c0-0.8,0.1-1.4,1.5-4.1c1.6-3.3,2.7-7.2,3.7-11.1c0.2-0.9,0.4-1.5,0.5-1.7c0.2-0.4,0.7-0.5,1-0.5
				c0.6,0,1.7,0.5,1.7,1.8c0,1.7-1,5.2-1.5,6.9V148.1z M628,144.6c0,0.6,0,0.9,0.4,1.1c0.4,0.2,1.8,0.4,2.5,0.4
				c2.7,0,2.8-0.7,2.9-2.3c0.1-0.5,0.2-3.2,0.3-3.4c0.1-0.4,0.4-1.1,1.3-1.1c1.5,0,1.6,1.3,1.6,2.6c0,0.3,0,4.4-0.7,6.2
				c-0.8,2.1-2,2.7-5.2,2.7c-1.3,0-4-0.1-5-0.9c-1.1-0.9-1.1-2.5-1.1-4.1v-27.4c0-1.8,0-3.2,1.5-3.2c0.2,0,1.1,0,1.5,0.9
				c0.2,0.4,0.2,0.9,0.2,2.3v9.3c1.4-0.8,2.5-1.5,5.3-4.1c0.7-0.7,0.7-0.7,1.3-1.4c0.2-0.2,0.4-0.4,0.7-0.4c0.9,0,1.6,1.6,1.6,2.6
				s-0.6,1.9-2,3.3c-2.8,2.8-5.4,4.7-7,4.9V144.6z"/>
		</g>
		<g class="st1">
			<path class="st0" d="M644.5,132.2c-0.9,0-1.2-0.7-2.1-3.1c-1.2-3-1.4-3.4-2.9-6.2c-0.4-0.7-0.5-1.3-0.5-1.8
				c0-1.5,0.9-2.8,1.8-2.8c0.6,0,1,0.1,2.9,4c2.2,4.5,2.6,5.6,2.6,6.9C646.3,131.5,645.1,132.2,644.5,132.2z M655.3,140.5
				c-3.8,6.9-8.6,9.2-9.8,9.2c-0.9,0-1.7-1-1.7-3c0-1.7,0.7-2.1,1.9-2.8c6.7-3.7,8.5-10.1,9.6-15.5c0.6-2.8,0.7-4.3,0.9-7.5
				c0.1-1.2,0.4-2.6,1.7-2.6c0.3,0,1.9,0.2,1.9,2.6C659.7,125.4,658.5,134.6,655.3,140.5z"/>
		</g>
		<g class="st1">
			<path class="st0" d="M667.2,130.9c0,2.1,0,4.2-1.9,4.2c-1.8,0-1.8-2.2-1.8-4.2v-10.4c0-2.1,0-4.2,1.9-4.2c1.8,0,1.8,2.1,1.8,4.2
				V130.9z M679.2,133c0,5.2-0.8,10.3-4.3,14c-2.5,2.6-5.3,3.1-6,3.1c-1,0-1.8-1.1-1.8-2.9c0-2.3,1.3-2.6,1.9-2.7
				c1.9-0.4,5.6-2.2,6.2-6.7c0.3-1.7,0.5-3.9,0.5-4.8v-12.6c0-2.2,0-2.7,0.5-3.5c0.2-0.3,0.5-0.7,1.3-0.7c0.4,0,1,0,1.5,1.1
				c0.3,0.6,0.3,1.3,0.3,3V133z"/>
		</g>
		<g class="st1">
			<path class="st0" d="M697.9,144.3c1.3,0,1.8,0,2.2,0.8c0.4,0.6,0.4,1.3,0.4,1.7c0,0.7-0.1,1.3-0.4,1.8c-0.5,0.8-1,0.8-2.2,0.8
				h-12.4c-1.3,0-1.8,0-2.2-0.8c-0.3-0.5-0.4-1.1-0.4-1.8c0-1.1,0.4-1.7,0.7-2.1c0.4-0.4,1-0.4,2-0.4h6.5c0.9-5,1.7-10.7,1.7-12
				c0-1-0.4-1-1-1h-5c-1.3,0-1.8,0-2.2-0.8c-0.3-0.5-0.4-1.1-0.4-1.7c0-0.7,0.2-1.6,0.7-2c0.4-0.4,1-0.4,2-0.4h6.7
				c1.2,0,2.7,0.9,2.7,4c0,2-0.8,7.5-0.9,8.7c-0.2,1.7-0.4,2.8-0.8,5.2H697.9z"/>
		</g>
		<g class="st1">
			<path class="st0" d="M721.2,129.5c1.4,0,1.7,0,2.2,0.7c0.2,0.3,0.5,0.8,0.5,2c0,0.5,0,1.6-0.7,2.3c-0.4,0.4-0.9,0.4-1.9,0.4
				h-15.8c-1.4,0-1.7,0-2.2-0.8c-0.2-0.3-0.5-0.8-0.5-2c0-0.5,0-1.6,0.7-2.3c0.4-0.4,0.9-0.4,1.9-0.4H721.2z"/>
		</g>
		<g class="st1">
			<path class="st0" d="M732.1,135.6c-0.6,0-0.6-0.1-3.2-2.5c-2.2-1.9-2.4-2.2-2.6-2.7c-0.1-0.3-0.2-0.7-0.2-1.3
				c0-1.5,0.8-2.6,1.6-2.6c0.8,0,2.4,1.5,3.3,2.3c2.4,2.2,2.7,2.8,2.7,3.9C733.6,134.5,732.8,135.6,732.1,135.6z M727.8,149.1
				c-0.5-0.6-0.7-1.5-0.7-2.4c0-1.1,0.4-2.8,1.6-2.8c0.2,0,0.9,0,1,0c1.4,0,6.2-0.6,10-5.8c2-2.8,3.6-6.3,4.6-10.1
				c0.4-1.6,1.2-1.7,1.6-1.7c1.2,0,1.9,1.3,1.9,2.6c0,1.3-1.6,7.7-5.8,13.4c-4.8,6.5-10.2,7.3-12.5,7.3
				C728.6,149.6,728.2,149.5,727.8,149.1z M736.1,121.3c0.5,0.7,0.8,1.3,0.8,2.1c0,1.4-0.7,2.7-1.7,2.7c-0.5,0-0.7-0.2-2.7-2.3
				c-0.4-0.4-1.7-1.7-2.3-2.2c-0.2-0.2-0.9-0.8-0.9-2.2c0-1.5,0.9-2.9,1.8-2.7C732.3,116.9,735.5,120.5,736.1,121.3z"/>
		</g>
		<g class="st1">
			<path class="st0" d="M754.2,139.4c-1.2,0-1.7,0-2.1-0.5c-0.4-0.4-0.5-1.2-0.5-1.9c0-0.4,0.1-1.7,0.8-2.1c0.4-0.2,0.9-0.2,1.8-0.2
				h9.2v-3.1c0-1.5-0.4-1.5-1.1-1.5h-8.1c-1.4,0-2.7,0-2.7-2.4c0-0.6,0.1-1.6,0.8-2.1c0.3-0.3,0.6-0.3,1.9-0.3h9.7
				c1.7,0,2.7,1.4,2.7,4.1v15.9c0,0.6,0,1.9-0.7,3c-0.5,0.9-1.4,1.2-2.1,1.2h-9.4c-1.5,0-1.8,0-2.2-0.7c-0.3-0.5-0.5-1.1-0.5-1.7
				c0-0.9,0.3-1.6,0.7-2c0.4-0.4,0.9-0.4,2-0.4h8.2c0.7,0,0.8,0,0.9-0.3c0-0.1,0.1-0.2,0.1-1v-3.9H754.2z"/>
		</g>
		<g class="st1">
			<path class="st0" d="M771.1,145.9c0-2.3,1.2-2.5,1.6-2.5c3.4-0.6,6.6-1.1,10.4-5.5c3.3-3.7,4.3-8.2,5.1-11.6
				c0.3-1.3,0.9-1.7,1.4-1.7c0.9,0,1.9,0.9,1.9,2.6c0,0.7-0.9,7.2-4.7,12.9c-3.9,5.8-9.2,8.7-13.9,8.7
				C771.6,148.8,771.1,147.5,771.1,145.9z M777.6,129.4c-0.7,0-0.9-0.3-2.9-2.7c-0.9-1.1-1-1.2-2.5-2.9c-0.5-0.6-1.1-1.2-1.1-2.5
				c0-1.7,0.7-3,1.7-3c0.6,0,0.8,0,3.4,3.1c3.1,3.7,3.1,4.5,3.1,5.4C779.4,127.6,778.9,129.4,777.6,129.4z"/>
		</g>
	</g>
</g>
</svg>
