<svg xmlns="http://www.w3.org/2000/svg" viewBox="0 0 275.3 282.1"><path data-name="除外 3" d="M137.6 282a125.6 125.6 0 0 1-14-.7 126.7 126.7 0 0 1-13.7-2.3 128.6 128.6 0 0 1-13.2-3.8 131.8 131.8 0 0 1-12.6-5 135.7 135.7 0 0 1-12-6.3 140 140 0 0 1-40.7-36A151.5 151.5 0 0 1 .7 151.8c-.5-4.7-.7-9.5-.7-14.2a139.8 139.8 0 0 1 .7-14 138 138 0 0 1 2.1-13.7 137 137 0 0 1 94-103.7c4.2-1.4 8.7-2.5 13.1-3.4a138 138 0 0 1 13.7-2 139.7 139.7 0 0 1 28.1 0 138 138 0 0 1 13.7 2 137 137 0 0 1 103.7 94c1.3 4.2 2.5 8.7 3.4 13.1a138 138 0 0 1 2 13.7 139.8 139.8 0 0 1 .8 14 141.9 141.9 0 0 1-10.9 54.7 149.2 149.2 0 0 1-61.2 71.6 135.7 135.7 0 0 1-12 6.3 131.8 131.8 0 0 1-12.6 5 128.6 128.6 0 0 1-13.2 3.8 126.7 126.7 0 0 1-13.7 2.3 125.7 125.7 0 0 1-14 .8zm.2-197.9a54 54 0 0 0-10.8 1.1 53.4 53.4 0 0 0-19.2 8A53.8 53.8 0 0 0 88.3 117a53.4 53.4 0 0 0-3.1 10 54.2 54.2 0 0 0 0 21.7 53.4 53.4 0 0 0 8 19.2 53.8 53.8 0 0 0 23.7 19.4 53.4 53.4 0 0 0 10 3.1 54.2 54.2 0 0 0 21.7 0 53.4 53.4 0 0 0 19.2-8 53.8 53.8 0 0 0 19.4-23.6 53.4 53.4 0 0 0 3.1-10.1 54.2 54.2 0 0 0 0-21.6 53.4 53.4 0 0 0-8-19.2 53.8 53.8 0 0 0-23.6-19.5 53.4 53.4 0 0 0-10.1-3.1 54 54 0 0 0-10.8-1z" fill="#fff"/></svg>