<svg xmlns="http://www.w3.org/2000/svg" width="276" height="282"><path data-name="パス 12" d="M138 282a127.3 127.3 0 0 1-27.8-3 130.9 130.9 0 0 1-25.8-8.8 138.2 138.2 0 0 1-23.5-13.7 145.7 145.7 0 0 1-20.4-18 150.1 150.1 0 0 1-29.6-46 146.6 146.6 0 0 1-8-26.5A141.9 141.9 0 0 1 0 138a137.2 137.2 0 0 1 23.6-77 139 139 0 0 1 60.8-50.1A137.4 137.4 0 0 1 215 23.6a139 139 0 0 1 50 60.8A137 137 0 0 1 276 138a141.9 141.9 0 0 1-2.8 28 146.6 146.6 0 0 1-8 26.6 150.1 150.1 0 0 1-29.7 45.9 145.7 145.7 0 0 1-20.4 18 138.2 138.2 0 0 1-23.5 13.7 130.9 130.9 0 0 1-25.9 8.7A127.3 127.3 0 0 1 138 282zm.5-198a52.7 52.7 0 0 0-20.8 4.2 53.4 53.4 0 0 0-9.1 5 54.2 54.2 0 0 0 0 89.6 53.4 53.4 0 0 0 9 5 53.2 53.2 0 0 0 41.7 0 53.4 53.4 0 0 0 9.1-5 54.2 54.2 0 0 0 0-89.6 53.4 53.4 0 0 0-9-5 52.7 52.7 0 0 0-20.9-4.2z" fill="#fff"/></svg>